<svg width="1346" height="141" viewBox="0 0 1346 141" fill="none" xmlns="http://www.w3.org/2000/svg">
<g opacity="0.05">
<path d="M1335.48 2.6466C1335.84 2.09522 1336.5 1.27919 1336.92 0.838089C1337.36 0.374935 1337.85 0 1338.01 0C1338.16 0 1338.29 0.242605 1338.29 0.551374C1338.29 0.860144 1338.14 1.7644 1337.94 2.60249C1337.67 3.72729 1337.61 4.78593 1337.7 7.05759C1337.74 8.68966 1337.96 10.6746 1338.14 11.4686C1338.34 12.2626 1338.76 13.5638 1339.07 14.4019C1339.51 15.5488 1339.62 16.2766 1339.62 17.7543C1339.62 18.7908 1339.51 20.5552 1339.38 21.68C1339.24 22.7828 1339.18 23.9738 1339.27 24.3266C1339.33 24.6575 1339.62 25.0765 1339.89 25.2529C1340.17 25.4294 1341.23 25.7382 1342.27 25.9146C1343.87 26.2013 1344.26 26.3557 1344.88 26.9732C1345.28 27.3482 1345.7 27.9216 1345.83 28.2304C1345.94 28.5391 1346.03 29.1126 1345.99 29.5316C1345.94 30.0389 1345.72 30.4359 1344.68 31.2078L1342.32 30.5902C1341.01 30.2594 1339.69 29.9948 1339.33 29.9948C1339 29.9948 1338.67 30.1271 1338.58 30.2815C1338.49 30.4138 1338.45 30.899 1338.47 31.3181C1338.49 31.7371 1338.67 32.5972 1338.85 33.1927C1339.02 33.8103 1339.18 34.4278 1339.18 34.5822C1339.18 34.7145 1338.98 34.9351 1338.74 35.0674C1338.43 35.2218 1337.92 35.1777 1336.92 34.913C1335.9 34.6263 1335.26 34.2514 1334.47 33.5236C1333.63 32.7737 1333.1 31.9797 1332.26 30.2153C1331.64 28.9361 1330.82 27.5467 1330.44 27.1276C1330.04 26.7086 1329.2 26.1351 1328.54 25.8705C1327.88 25.6058 1326.64 25.1868 1325.8 24.9662C1324.94 24.7457 1324.12 24.481 1323.96 24.4149C1323.83 24.3266 1323.7 24.1281 1323.7 23.9958C1323.7 23.8414 1324.07 23.5327 1324.52 23.2901C1324.98 23.0695 1325.64 22.7828 1326.02 22.6725C1326.37 22.5622 1327.88 22.3858 1329.34 22.2976C1331.53 22.1211 1332.03 22.0109 1332.28 21.68C1332.43 21.4595 1332.61 20.9302 1332.7 20.5111C1332.76 20.07 1332.61 18.4159 1332.32 16.6515C1331.95 14.3137 1331.86 13.1448 1331.95 11.8656C1332.03 10.9172 1332.34 9.39542 1332.65 8.49116C1332.96 7.58691 1333.56 6.10923 1334 5.24908C1334.45 4.36688 1335.11 3.19797 1335.48 2.6466Z" fill="#F23E0D"/>
<path d="M724.66 4.56538C725.324 3.99195 726.252 3.37441 726.739 3.19797C727.225 3.04359 728.198 2.8892 728.906 2.8892C729.592 2.86715 730.167 2.91126 730.167 2.97742C730.167 3.04359 729.746 3.28619 729.238 3.50674C728.707 3.74935 728.066 4.16839 727.778 4.4551C727.314 4.8962 727.27 5.11675 727.358 6.39594C727.447 7.65308 727.646 8.2265 729.039 10.9172C730.189 13.1668 730.631 14.2255 730.609 14.843C730.609 15.2841 730.343 16.2104 730.012 16.8721C729.658 17.5337 729.481 18.1512 729.569 18.2395C729.68 18.3277 730.675 18.46 731.803 18.5262C733.218 18.5923 734.014 18.7467 734.434 19.0334C734.788 19.254 735.142 19.7833 735.319 20.2906C735.562 21.1066 735.54 21.2169 735.076 21.68C734.656 22.077 734.346 22.1652 733.196 22.1432C732.378 22.1211 731.029 21.8785 727.845 20.8861L725.412 21.3713C723.798 21.7021 722.67 21.8124 722.095 21.7021C721.609 21.6359 720.658 21.3051 719.994 20.9963C719.331 20.6655 717.827 19.7833 716.677 19.0334C715.527 18.2615 714.444 17.6219 714.311 17.644C714.156 17.644 714.046 17.5116 714.09 17.3793C714.134 17.2249 714.798 16.9823 715.594 16.85C716.368 16.6956 717.717 16.5853 718.557 16.5633C719.397 16.5633 720.724 16.6736 721.476 16.8279C722.228 16.9603 722.935 17.0264 723.024 16.9382C723.112 16.8279 722.869 16.2766 722.493 15.659C722.095 15.0635 721.653 14.0931 721.52 13.5197C721.387 12.9022 721.365 11.8876 721.454 11.1378C721.542 10.4099 721.785 9.26309 722.029 8.60144C722.25 7.93979 722.67 6.99143 722.957 6.50622C723.245 6.02101 724.019 5.13881 724.66 4.56538Z" fill="#F23E0D"/>
<path d="M1051.63 24.481C1052.47 23.2018 1053.45 21.9447 1053.8 21.68C1054.13 21.3933 1054.55 21.1728 1054.73 21.1728C1054.88 21.1728 1055.02 21.2389 1055.02 21.3492C1055.02 21.4374 1054.77 22.2755 1054.46 23.2239C1054.15 24.1502 1053.8 25.9366 1053.67 27.1938C1053.49 28.8258 1053.49 30.083 1053.67 31.7592C1053.8 33.0383 1054.11 34.6704 1054.35 35.3982C1054.6 36.126 1054.99 38.111 1055.24 39.8092C1055.5 41.5075 1055.79 43.2498 1055.9 43.6688C1056.01 44.0879 1056.32 44.7936 1056.61 45.2127C1057.01 45.8082 1057.69 46.2713 1059.59 47.1976C1060.94 47.8593 1062.2 48.543 1062.36 48.6974C1062.6 48.9179 1062.58 49.0282 1062.25 49.359C1061.92 49.6899 1061.45 49.734 1059 49.6899C1057.16 49.6457 1055.95 49.7119 1055.64 49.8663C1055.35 50.0207 1054.84 50.3736 1054.46 50.6823C1053.91 51.1234 1053.65 51.1896 1052.92 51.0793C1052.43 50.9911 1051.41 50.6382 1050.66 50.2853C1049.89 49.9104 1049.09 49.3811 1048.89 49.0944C1048.67 48.8077 1048.23 48.4548 1047.9 48.3224C1047.54 48.1901 1046.75 48.0798 1046.13 48.0798C1045.49 48.0798 1044.82 47.9916 1044.67 47.9034C1044.49 47.8152 1044.4 47.5505 1044.45 47.3079C1044.49 46.9991 1045.07 46.6022 1046.35 45.9846C1047.37 45.4994 1048.38 44.8598 1048.63 44.551C1048.92 44.1835 1049.07 43.6688 1049.07 43.0072C1049.05 42.4558 1048.71 40.6694 1048.29 39.0373C1047.85 37.4052 1047.45 35.5085 1047.37 34.8469C1047.25 33.9867 1047.32 33.2589 1047.61 32.3105C1047.81 31.5827 1048.47 30.0389 1049.05 28.892C1049.62 27.7452 1050.79 25.7602 1051.63 24.481Z" fill="#F23E0D"/>
<path d="M761.767 24.1502C762.187 23.7973 763.094 23.268 763.779 23.0033C764.443 22.7166 765.172 22.4961 765.394 22.4961C765.593 22.4961 765.77 22.6505 765.77 22.8269C765.77 23.0033 765.482 23.7311 765.128 24.4369C764.774 25.1206 764.332 26.2454 764.133 26.9071C763.956 27.5687 763.647 29.3111 763.448 30.7667C763.271 32.2223 763.027 35.0012 762.895 36.9421C762.784 38.8829 762.674 41.1987 762.674 42.0809C762.674 43.2939 762.497 44.2423 761.9 46.0949C761.48 47.4402 761.126 48.7194 761.126 48.962C761.126 49.2046 761.59 49.8883 762.187 50.5059C762.806 51.1675 763.868 51.9395 764.863 52.4247C766.234 53.1304 766.588 53.4392 767.074 54.2993C767.472 55.0051 767.583 55.4021 767.428 55.5785C767.295 55.7109 766.411 55.8432 765.438 55.8652C764.023 55.8873 763.47 55.7991 762.674 55.4241C762.121 55.1595 761.59 55.0051 761.48 55.0933C761.369 55.1815 761.347 56.5048 761.435 58.1148C761.568 60.3424 761.546 61.0702 761.303 61.401C761.037 61.776 760.927 61.7539 759.268 60.8497C758.317 60.3203 757.123 59.5264 756.614 59.0853C756.01 58.5707 755.31 57.5414 754.514 55.9976C753.85 54.7404 752.944 53.3289 752.523 52.8658C752.059 52.3806 751.307 51.8953 750.732 51.6969C750.179 51.5204 748.897 51.3219 747.857 51.2558C746.818 51.1896 745.757 51.1014 745.491 51.0352C745.204 50.9911 744.983 50.8588 744.983 50.7264C744.983 50.5941 745.447 50.2192 746.044 49.8663C746.619 49.4914 747.791 48.94 748.631 48.6092C749.803 48.146 750.644 47.9916 752.17 47.9475C753.386 47.9034 754.27 47.7711 754.447 47.5946C754.602 47.4402 754.735 46.8227 754.713 46.2052C754.713 45.6097 754.558 44.2643 754.381 43.2277C754.204 42.1912 754.049 40.7796 754.049 40.0959C754.049 39.2431 754.315 37.9934 754.845 36.3466C755.266 34.9792 756.305 32.4649 757.145 30.7667C758.008 29.0023 759.18 27.0615 759.821 26.2454C760.462 25.4514 761.325 24.5251 761.767 24.1502Z" fill="#F23E0D"/>
<path d="M848.762 34.2955C848.806 34.1632 849.182 34.0088 849.603 33.9426C850.023 33.8544 850.553 33.7882 850.797 33.7882C851.04 33.7662 851.991 33.8544 852.897 33.9647C854.003 34.1117 855.072 34.4352 856.104 34.9351C857.121 35.4203 858.028 36.0819 858.758 36.8759C859.355 37.5155 860.018 38.3977 860.239 38.8167C860.438 39.2358 860.726 39.699 860.903 39.8313C861.057 39.9636 862.075 40.14 863.18 40.1842C864.286 40.2503 865.392 40.4047 865.657 40.537C865.945 40.6914 866.254 41.1325 866.343 41.5295C866.453 41.9044 866.475 42.4338 866.387 42.6764C866.298 42.919 865.9 43.2277 865.48 43.3821C864.994 43.5586 863.976 43.6027 862.517 43.5145C861.168 43.4262 859.996 43.4703 859.532 43.6247C859.111 43.7571 858.669 44.0438 858.536 44.2643C858.404 44.5069 858.315 47.6608 858.315 52.0497C858.315 59.1735 858.293 59.4823 857.807 60.7614C857.519 61.4893 857.077 62.4817 856.789 62.9669C856.502 63.4522 856.082 63.9153 855.861 64.0256C855.64 64.1138 855.374 64.1138 855.286 64.0256C855.197 63.9153 855.065 63.0552 854.998 62.0847C854.91 61.1143 854.711 59.8351 854.556 59.2176C854.379 58.6001 853.915 57.7179 853.472 57.2327C853.052 56.7474 852.522 55.9094 852.278 55.358C852.035 54.8066 851.725 53.77 851.571 53.0422C851.416 52.3144 851.173 50.5721 850.996 49.1826C850.819 47.7711 850.553 46.4257 850.354 46.1611C850.177 45.8743 849.381 45.2568 848.585 44.7716C847.59 44.1541 847.104 43.713 846.971 43.2939C846.883 42.919 846.551 42.6102 846.086 42.4117C845.711 42.2573 844.826 42.125 844.163 42.125C843.499 42.125 842.902 42.0368 842.836 41.9044C842.769 41.7721 843.256 41.3531 843.875 40.934C844.516 40.537 845.666 39.8754 846.418 39.5005C847.192 39.1255 848.43 38.6624 849.182 38.4639C849.956 38.2654 850.819 38.1551 851.128 38.2213C851.438 38.3095 851.902 38.3095 852.168 38.2433C852.499 38.1992 852.676 38.0007 852.676 37.714C852.676 37.4714 852.278 36.898 851.814 36.4569C851.327 35.9937 850.443 35.3762 849.824 35.0674C849.182 34.7586 848.718 34.4278 848.762 34.2955Z" fill="#F23E0D"/>
<path d="M1130.42 38.7506C1131.2 38.111 1132.59 37.1847 1133.52 36.6554C1134.43 36.1481 1135.44 35.7291 1135.78 35.7291C1136.17 35.7291 1136.39 35.8393 1136.39 36.0599C1136.39 36.2363 1136.11 36.7656 1135.75 37.2288C1135.42 37.6699 1134.96 38.4639 1134.76 38.9932C1134.56 39.5005 1134.29 40.5591 1134.18 41.3531C1133.98 42.5882 1134.03 43.0072 1134.4 44.2864C1134.67 45.1024 1135.02 46.7124 1135.2 47.8593C1135.42 49.1385 1135.49 50.4618 1135.42 51.2778C1135.29 52.3806 1135.33 52.6673 1135.67 52.954C1135.89 53.1525 1136.35 53.4171 1136.73 53.5495C1137.08 53.6818 1137.96 53.9465 1138.65 54.1229C1139.54 54.3655 1140.22 54.7404 1140.82 55.3139C1141.3 55.755 1141.7 56.2622 1141.7 56.4166C1141.7 56.5931 1141.37 56.6813 1140.71 56.6813C1140.15 56.6813 1138.34 56.8357 1136.66 57.0342C1134.96 57.2327 1132.66 57.3429 1131.42 57.2988C1129.54 57.2327 1129.03 57.1224 1127.99 56.5931C1127.04 56.1078 1126.29 55.9314 1124.56 55.755C1123.35 55.6447 1122.22 55.5124 1122.07 55.4683C1121.93 55.4021 1121.8 55.2036 1121.8 55.0272C1121.8 54.8507 1122.26 54.4537 1122.84 54.1891C1123.44 53.9024 1124.74 53.3289 1125.76 52.9099C1127.39 52.2482 1127.66 52.0718 1127.95 51.3881C1128.17 50.8588 1128.21 50.2192 1128.12 49.2929C1128.06 48.565 1127.79 46.933 1127.55 45.6538C1127.26 44.132 1127.17 43.1175 1127.28 42.6764C1127.39 42.3235 1127.81 41.5295 1128.23 40.9561C1128.66 40.3606 1129.63 39.3681 1130.42 38.7506Z" fill="#F23E0D"/>
<path d="M1292.01 45.4332C1291.94 45.2568 1292.01 44.9701 1292.14 44.8157C1292.34 44.5731 1293.05 44.529 1295.28 44.6172C1297.34 44.6834 1298.55 44.8598 1299.59 45.1686C1300.61 45.4994 1301.27 45.8743 1301.85 46.4698C1302.29 46.933 1303.35 48.3004 1304.19 49.5134C1305.01 50.7264 1306.05 51.9395 1306.47 52.2262C1307.11 52.6452 1307.51 52.7114 1308.99 52.7114C1310.41 52.6893 1310.87 52.7775 1311.31 53.1084C1311.8 53.5054 1311.82 53.5715 1311.54 53.9024C1311.36 54.1008 1310.43 54.5199 1309.48 54.8066C1308.35 55.1815 1307.71 55.5124 1307.55 55.7991C1307.42 56.0417 1307.25 58.6883 1307.16 61.7098C1307.05 65.1945 1306.89 67.3338 1306.71 67.6646C1306.56 67.9293 1306.32 68.1499 1306.16 68.1499C1306.03 68.1719 1305.61 67.8852 1305.25 67.5544C1304.9 67.2235 1304.13 66.187 1303.53 65.2827C1302.93 64.3785 1302.27 62.989 1302.03 62.195C1301.81 61.401 1301.5 60.166 1301.39 59.4381C1301.25 58.7103 1301.14 57.5855 1301.14 56.968C1301.14 56.3284 1301.05 55.755 1300.92 55.6888C1300.79 55.6226 1299.88 55.5124 1298.86 55.4462C1297.87 55.358 1296.14 55.0272 1295.06 54.6743C1293.98 54.3434 1292.89 53.8803 1292.67 53.6597C1292.42 53.3951 1292.35 53.1231 1292.45 52.8437C1292.56 52.6232 1293.07 52.1821 1293.62 51.8733C1294.18 51.5645 1295.04 51.0352 1295.55 50.6823C1296.14 50.3074 1296.5 49.8883 1296.5 49.6237C1296.5 49.3149 1296.03 48.8738 1294.99 48.2122C1294.18 47.6828 1293.2 46.9109 1292.83 46.5139C1292.45 46.0949 1292.08 45.6097 1292.01 45.4332Z" fill="#F23E0D"/>
<path d="M1066.27 51.0573C1066.63 50.3294 1067.27 49.3149 1067.71 48.8077C1068.17 48.2783 1068.59 47.8593 1068.68 47.8593C1068.77 47.8593 1068.79 48.2342 1068.77 48.6974C1068.73 49.1385 1068.86 50.4177 1069.06 51.4984C1069.26 52.5791 1069.63 54.0347 1069.9 54.6963C1070.16 55.358 1070.72 56.3063 1071.16 56.7916C1071.6 57.2768 1072.18 58.2692 1072.44 58.9971C1072.73 59.7249 1073.22 61.0041 1073.53 61.8642C1073.86 62.7243 1074.37 63.6506 1074.68 63.9374C1075.16 64.4005 1075.38 64.4446 1076.18 64.3344C1076.71 64.2461 1077.86 63.8712 1078.72 63.4742C1079.61 63.0772 1080.58 62.592 1080.89 62.3715C1081.2 62.1509 1081.88 61.4231 1082.44 60.7614C1082.99 60.0777 1083.5 59.5264 1083.59 59.5484C1083.7 59.5484 1083.76 59.7028 1083.76 59.8792C1083.76 60.0557 1083.52 60.6732 1083.23 61.2687C1082.95 61.8421 1082.26 62.9008 1081.71 63.6286C1081.15 64.3564 1080.2 65.4812 1079.58 66.1208C1078.94 66.7825 1077.95 67.5103 1077.24 67.819C1076.58 68.1278 1076.02 68.4366 1076.02 68.5469C1076 68.6351 1076.49 68.8997 1077.06 69.1203C1077.64 69.3408 1078.32 69.6717 1078.57 69.826C1078.92 70.0686 1078.94 70.1348 1078.68 70.223C1078.5 70.2671 1076.64 70.4877 1074.59 70.7303C1072.02 71.0391 1070.54 71.1052 1069.94 70.9729C1069.46 70.8626 1068.35 70.3995 1067.51 69.9363C1066.67 69.4952 1065.96 68.9659 1065.96 68.8115C1065.96 68.6351 1066.21 68.3704 1066.52 68.216C1066.83 68.0616 1067.36 67.819 1067.73 67.6646C1068.17 67.4662 1068.48 67.1133 1068.64 66.606C1068.79 66.1208 1068.82 65.5253 1068.7 65.0181C1068.59 64.5549 1068.09 63.5624 1067.55 62.8126C1067.02 62.0406 1066.38 60.8717 1066.14 60.2101C1065.87 59.5484 1065.54 58.159 1065.41 57.1224C1065.19 55.6888 1065.19 54.9169 1065.39 53.8141C1065.52 53.0202 1065.92 51.7851 1066.27 51.0573Z" fill="#F23E0D"/>
<path d="M1220.32 52.7775C1220.67 52.5129 1221.27 52.1821 1221.64 52.0718C1222 51.9615 1222.66 51.8512 1223.08 51.8512C1223.5 51.8512 1224.3 52.0277 1225.84 52.7114L1225.27 53.3289C1224.94 53.6597 1224.63 54.1891 1224.54 54.5419C1224.47 54.8728 1224.52 55.9094 1224.65 56.8577C1224.78 57.784 1225.09 59.394 1225.34 60.4306C1225.58 61.4672 1225.96 62.7023 1226.15 63.1654C1226.35 63.6286 1226.75 64.1579 1227.06 64.3123C1227.37 64.4667 1228.3 64.7093 1229.16 64.8637C1230.44 65.0842 1230.84 65.2607 1231.42 65.8561C1231.88 66.3193 1232.19 66.9148 1232.28 67.4441C1232.35 67.9293 1232.3 68.3484 1232.17 68.4807C1231.99 68.6277 1231.3 68.613 1230.09 68.4366C1229.1 68.2822 1228.12 68.1058 1227.95 68.0396C1227.72 67.9514 1227.57 68.0837 1227.46 68.4145C1227.37 68.7012 1227.39 69.6717 1227.5 70.5759C1227.64 71.4802 1227.88 72.7814 1228.08 73.4431C1228.28 74.1047 1228.76 75.3839 1229.18 76.2661C1229.6 77.1262 1230 78.2731 1230.07 78.8024C1230.16 79.3317 1230.11 79.9272 1229.96 80.236C1229.83 80.5006 1229.63 80.7212 1229.49 80.7212C1229.36 80.7212 1229.27 80.5668 1229.27 80.3904C1229.27 80.2139 1228.26 79.0009 1227.04 77.6997C1225.8 76.3764 1224.21 74.4135 1223.48 73.3328C1222.77 72.2521 1221.89 70.5539 1221.53 69.5834C1221.16 68.613 1220.74 67.5764 1220.58 67.2677C1220.45 66.9589 1219.87 66.4957 1219.32 66.2311C1218.77 65.9664 1217.24 65.5474 1215.89 65.3048C1214.54 65.0622 1213.2 64.7755 1212.84 64.6431C1212.42 64.4667 1212.27 64.2682 1212.29 63.9153C1212.33 63.6506 1212.64 63.2537 1213.02 63.0331C1213.37 62.8346 1214.72 62.5038 1216 62.3274C1217.29 62.1509 1218.48 61.9524 1218.66 61.8863C1218.83 61.8201 1219.06 61.6216 1219.14 61.4231C1219.25 61.2467 1219.17 60.4306 1218.97 59.6146C1218.77 58.7765 1218.61 57.4753 1218.64 56.6813C1218.64 55.6447 1218.79 54.983 1219.14 54.2773C1219.43 53.7259 1219.94 53.0643 1220.32 52.7775Z" fill="#F23E0D"/>
<path d="M715.085 65.5253C715.35 65.393 715.947 65.1945 716.39 65.0842H716.412C716.854 64.9739 717.739 64.9298 718.336 64.9739C718.955 65.0401 720.193 65.3268 721.1 65.6135C722.007 65.9003 723.599 66.4957 724.638 66.9589C726.186 67.6205 726.827 67.7749 728.176 67.819C729.083 67.8411 730.078 67.9955 730.388 68.1499C730.697 68.3042 731.117 68.6351 731.316 68.8997C731.538 69.1423 731.714 69.5614 731.714 69.804C731.714 70.0466 731.604 70.3774 731.449 70.5318C731.294 70.6641 730.653 70.7965 730.012 70.7965C729.37 70.7965 728.596 70.8847 728.287 71.017C727.845 71.1935 727.734 71.3919 727.734 71.9654C727.734 72.3403 727.933 73.7518 728.154 75.0972C728.397 76.4425 728.663 78.4716 728.729 79.6184C728.84 80.9197 728.795 82.5077 728.619 83.8089C728.464 84.9557 728.11 86.7201 727.822 87.7347C727.535 88.7271 727.049 90.0505 726.739 90.6459C726.429 91.2635 726.053 91.7266 725.921 91.6825C725.766 91.6384 725.169 90.9326 724.594 90.0725C724.019 89.2344 722.847 87.1612 722.007 85.463C721.166 83.7648 720.26 81.7357 720.016 80.9417C719.751 80.1478 719.397 78.7362 719.22 77.8099C719.043 76.8616 718.889 75.5162 718.889 74.8325C718.889 74.0385 719.065 73.2004 719.331 72.627C719.574 72.0977 719.884 71.6346 719.994 71.5684C720.127 71.5022 720.215 71.2596 720.215 71.017C720.215 70.598 720.061 70.5759 716.854 70.5759C714.532 70.5759 713.051 70.4656 712.144 70.2451C711.414 70.0466 710.419 69.6055 709.933 69.2747C709.446 68.9218 709.026 68.5469 709.004 68.4366C708.96 68.3484 709.313 68.2601 709.778 68.2601C710.419 68.2601 711.105 67.9734 712.608 67.0251C713.692 66.3414 714.798 65.6577 715.085 65.5253Z" fill="#F23E0D"/>
<path d="M1151.81 68.6571C1151.79 68.3925 1151.92 68.1278 1152.1 68.0837C1152.25 68.0175 1152.6 68.0175 1152.85 68.0837C1153.09 68.1499 1153.56 68.3484 1153.91 68.5027C1154.24 68.6792 1155.13 69.3629 1155.9 70.0466C1156.65 70.7303 1157.87 71.6125 1158.6 72.0095C1159.33 72.4065 1161.52 73.3548 1163.46 74.1268C1166.56 75.3618 1167.11 75.6706 1168.11 76.641C1168.7 77.2586 1169.59 78.2069 1170.05 78.8024C1170.72 79.6405 1171.33 80.0816 1173.26 81.03C1174.56 81.6696 1175.76 82.3753 1175.91 82.5738C1176.13 82.8605 1176.13 82.9929 1175.91 83.2575C1175.69 83.5222 1175.18 83.6104 1171.98 83.5883L1172.11 84.3162C1172.17 84.6911 1172.29 85.7718 1172.33 86.676C1172.42 87.8229 1172.29 89.477 1171.89 92.1457C1171.58 94.2188 1171.31 96.292 1171.31 96.7111C1171.31 97.1301 1171.75 99.2253 1172.31 101.343C1172.86 103.46 1173.3 105.401 1173.3 105.643C1173.3 105.886 1173.15 106.084 1172.97 106.084C1172.79 106.084 1172.31 105.952 1171.93 105.798C1171.53 105.621 1170.85 105.202 1170.43 104.827C1170.01 104.474 1169.3 103.636 1168.88 102.975C1168.46 102.313 1167.75 100.946 1167.31 99.909C1166.87 98.8724 1166.29 97.2404 1166.05 96.27C1165.78 95.2995 1165.54 93.9101 1165.52 93.1823C1165.5 92.4544 1165.56 90.5577 1165.65 88.9918C1165.81 86.7422 1165.78 86.0144 1165.56 85.5733C1165.39 85.2645 1165.01 84.8234 1164.7 84.5588C1164.39 84.2941 1164.06 83.8089 1163.99 83.456C1163.89 83.0296 1163.63 82.7282 1163.22 82.5518C1162.86 82.4194 1162.02 82.1768 1161.36 82.0224C1160.7 81.8901 1159.77 81.6034 1159.3 81.4049C1158.66 81.1402 1158.46 80.9417 1158.53 80.6109C1158.57 80.3242 1158.95 80.0375 1159.7 79.7728C1160.32 79.5523 1160.87 79.2435 1160.94 79.1112C1161.03 78.9568 1161.03 78.6039 1160.94 78.3172C1160.87 78.0305 1160.52 77.5453 1160.14 77.2365C1159.79 76.9498 1158.57 76.1779 1157.49 75.5383C1156.3 74.8325 1155.04 73.8842 1154.35 73.1343C1153.71 72.4506 1152.89 71.2817 1152.52 70.5318C1152.16 69.7599 1151.83 68.9218 1151.81 68.6571Z" fill="#F23E0D"/>
<path d="M910.106 78.6039C909.508 78.1849 909.066 77.6997 909.066 77.5012C909.11 77.1703 909.42 77.1483 911.786 77.2586C913.555 77.3247 915.037 77.5453 916.12 77.854C917.027 78.1187 918.376 78.648 919.084 79.023C919.813 79.42 921.406 80.6771 922.644 81.8239C923.882 82.9708 925.475 84.2279 926.204 84.6029C926.912 84.9778 928.062 85.4189 928.725 85.5733C929.389 85.7277 930.163 85.9703 930.45 86.1467C930.716 86.3232 930.937 86.654 930.937 86.8966C930.937 87.1392 930.649 87.5803 930.273 87.8891C929.897 88.1978 929.322 88.4404 928.946 88.4404C928.57 88.4404 927.996 88.5948 927.62 88.7713C927.244 88.9477 926.824 89.3667 926.647 89.6976C926.492 90.0505 926.293 90.5577 926.226 90.8665C926.138 91.1753 926.381 93.0058 926.713 94.9467C927.067 96.8875 927.487 99.512 927.62 100.791C927.774 102.07 927.841 103.636 927.752 104.254C927.686 104.893 927.509 105.621 927.398 105.864C927.288 106.106 927.067 106.261 926.956 106.195C926.846 106.129 926.47 105.268 926.16 104.254C925.828 103.261 925.32 101.85 925.032 101.122C924.723 100.394 923.904 99.0048 923.197 98.0343C922.511 97.0639 921.715 95.8509 921.45 95.3216C921.207 94.8143 920.632 93.2705 920.189 91.9251C919.747 90.5577 919.194 89.08 918.995 88.661C918.664 88.0434 918.177 87.6906 916.408 86.8084C914.838 86.0144 913.887 85.6836 912.936 85.5953C911.698 85.463 911.654 85.441 912.052 85.0881C912.295 84.8675 913.135 84.4485 913.975 84.1397C914.794 83.8309 915.7 83.5883 916.01 83.5883C916.32 83.5883 916.718 83.5442 916.894 83.4781C917.071 83.4119 917.226 83.1693 917.226 82.9267C917.226 82.6841 916.85 82.1768 916.408 81.8239C915.944 81.449 915.17 81.052 914.683 80.9197C914.197 80.7874 913.201 80.3683 912.472 80.0154C911.742 79.6405 910.681 79.0009 910.106 78.6039Z" fill="#F23E0D"/>
<path d="M811.191 79.839C811.125 79.7067 811.412 79.5743 811.81 79.5302C812.186 79.4861 813.513 79.4641 814.729 79.4861C816.366 79.5302 817.206 79.6626 817.936 79.9713C818.489 80.2139 819.329 80.8094 819.793 81.2946C820.28 81.7578 820.943 82.7503 821.297 83.4781C821.651 84.25 822.049 85.7277 822.248 87.0069C822.447 88.2199 822.712 89.3888 822.823 89.5873C822.933 89.8078 823.199 90.0725 823.42 90.1828C823.619 90.2931 824.349 90.4695 825.012 90.5577C825.676 90.6239 826.494 90.8665 826.825 91.065C827.157 91.2635 827.533 91.6384 827.666 91.9031C827.776 92.1898 827.843 92.6088 827.776 92.8514C827.71 93.094 827.467 93.3808 827.223 93.5131C826.936 93.6675 826.228 93.6454 825.078 93.491C823.398 93.2484 823.331 93.2705 822.137 93.866C821.032 94.4394 820.722 94.4835 816.034 94.5056L814.928 93.5572C814.132 92.8514 813.447 92.4765 812.297 92.1677C811.434 91.9251 810.439 91.484 809.422 90.668L810.152 90.6459C810.528 90.6459 811.854 90.2489 813.071 89.7637C814.287 89.2785 815.481 88.8815 815.724 88.8815C815.968 88.8815 816.233 88.7271 816.344 88.5507C816.432 88.3522 816.344 88.0434 816.056 87.7567C815.702 87.3818 815.592 86.8966 815.503 85.044C815.415 83.4781 815.26 82.64 814.995 82.1989C814.751 81.8239 813.999 81.3167 812.96 80.8315C812.053 80.4124 811.257 79.9713 811.191 79.839Z" fill="#F23E0D"/>
<path d="M999.334 101.784C999.71 100.813 1000.26 99.7546 1000.55 99.4018C1000.84 99.0709 1001.17 98.8063 1001.28 98.8063C1001.41 98.8063 1001.44 99.9311 1001.35 101.607C1001.24 103.835 1001.28 104.827 1001.59 106.305C1001.79 107.342 1002.16 108.775 1002.41 109.503C1002.67 110.231 1003.25 111.576 1003.69 112.48C1004.16 113.385 1004.88 115.281 1005.33 116.671C1005.77 118.06 1006.37 120.31 1006.65 121.633C1006.94 122.956 1007.25 124.699 1007.32 125.493C1007.38 126.287 1007.58 127.037 1007.72 127.169C1007.87 127.301 1008.8 127.478 1009.77 127.566C1010.74 127.654 1011.96 127.919 1012.49 128.161C1013 128.382 1013.53 128.779 1013.64 129.022C1013.75 129.264 1013.86 129.639 1013.86 129.838C1013.89 130.058 1013.58 130.632 1013.2 131.117C1012.82 131.602 1012.47 132.308 1012.38 132.661C1012.29 133.102 1012.43 133.719 1012.8 134.535C1013.13 135.285 1013.95 136.388 1014.99 137.491C1015.88 138.439 1017.09 139.564 1017.67 140.027C1018.26 140.468 1018.66 140.887 1018.55 140.975C1018.46 141.064 1017.56 140.909 1016.52 140.6C1015.48 140.314 1014 139.806 1013.2 139.498C1012.4 139.189 1011.32 138.638 1010.77 138.285C1010.21 137.932 1009.33 137.182 1008.78 136.631C1008.22 136.079 1007.34 134.954 1006.79 134.138C1005.81 132.705 1005.77 132.683 1004.46 132.418C1003.73 132.264 1002.39 131.845 1001.48 131.492C1000.57 131.117 999.025 130.61 998.052 130.367C997.079 130.102 996.084 129.771 995.862 129.617C995.641 129.485 995.486 129.242 995.553 129.132C995.619 129.022 996.106 128.691 996.636 128.448C997.167 128.184 998.428 127.742 999.445 127.456C1001.04 126.993 1001.3 126.86 1001.41 126.375C1001.48 126.066 1001.46 125.471 1001.37 125.052C1001.28 124.633 1000.46 121.898 997.853 113.693V110.054C997.831 107.187 997.919 106.106 998.229 104.982C998.472 104.188 998.958 102.754 999.334 101.784Z" fill="#F23E0D"/>
<path d="M1223.17 99.7546C1222.31 99.3356 1222.13 99.1591 1222.4 99.0048C1222.57 98.8945 1223.37 98.8063 1224.16 98.8063C1224.96 98.8063 1225.98 98.9165 1226.42 99.0268C1226.88 99.1592 1227.61 99.5782 1228.06 99.9531C1228.5 100.35 1229.07 101.078 1229.32 101.563C1229.56 102.048 1229.94 103.328 1230.16 104.43C1230.42 105.754 1230.69 106.503 1230.95 106.702C1231.17 106.856 1231.62 106.967 1231.95 106.967C1232.3 106.967 1232.81 107.077 1233.12 107.187C1233.43 107.297 1233.83 107.628 1234 107.893C1234.23 108.202 1234.27 108.555 1234.18 108.819C1234.03 109.194 1233.83 109.216 1232.57 109.128C1231.42 109.018 1230.93 109.084 1230.13 109.459C1229.43 109.768 1228.65 109.9 1227.35 109.922C1225.65 109.944 1225.54 109.922 1224.76 109.216C1224.32 108.841 1223.48 108.378 1222.88 108.202C1222.31 108.047 1221.62 107.805 1221.33 107.65C1221.07 107.518 1220.89 107.297 1220.96 107.187C1221.02 107.077 1221.29 106.967 1221.55 106.967C1221.84 106.967 1222.62 106.746 1223.28 106.459C1223.94 106.151 1224.83 105.864 1225.93 105.643L1225.56 105.048C1225.34 104.673 1225.16 103.791 1225.11 102.776C1225.05 101.607 1224.92 100.99 1224.65 100.703C1224.45 100.482 1223.77 100.063 1223.17 99.7546Z" fill="#F23E0D"/>
<path d="M626.484 2.6466C626.838 2.09522 627.502 1.27919 627.922 0.838089C628.364 0.374935 628.851 0 629.005 0C629.16 0 629.293 0.242605 629.293 0.551374C629.293 0.860144 629.138 1.7644 628.939 2.60249C628.674 3.72729 628.607 4.78593 628.696 7.05759C628.74 8.68966 628.961 10.6746 629.138 11.4686C629.337 12.2626 629.757 13.5638 630.067 14.4019C630.509 15.5488 630.62 16.2766 630.62 17.7543C630.62 18.7908 630.509 20.5552 630.376 21.68C630.244 22.7828 630.177 23.9738 630.266 24.3266C630.332 24.6575 630.62 25.0765 630.885 25.2529C631.172 25.4294 632.234 25.7382 633.273 25.9146C634.865 26.2013 635.263 26.3557 635.883 26.9732C636.281 27.3482 636.701 27.9216 636.834 28.2304C636.944 28.5391 637.033 29.1126 636.988 29.5316C636.944 30.0389 636.723 30.4359 635.684 31.2078L633.318 30.5902C632.013 30.2594 630.686 29.9948 630.332 29.9948C630 29.9948 629.669 30.1271 629.58 30.2815C629.492 30.4138 629.448 30.899 629.47 31.3181C629.492 31.7371 629.669 32.5972 629.846 33.1927C630.023 33.8103 630.177 34.4278 630.177 34.5822C630.177 34.7145 629.978 34.9351 629.735 35.0674C629.425 35.2218 628.917 35.1777 627.922 34.913C626.904 34.6263 626.263 34.2514 625.467 33.5236C624.627 32.7737 624.096 31.9797 623.256 30.2153C622.637 28.9361 621.818 27.5467 621.442 27.1276C621.044 26.7086 620.204 26.1351 619.541 25.8705C618.877 25.6058 617.639 25.1868 616.799 24.9662C615.936 24.7457 615.118 24.481 614.963 24.4149C614.83 24.3266 614.698 24.1281 614.698 23.9958C614.698 23.8414 615.074 23.5327 615.516 23.2901C615.98 23.0695 616.644 22.7828 617.02 22.6725C617.373 22.5622 618.877 22.3858 620.337 22.2976C622.526 22.1211 623.035 22.0109 623.278 21.68C623.433 21.4595 623.61 20.9302 623.698 20.5111C623.764 20.07 623.61 18.4159 623.322 16.6515C622.946 14.3137 622.858 13.1448 622.946 11.8656C623.035 10.9172 623.344 9.39542 623.654 8.49116C623.963 7.58691 624.56 6.10923 625.003 5.24908C625.445 4.36688 626.108 3.19797 626.484 2.6466Z" fill="#F23E0D"/>
<path d="M15.6602 4.56538C16.3236 3.99195 17.2524 3.37441 17.7389 3.19797C18.2254 3.04359 19.1984 2.8892 19.9061 2.8892C20.5916 2.86715 21.1665 2.91126 21.1665 2.97742C21.1665 3.04359 20.7464 3.28619 20.2378 3.50674C19.707 3.74935 19.0657 4.16839 18.7783 4.4551C18.3139 4.8962 18.2696 5.11675 18.3581 6.39594C18.4465 7.65308 18.6456 8.2265 20.0387 10.9172C21.1886 13.1668 21.6309 14.2255 21.6088 14.843C21.6088 15.2841 21.3434 16.2104 21.0117 16.8721C20.6579 17.5337 20.481 18.1512 20.5695 18.2395C20.68 18.3277 21.6751 18.46 22.8029 18.5262C24.2182 18.5923 25.0143 18.7467 25.4345 19.0334C25.7883 19.254 26.1421 19.7833 26.319 20.2906C26.5623 21.1066 26.5402 21.2169 26.0758 21.68C25.6556 22.077 25.346 22.1652 24.1961 22.1432C23.3779 22.1211 22.029 21.8785 18.8446 20.8861L16.4121 21.3713C14.7978 21.7021 13.67 21.8124 13.095 21.7021C12.6085 21.6359 11.6576 21.3051 10.9942 20.9963C10.3308 20.6655 8.8271 19.7833 7.67718 19.0334C6.52727 18.2615 5.4437 17.6219 5.31102 17.644C5.15622 17.644 5.04566 17.5116 5.08988 17.3793C5.13411 17.2249 5.79752 16.9823 6.59361 16.85C7.36759 16.6956 8.71653 16.5853 9.55685 16.5633C10.3972 16.5633 11.724 16.6736 12.4759 16.8279C13.2277 16.9603 13.9354 17.0264 14.0238 16.9382C14.1123 16.8279 13.869 16.2766 13.4931 15.659C13.095 15.0635 12.6528 14.0931 12.5201 13.5197C12.3874 12.9022 12.3653 11.8876 12.4537 11.1378C12.5422 10.4099 12.7854 9.26309 13.0287 8.60144C13.2498 7.93979 13.67 6.99143 13.9575 6.50622C14.2449 6.02101 15.0189 5.13881 15.6602 4.56538Z" fill="#F23E0D"/>
<path d="M342.633 24.481C343.473 23.2018 344.446 21.9447 344.8 21.68C345.132 21.3933 345.552 21.1728 345.729 21.1728C345.884 21.1728 346.017 21.2389 346.017 21.3492C346.017 21.4374 345.773 22.2755 345.464 23.2239C345.154 24.1502 344.8 25.9366 344.668 27.1938C344.491 28.8258 344.491 30.083 344.668 31.7592C344.8 33.0383 345.11 34.6704 345.353 35.3982C345.596 36.126 345.994 38.111 346.238 39.8092C346.503 41.5075 346.79 43.2498 346.901 43.6688C347.012 44.0879 347.321 44.7936 347.609 45.2127C348.007 45.8082 348.692 46.2713 350.594 47.1976C351.943 47.8593 353.203 48.543 353.358 48.6974C353.602 48.9179 353.579 49.0282 353.248 49.359C352.916 49.6899 352.452 49.734 349.997 49.6899C348.162 49.6457 346.945 49.7119 346.636 49.8663C346.348 50.0207 345.84 50.3736 345.464 50.6823C344.911 51.1234 344.645 51.1896 343.916 51.0793C343.429 50.9911 342.412 50.6382 341.66 50.2853C340.886 49.9104 340.09 49.3811 339.891 49.0944C339.67 48.8077 339.228 48.4548 338.896 48.3224C338.542 48.1901 337.746 48.0798 337.127 48.0798C336.486 48.0798 335.822 47.9916 335.667 47.9034C335.49 47.8152 335.402 47.5505 335.446 47.3079C335.49 46.9991 336.065 46.6022 337.348 45.9846C338.365 45.4994 339.382 44.8598 339.626 44.551C339.921 44.1835 340.068 43.6688 340.068 43.0072C340.046 42.4558 339.714 40.6694 339.294 39.0373C338.852 37.4052 338.454 35.5085 338.365 34.8469C338.255 33.9867 338.321 33.2589 338.608 32.3105C338.807 31.5827 339.471 30.0389 340.046 28.892C340.621 27.7452 341.793 25.7602 342.633 24.481Z" fill="#F23E0D"/>
<path d="M52.767 24.1502C53.1871 23.7973 54.0938 23.268 54.7793 23.0033C55.4427 22.7166 56.1725 22.4961 56.3936 22.4961C56.5926 22.4961 56.7696 22.6505 56.7696 22.8269C56.7696 23.0033 56.4821 23.7311 56.1283 24.4369C55.7744 25.1206 55.3322 26.2454 55.1331 26.9071C54.9562 27.5687 54.6466 29.3111 54.4476 30.7667C54.2707 32.2223 54.0275 35.0012 53.8948 36.9421C53.7842 38.8829 53.6736 41.1987 53.6736 42.0809C53.6736 43.2939 53.4967 44.2423 52.8997 46.0949C52.4795 47.4402 52.1257 48.7194 52.1257 48.962C52.1257 49.2046 52.5901 49.8883 53.1871 50.5059C53.8063 51.1675 54.8678 51.9395 55.8629 52.4247C57.2339 53.1304 57.5878 53.4392 58.0743 54.2993C58.4723 55.0051 58.5829 55.4021 58.4281 55.5785C58.2954 55.7109 57.4109 55.8432 56.4379 55.8652C55.0226 55.8873 54.4697 55.7991 53.6736 55.4241C53.1208 55.1595 52.5901 55.0051 52.4795 55.0933C52.3689 55.1815 52.3468 56.5048 52.4353 58.1148C52.568 60.3424 52.5458 61.0702 52.3026 61.401C52.0372 61.776 51.9267 61.7539 50.2681 60.8497C49.3172 60.3203 48.1231 59.5264 47.6145 59.0853C47.0101 58.5707 46.3098 57.5414 45.5137 55.9976C44.8503 54.7404 43.9436 53.3289 43.5235 52.8658C43.0591 52.3806 42.3072 51.8953 41.7323 51.6969C41.1794 51.5204 39.8968 51.3219 38.8575 51.2558C37.8181 51.1896 36.7567 51.1014 36.4913 51.0352C36.2038 50.9911 35.9827 50.8588 35.9827 50.7264C35.9827 50.5941 36.4471 50.2192 37.0442 49.8663C37.6191 49.4914 38.7911 48.94 39.6315 48.6092C40.8035 48.146 41.6438 47.9916 43.1696 47.9475C44.3859 47.9034 45.2704 47.7711 45.4474 47.5946C45.6021 47.4402 45.7348 46.8227 45.7127 46.2052C45.7127 45.6097 45.5579 44.2643 45.381 43.2277C45.2041 42.1912 45.0493 40.7796 45.0493 40.0959C45.0493 39.2431 45.3147 37.9934 45.8454 36.3466C46.2656 34.9792 47.3049 32.4649 48.1452 30.7667C49.0077 29.0023 50.1797 27.0615 50.821 26.2454C51.4623 25.4514 52.3247 24.5251 52.767 24.1502Z" fill="#F23E0D"/>
<path d="M139.762 34.2955C139.806 34.1632 140.182 34.0088 140.603 33.9426C141.023 33.8544 141.553 33.7882 141.797 33.7882C142.04 33.7662 142.991 33.8544 143.897 33.9647C145.003 34.1117 146.072 34.4352 147.104 34.9351C148.121 35.4203 149.028 36.0819 149.758 36.8759C150.355 37.5155 151.018 38.3977 151.239 38.8167C151.438 39.2358 151.726 39.699 151.903 39.8313C152.057 39.9636 153.075 40.14 154.18 40.1842C155.286 40.2503 156.392 40.4047 156.657 40.537C156.945 40.6914 157.254 41.1325 157.343 41.5295C157.453 41.9044 157.475 42.4338 157.387 42.6764C157.298 42.919 156.9 43.2277 156.48 43.3821C155.994 43.5586 154.976 43.6027 153.517 43.5145C152.168 43.4262 150.996 43.4703 150.532 43.6247C150.111 43.7571 149.669 44.0438 149.536 44.2643C149.404 44.5069 149.315 47.6608 149.315 52.0497C149.315 59.1735 149.293 59.4823 148.807 60.7614C148.519 61.4893 148.077 62.4817 147.789 62.9669C147.502 63.4522 147.082 63.9153 146.861 64.0256C146.64 64.1138 146.374 64.1138 146.286 64.0256C146.197 63.9153 146.065 63.0552 145.998 62.0847C145.91 61.1143 145.711 59.8351 145.556 59.2176C145.379 58.6001 144.915 57.7179 144.472 57.2327C144.052 56.7474 143.522 55.9094 143.278 55.358C143.035 54.8066 142.725 53.77 142.571 53.0422C142.416 52.3144 142.173 50.5721 141.996 49.1826C141.819 47.7711 141.553 46.4257 141.354 46.1611C141.177 45.8743 140.381 45.2568 139.585 44.7716C138.59 44.1541 138.104 43.713 137.971 43.2939C137.883 42.919 137.551 42.6102 137.086 42.4117C136.711 42.2573 135.826 42.125 135.163 42.125C134.499 42.125 133.902 42.0368 133.836 41.9044C133.769 41.7721 134.256 41.3531 134.875 40.934C135.516 40.537 136.666 39.8754 137.418 39.5005C138.192 39.1255 139.43 38.6624 140.182 38.4639C140.956 38.2654 141.819 38.1551 142.128 38.2213C142.438 38.3095 142.902 38.3095 143.168 38.2433C143.499 38.1992 143.676 38.0007 143.676 37.714C143.676 37.4714 143.278 36.898 142.814 36.4569C142.327 35.9937 141.443 35.3762 140.824 35.0674C140.182 34.7586 139.718 34.4278 139.762 34.2955Z" fill="#F23E0D"/>
<path d="M421.424 38.7506C422.198 38.111 423.591 37.1847 424.52 36.6554C425.427 36.1481 426.444 35.7291 426.776 35.7291C427.174 35.7291 427.395 35.8393 427.395 36.0599C427.395 36.2363 427.107 36.7656 426.754 37.2288C426.422 37.6699 425.957 38.4639 425.758 38.9932C425.559 39.5005 425.294 40.5591 425.184 41.3531C424.984 42.5882 425.029 43.0072 425.405 44.2864C425.67 45.1024 426.024 46.7124 426.201 47.8593C426.422 49.1385 426.488 50.4618 426.422 51.2778C426.289 52.3806 426.333 52.6673 426.665 52.954C426.886 53.1525 427.351 53.4171 427.727 53.5495C428.08 53.6818 428.965 53.9465 429.65 54.1229C430.535 54.3655 431.221 54.7404 431.818 55.3139C432.304 55.755 432.702 56.2622 432.702 56.4166C432.702 56.5931 432.37 56.6813 431.707 56.6813C431.154 56.6813 429.341 56.8357 427.66 57.0342C425.957 57.2327 423.658 57.3429 422.419 57.2988C420.54 57.2327 420.031 57.1224 418.992 56.5931C418.041 56.1078 417.289 55.9314 415.564 55.755C414.348 55.6447 413.22 55.5124 413.065 55.4683C412.933 55.4021 412.8 55.2036 412.8 55.0272C412.8 54.8507 413.264 54.4537 413.839 54.1891C414.436 53.9024 415.741 53.3289 416.758 52.9099C418.395 52.2482 418.66 52.0718 418.947 51.3881C419.169 50.8588 419.213 50.2192 419.124 49.2929C419.058 48.565 418.793 46.933 418.549 45.6538C418.262 44.132 418.173 43.1175 418.284 42.6764C418.395 42.3235 418.815 41.5295 419.235 40.9561C419.655 40.3606 420.628 39.3681 421.424 38.7506Z" fill="#F23E0D"/>
<path d="M583.009 45.4332C582.943 45.2568 583.009 44.9701 583.142 44.8157C583.341 44.5731 584.048 44.529 586.282 44.6172C588.338 44.6834 589.555 44.8598 590.594 45.1686C591.611 45.4994 592.275 45.8743 592.849 46.4698C593.292 46.933 594.353 48.3004 595.193 49.5134C596.012 50.7264 597.051 51.9395 597.471 52.2262C598.112 52.6452 598.51 52.7114 599.992 52.7114C601.407 52.6893 601.872 52.7775 602.314 53.1084C602.801 53.5054 602.823 53.5715 602.535 53.9024C602.358 54.1008 601.43 54.5199 600.479 54.8066C599.351 55.1815 598.71 55.5124 598.555 55.7991C598.422 56.0417 598.245 58.6883 598.157 61.7098C598.046 65.1945 597.891 67.3338 597.714 67.6646C597.56 67.9293 597.316 68.1499 597.162 68.1499C597.029 68.1719 596.609 67.8852 596.255 67.5544C595.901 67.2235 595.127 66.187 594.53 65.2827C593.933 64.3785 593.27 62.989 593.026 62.195C592.805 61.401 592.496 60.166 592.385 59.4381C592.252 58.7103 592.142 57.5855 592.142 56.968C592.142 56.3284 592.053 55.755 591.921 55.6888C591.788 55.6226 590.881 55.5124 589.864 55.4462C588.869 55.358 587.144 55.0272 586.061 54.6743C584.977 54.3434 583.893 53.8803 583.672 53.6597C583.422 53.3951 583.348 53.1231 583.451 52.8437C583.562 52.6232 584.07 52.1821 584.623 51.8733C585.176 51.5645 586.038 51.0352 586.547 50.6823C587.144 50.3074 587.498 49.8883 587.498 49.6237C587.498 49.3149 587.034 48.8738 585.994 48.2122C585.176 47.6828 584.203 46.9109 583.827 46.5139C583.451 46.0949 583.075 45.6097 583.009 45.4332Z" fill="#F23E0D"/>
<path d="M357.272 51.0573C357.626 50.3294 358.268 49.3149 358.71 48.8077C359.174 48.2783 359.594 47.8593 359.683 47.8593C359.771 47.8593 359.793 48.2342 359.771 48.6974C359.727 49.1385 359.86 50.4177 360.059 51.4984C360.258 52.5791 360.634 54.0347 360.899 54.6963C361.164 55.358 361.717 56.3063 362.16 56.7916C362.602 57.2768 363.177 58.2692 363.442 58.9971C363.73 59.7249 364.216 61.0041 364.526 61.8642C364.857 62.7243 365.366 63.6506 365.676 63.9374C366.162 64.4005 366.383 64.4446 367.179 64.3344C367.71 64.2461 368.86 63.8712 369.722 63.4742C370.607 63.0772 371.58 62.592 371.89 62.3715C372.199 62.1509 372.885 61.4231 373.438 60.7614C373.99 60.0777 374.499 59.5264 374.587 59.5484C374.698 59.5484 374.764 59.7028 374.764 59.8792C374.764 60.0557 374.521 60.6732 374.234 61.2687C373.946 61.8421 373.261 62.9008 372.708 63.6286C372.155 64.3564 371.204 65.4812 370.585 66.1208C369.944 66.7825 368.948 67.5103 368.241 67.819C367.577 68.1278 367.025 68.4366 367.025 68.5469C367.002 68.6351 367.489 68.8997 368.064 69.1203C368.639 69.3408 369.324 69.6717 369.568 69.826C369.921 70.0686 369.944 70.1348 369.678 70.223C369.501 70.2671 367.644 70.4877 365.587 70.7303C363.022 71.0391 361.54 71.1052 360.943 70.9729C360.457 70.8626 359.351 70.3995 358.511 69.9363C357.67 69.4952 356.963 68.9659 356.963 68.8115C356.963 68.6351 357.206 68.3704 357.516 68.216C357.825 68.0616 358.356 67.819 358.732 67.6646C359.174 67.4662 359.484 67.1133 359.639 66.606C359.793 66.1208 359.815 65.5253 359.705 65.0181C359.594 64.5549 359.086 63.5624 358.555 62.8126C358.024 62.0406 357.383 60.8717 357.14 60.2101C356.874 59.5484 356.543 58.159 356.41 57.1224C356.189 55.6888 356.189 54.9169 356.388 53.8141C356.521 53.0202 356.919 51.7851 357.272 51.0573Z" fill="#F23E0D"/>
<path d="M511.316 52.7775C511.67 52.5129 512.267 52.1821 512.643 52.0718C512.997 51.9615 513.66 51.8512 514.081 51.8512C514.501 51.8512 515.297 52.0277 516.845 52.7114L516.27 53.3289C515.938 53.6597 515.628 54.1891 515.54 54.5419C515.474 54.8728 515.518 55.9094 515.651 56.8577C515.783 57.784 516.093 59.394 516.336 60.4306C516.579 61.4672 516.955 62.7023 517.154 63.1654C517.353 63.6286 517.751 64.1579 518.061 64.3123C518.371 64.4667 519.299 64.7093 520.162 64.8637C521.444 65.0842 521.842 65.2607 522.417 65.8561C522.882 66.3193 523.191 66.9148 523.28 67.4441C523.346 67.9293 523.302 68.3484 523.169 68.4807C522.992 68.6277 522.299 68.613 521.091 68.4366C520.095 68.2822 519.122 68.1058 518.945 68.0396C518.724 67.9514 518.57 68.0837 518.459 68.4145C518.371 68.7012 518.393 69.6717 518.503 70.5759C518.636 71.4802 518.879 72.7814 519.078 73.4431C519.277 74.1047 519.764 75.3839 520.184 76.2661C520.604 77.1262 521.002 78.2731 521.068 78.8024C521.157 79.3317 521.113 79.9272 520.958 80.236C520.825 80.5006 520.626 80.7212 520.493 80.7212C520.361 80.7212 520.272 80.5668 520.272 80.3904C520.272 80.2139 519.255 79.0009 518.039 77.6997C516.8 76.3764 515.208 74.4135 514.479 73.3328C513.771 72.2521 512.886 70.5539 512.533 69.5834C512.157 68.613 511.736 67.5764 511.582 67.2677C511.449 66.9589 510.874 66.4957 510.321 66.2311C509.768 65.9664 508.242 65.5474 506.894 65.3048C505.545 65.0622 504.196 64.7755 503.842 64.6431C503.422 64.4667 503.267 64.2682 503.289 63.9153C503.333 63.6506 503.643 63.2537 504.019 63.0331C504.373 62.8346 505.722 62.5038 507.004 62.3274C508.287 62.1509 509.481 61.9524 509.658 61.8863C509.835 61.8201 510.056 61.6216 510.144 61.4231C510.255 61.2467 510.166 60.4306 509.967 59.6146C509.768 58.7765 509.614 57.4753 509.636 56.6813C509.636 55.6447 509.79 54.983 510.144 54.2773C510.432 53.7259 510.94 53.0643 511.316 52.7775Z" fill="#F23E0D"/>
<path d="M6.085 65.5253C6.35036 65.393 6.94743 65.1945 7.38971 65.0842H7.41182C7.85409 64.9739 8.73864 64.9298 9.33571 64.9739C9.95489 65.0401 11.1933 65.3268 12.0999 65.6135C13.0066 65.9003 14.5988 66.4957 15.6381 66.9589C17.1861 67.6205 17.8274 67.7749 19.1763 67.819C20.083 67.8411 21.0781 67.9955 21.3877 68.1499C21.6973 68.3042 22.1174 68.6351 22.3164 68.8997C22.5376 69.1423 22.7145 69.5614 22.7145 69.804C22.7145 70.0466 22.6039 70.3774 22.4491 70.5318C22.2943 70.6641 21.653 70.7965 21.0117 70.7965C20.3704 70.7965 19.5965 70.8847 19.2869 71.017C18.8446 71.1935 18.734 71.3919 18.734 71.9654C18.734 72.3403 18.933 73.7518 19.1542 75.0972C19.3974 76.4425 19.6628 78.4716 19.7291 79.6184C19.8397 80.9197 19.7955 82.5077 19.6186 83.8089C19.4638 84.9557 19.11 86.7201 18.8225 87.7347C18.535 88.7271 18.0485 90.0505 17.7389 90.6459C17.4293 91.2635 17.0534 91.7266 16.9207 91.6825C16.7659 91.6384 16.1688 90.9326 15.5939 90.0725C15.0189 89.2344 13.8469 87.1612 13.0066 85.463C12.1663 83.7648 11.2596 81.7357 11.0164 80.9417C10.751 80.1478 10.3972 78.7362 10.2203 77.8099C10.0433 76.8616 9.88855 75.5162 9.88855 74.8325C9.88855 74.0385 10.0655 73.2004 10.3308 72.627C10.5741 72.0977 10.8837 71.6346 10.9942 71.5684C11.1269 71.5022 11.2154 71.2596 11.2154 71.017C11.2154 70.598 11.0606 70.5759 7.85409 70.5759C5.53216 70.5759 4.05054 70.4656 3.14388 70.2451C2.41413 70.0466 1.41901 69.6055 0.932511 69.2747C0.44601 68.9218 0.0258501 68.5469 0.00373645 68.4366C-0.0404909 68.3484 0.313328 68.2601 0.777715 68.2601C1.41901 68.2601 2.10454 67.9734 3.60827 67.0251C4.69184 66.3414 5.79752 65.6577 6.085 65.5253Z" fill="#F23E0D"/>
<path d="M442.808 68.6571C442.786 68.3925 442.919 68.1278 443.096 68.0837C443.25 68.0175 443.604 68.0175 443.847 68.0837C444.091 68.1499 444.555 68.3484 444.909 68.5027C445.241 68.6792 446.125 69.3629 446.899 70.0466C447.651 70.7303 448.867 71.6125 449.597 72.0095C450.327 72.4065 452.516 73.3548 454.462 74.1268C457.558 75.3618 458.111 75.6706 459.106 76.641C459.703 77.2586 460.588 78.2069 461.052 78.8024C461.715 79.6405 462.335 80.0816 464.258 81.03C465.563 81.6696 466.757 82.3753 466.912 82.5738C467.133 82.8605 467.133 82.9929 466.912 83.2575C466.691 83.5222 466.182 83.6104 462.976 83.5883L463.108 84.3162C463.175 84.6911 463.285 85.7718 463.33 86.676C463.418 87.8229 463.285 89.477 462.887 92.1457C462.578 94.2188 462.312 96.292 462.312 96.7111C462.312 97.1301 462.755 99.2253 463.307 101.343C463.86 103.46 464.303 105.401 464.303 105.643C464.303 105.886 464.148 106.084 463.971 106.084C463.794 106.084 463.308 105.952 462.932 105.798C462.534 105.621 461.848 105.202 461.428 104.827C461.008 104.474 460.3 103.636 459.88 102.975C459.46 102.313 458.752 100.946 458.31 99.909C457.868 98.8724 457.293 97.2404 457.049 96.27C456.784 95.2995 456.541 93.9101 456.519 93.1823C456.496 92.4544 456.563 90.5577 456.651 88.9918C456.806 86.7422 456.784 86.0144 456.563 85.5733C456.386 85.2645 456.01 84.8234 455.7 84.5588C455.391 84.2941 455.059 83.8089 454.993 83.456C454.89 83.0296 454.632 82.7282 454.219 82.5518C453.865 82.4194 453.025 82.1768 452.361 82.0224C451.698 81.8901 450.769 81.6034 450.305 81.4049C449.663 81.1402 449.464 80.9417 449.531 80.6109C449.575 80.3242 449.951 80.0375 450.703 79.7728C451.322 79.5523 451.875 79.2435 451.941 79.1112C452.03 78.9568 452.03 78.6039 451.941 78.3172C451.875 78.0305 451.521 77.5453 451.145 77.2365C450.791 76.9498 449.575 76.1779 448.491 75.5383C447.297 74.8325 446.037 73.8842 445.351 73.1343C444.71 72.4506 443.892 71.2817 443.516 70.5318C443.162 69.7599 442.83 68.9218 442.808 68.6571Z" fill="#F23E0D"/>
<path d="M201.106 78.6039C200.508 78.1849 200.066 77.6997 200.066 77.5012C200.11 77.1703 200.42 77.1483 202.786 77.2586C204.555 77.3247 206.037 77.5453 207.12 77.854C208.027 78.1187 209.376 78.648 210.084 79.023C210.813 79.42 212.406 80.6771 213.644 81.8239C214.882 82.9708 216.475 84.2279 217.204 84.6029C217.912 84.9778 219.062 85.4189 219.725 85.5733C220.389 85.7277 221.163 85.9703 221.45 86.1467C221.716 86.3232 221.937 86.654 221.937 86.8966C221.937 87.1392 221.649 87.5803 221.273 87.8891C220.897 88.1978 220.322 88.4404 219.946 88.4404C219.57 88.4404 218.996 88.5948 218.62 88.7713C218.244 88.9477 217.824 89.3667 217.647 89.6976C217.492 90.0505 217.293 90.5577 217.226 90.8665C217.138 91.1753 217.381 93.0058 217.713 94.9467C218.067 96.8875 218.487 99.512 218.62 100.791C218.774 102.07 218.841 103.636 218.752 104.254C218.686 104.893 218.509 105.621 218.398 105.864C218.288 106.106 218.067 106.261 217.956 106.195C217.846 106.129 217.47 105.268 217.16 104.254C216.828 103.261 216.32 101.85 216.032 101.122C215.723 100.394 214.904 99.0048 214.197 98.0343C213.511 97.0639 212.715 95.8509 212.45 95.3216C212.207 94.8143 211.632 93.2705 211.189 91.9251C210.747 90.5577 210.194 89.08 209.995 88.661C209.664 88.0434 209.177 87.6906 207.408 86.8084C205.838 86.0144 204.887 85.6836 203.936 85.5953C202.698 85.463 202.654 85.441 203.052 85.0881C203.295 84.8675 204.135 84.4485 204.975 84.1397C205.794 83.8309 206.7 83.5883 207.01 83.5883C207.32 83.5883 207.718 83.5442 207.894 83.4781C208.071 83.4119 208.226 83.1693 208.226 82.9267C208.226 82.6841 207.85 82.1768 207.408 81.8239C206.944 81.449 206.17 81.052 205.683 80.9197C205.197 80.7874 204.201 80.3683 203.472 80.0154C202.742 79.6405 201.681 79.0009 201.106 78.6039Z" fill="#F23E0D"/>
<path d="M102.191 79.839C102.125 79.7067 102.412 79.5743 102.81 79.5302C103.186 79.4861 104.513 79.4641 105.729 79.4861C107.366 79.5302 108.206 79.6626 108.936 79.9713C109.489 80.2139 110.329 80.8094 110.793 81.2946C111.28 81.7578 111.943 82.7503 112.297 83.4781C112.651 84.25 113.049 85.7277 113.248 87.0069C113.447 88.2199 113.712 89.3888 113.823 89.5873C113.933 89.8078 114.199 90.0725 114.42 90.1828C114.619 90.2931 115.349 90.4695 116.012 90.5577C116.676 90.6239 117.494 90.8665 117.825 91.065C118.157 91.2635 118.533 91.6384 118.666 91.9031C118.776 92.1898 118.843 92.6088 118.776 92.8514C118.71 93.094 118.467 93.3808 118.223 93.5131C117.936 93.6675 117.228 93.6454 116.078 93.491C114.398 93.2484 114.331 93.2705 113.137 93.866C112.032 94.4394 111.722 94.4835 107.034 94.5056L105.928 93.5572C105.132 92.8514 104.447 92.4765 103.297 92.1677C102.434 91.9251 101.439 91.484 100.422 90.668L101.152 90.6459C101.528 90.6459 102.854 90.2489 104.071 89.7637C105.287 89.2785 106.481 88.8815 106.724 88.8815C106.968 88.8815 107.233 88.7271 107.344 88.5507C107.432 88.3522 107.344 88.0434 107.056 87.7567C106.702 87.3818 106.592 86.8966 106.503 85.044C106.415 83.4781 106.26 82.64 105.995 82.1989C105.751 81.8239 104.999 81.3167 103.96 80.8315C103.053 80.4124 102.257 79.9713 102.191 79.839Z" fill="#F23E0D"/>
<path d="M290.334 101.784C290.71 100.813 291.263 99.7546 291.551 99.4018C291.838 99.0709 292.17 98.8063 292.28 98.8063C292.413 98.8063 292.435 99.9311 292.347 101.607C292.236 103.835 292.28 104.827 292.59 106.305C292.789 107.342 293.165 108.775 293.408 109.503C293.673 110.231 294.248 111.576 294.691 112.48C295.155 113.385 295.885 115.281 296.327 116.671C296.769 118.06 297.366 120.31 297.654 121.633C297.941 122.956 298.251 124.699 298.317 125.493C298.384 126.287 298.583 127.037 298.715 127.169C298.87 127.301 299.799 127.478 300.772 127.566C301.745 127.654 302.961 127.919 303.492 128.161C304.001 128.382 304.531 128.779 304.642 129.022C304.752 129.264 304.863 129.639 304.863 129.838C304.885 130.058 304.576 130.632 304.2 131.117C303.824 131.602 303.47 132.308 303.381 132.661C303.293 133.102 303.426 133.719 303.802 134.535C304.133 135.285 304.951 136.388 305.991 137.491C306.875 138.439 308.092 139.564 308.667 140.027C309.264 140.468 309.662 140.887 309.551 140.975C309.463 141.064 308.556 140.909 307.517 140.6C306.477 140.314 304.996 139.806 304.2 139.498C303.403 139.189 302.32 138.638 301.767 138.285C301.214 137.932 300.33 137.182 299.777 136.631C299.224 136.079 298.339 134.954 297.787 134.138C296.814 132.705 296.769 132.683 295.465 132.418C294.735 132.264 293.386 131.845 292.479 131.492C291.573 131.117 290.025 130.61 289.052 130.367C288.079 130.102 287.084 129.771 286.862 129.617C286.641 129.485 286.486 129.242 286.553 129.132C286.619 129.022 287.106 128.691 287.636 128.448C288.167 128.184 289.428 127.742 290.445 127.456C292.037 126.993 292.302 126.86 292.413 126.375C292.479 126.066 292.457 125.471 292.369 125.052C292.28 124.633 291.462 121.898 288.853 113.693V110.054C288.831 107.187 288.919 106.106 289.229 104.982C289.472 104.188 289.958 102.754 290.334 101.784Z" fill="#F23E0D"/>
<path d="M514.169 99.7546C513.307 99.3356 513.13 99.1591 513.395 99.0048C513.572 98.8945 514.368 98.8063 515.164 98.8063C515.96 98.8063 516.977 98.9165 517.42 99.0268C517.884 99.1592 518.614 99.5782 519.056 99.9531C519.498 100.35 520.073 101.078 520.317 101.563C520.56 102.048 520.936 103.328 521.157 104.43C521.422 105.754 521.688 106.503 521.953 106.702C522.174 106.856 522.616 106.967 522.948 106.967C523.302 106.967 523.811 107.077 524.12 107.187C524.43 107.297 524.828 107.628 525.005 107.893C525.226 108.202 525.27 108.555 525.182 108.819C525.027 109.194 524.828 109.216 523.567 109.128C522.417 109.018 521.931 109.084 521.135 109.459C520.427 109.768 519.653 109.9 518.348 109.922C516.646 109.944 516.535 109.922 515.761 109.216C515.319 108.841 514.479 108.378 513.881 108.202C513.307 108.047 512.621 107.805 512.334 107.65C512.068 107.518 511.891 107.297 511.958 107.187C512.024 107.077 512.289 106.967 512.555 106.967C512.842 106.967 513.616 106.746 514.28 106.459C514.943 106.151 515.828 105.864 516.933 105.643L516.557 105.048C516.336 104.673 516.159 103.791 516.115 102.776C516.049 101.607 515.916 100.99 515.651 100.703C515.452 100.482 514.766 100.063 514.169 99.7546Z" fill="#F23E0D"/>
</g>
</svg>
