<svg width="90" height="148" viewBox="0 0 90 148" fill="none" xmlns="http://www.w3.org/2000/svg">
<g opacity="0.31">
<path d="M65.4176 131.505C65.5368 129.543 65.7018 127.563 65.9035 125.593C62.2364 127.426 58.0101 129.461 53.7562 131.505H65.4176Z" fill="url(#paint0_linear_739_339)"/>
<path d="M71.56 134.943C73.0268 131.89 72.1375 128.288 71.4958 124.96C70.6414 120.497 70.3061 115.951 70.4965 111.411C70.4299 109.69 70.8629 107.987 71.7433 106.507C72.6601 105.178 74.2186 104.426 75.6213 103.583C82.9555 99.1276 87.5394 90.8041 88.6853 82.2605C89.8313 73.7169 87.8786 64.9901 84.5232 57.0515C80.2276 57.8516 75.88 58.3418 71.5141 58.5182C70.0381 58.5732 68.4429 58.5641 67.2511 57.6932C65.7476 56.5932 65.4175 54.5306 65.17 52.6881L62.8047 33.5476C62.5114 31.1458 62.0896 28.5149 60.2561 26.9382C57.8541 24.8848 53.8386 25.3432 51.8767 22.8406C49.9148 20.338 51.5742 16.0571 49.8048 13.252C48.1638 10.6303 44.4967 10.5019 41.6088 9.41108C39.8123 8.71612 38.2188 7.58161 36.9743 6.11143C35.7299 4.64124 34.8741 2.88236 34.4855 0.995856C34.481 0.928706 34.481 0.86134 34.4855 0.794189C32.3494 1.71088 30.3142 3.54426 27.7472 3.80093C26.9483 3.91309 26.2136 4.30041 25.6697 4.89614C25.1258 5.49186 24.8068 6.25866 24.7677 7.06435C24.7677 8.65939 25.8403 10.2178 25.4552 11.767C25.0702 13.3162 23.3833 14.1595 22.0815 15.1312C19.8607 16.8974 18.369 19.4203 17.8918 22.2173C17.4294 24.9979 17.567 27.8452 18.2952 30.5683C18.6509 32.354 19.3685 34.048 20.4038 35.5459C21.2087 36.5957 22.2361 37.4542 23.4123 38.0596C24.5885 38.6651 25.8842 39.0025 27.2063 39.0477C28.5282 39.0784 29.8426 38.8407 31.0701 38.3491C32.2976 37.8576 33.4127 37.1222 34.348 36.1876C35.6315 34.9043 36.6216 33.245 38.2626 32.5209C39.6017 31.992 41.0833 31.9467 42.4523 32.3925L44.0291 37.2143L39.106 39.1944L48.5488 62.7533C49.6931 62.2935 50.7997 61.7449 51.8584 61.1125L56.1581 74.2211L61.3654 75.3487L78.8758 64.5867L84.129 78.0987C79.6826 80.1155 74.9612 84.2406 71.2941 92.2616L55.5439 107.589L57.1115 108.89L22.7691 131.505H12.9321L-0.00366211 144.742H15.5815L24.0892 138.903L37.7675 144.742C40.1603 145.916 42.4798 146.951 44.7259 147.868C52.3443 145.191 60.4853 143.697 67.2511 139.315C69.0572 138.275 70.5466 136.764 71.56 134.943ZM65.4175 131.459H53.7561C58.01 129.415 62.1997 127.371 65.9034 125.547C65.7017 127.518 65.5367 129.498 65.4175 131.505V131.459Z" fill="url(#paint1_linear_739_339)"/>
</g>
<defs>
<linearGradient id="paint0_linear_739_339" x1="53.7562" y1="128.508" x2="65.9035" y2="128.508" gradientUnits="userSpaceOnUse">
<stop offset="0.15" stop-color="#FBC1B2"/>
<stop offset="0.18" stop-color="#FBC3B5" stop-opacity="0.97"/>
<stop offset="0.24" stop-color="#FBC9BB" stop-opacity="0.88"/>
<stop offset="0.31" stop-color="#FCD2C7" stop-opacity="0.73"/>
<stop offset="0.39" stop-color="#FDDED6" stop-opacity="0.53"/>
<stop offset="0.48" stop-color="#FEEEEA" stop-opacity="0.27"/>
<stop offset="0.57" stop-color="white" stop-opacity="0"/>
<stop offset="1" stop-color="white" stop-opacity="0"/>
</linearGradient>
<linearGradient id="paint1_linear_739_339" x1="-0.00366211" y1="74.3311" x2="89.0154" y2="74.3311" gradientUnits="userSpaceOnUse">
<stop offset="0.15" stop-color="#FBC1B2"/>
<stop offset="0.18" stop-color="#FBC3B5" stop-opacity="0.97"/>
<stop offset="0.24" stop-color="#FBC9BB" stop-opacity="0.88"/>
<stop offset="0.31" stop-color="#FCD2C7" stop-opacity="0.73"/>
<stop offset="0.39" stop-color="#FDDED6" stop-opacity="0.53"/>
<stop offset="0.48" stop-color="#FEEEEA" stop-opacity="0.27"/>
<stop offset="0.57" stop-color="white" stop-opacity="0"/>
<stop offset="1" stop-color="white" stop-opacity="0"/>
</linearGradient>
</defs>
</svg>
