<svg width="24" height="24" viewBox="0 0 24 24" fill="none" xmlns="http://www.w3.org/2000/svg">
<path fill-rule="evenodd" clip-rule="evenodd" d="M3.43873 6.39983C3.43873 4.76434 4.76454 3.43853 6.40003 3.43853C8.0355 3.43853 9.36133 4.76434 9.36133 6.39983C9.36133 8.0353 8.0355 9.36113 6.40003 9.36113C4.76454 9.36113 3.43873 8.0353 3.43873 6.39983ZM6.40003 1.99854C3.96926 1.99854 1.99873 3.96906 1.99873 6.39983C1.99873 8.8306 3.96926 10.8011 6.40003 10.8011C8.8308 10.8011 10.8013 8.8306 10.8013 6.39983C10.8013 3.96906 8.8308 1.99854 6.40003 1.99854ZM9.31254 17.6001L3.99997 20.5389V14.6612L9.31254 17.6001ZM4.22213 13.1384C3.47565 12.7255 2.55997 13.2654 2.55997 14.1185V21.0817C2.55997 21.9348 3.47565 22.4746 4.22213 22.0617L10.5158 18.5801C11.2862 18.1538 11.2862 17.0463 10.5158 16.6201L4.22213 13.1384ZM13.28 14.3999C13.28 13.7814 13.7815 13.2799 14.4 13.2799H20.8C21.4186 13.2799 21.92 13.7814 21.92 14.3999V20.7999C21.92 21.4185 21.4186 21.9199 20.8 21.9199H14.4C13.7815 21.9199 13.28 21.4185 13.28 20.7999V14.3999ZM14.72 14.7199V20.4799H20.48V14.7199H14.72ZM21.5091 3.50887C21.7902 3.22769 21.7902 2.77182 21.5091 2.49063C21.228 2.20946 20.7722 2.20946 20.4909 2.49063L17.6 5.38154L14.7091 2.49068C14.428 2.2095 13.9721 2.2095 13.6909 2.49068C13.4097 2.77185 13.4097 3.22774 13.6909 3.5089L16.5818 6.39977L13.6909 9.29063C13.4097 9.57181 13.4097 10.0277 13.6909 10.3089C13.9721 10.5901 14.428 10.5901 14.7091 10.3089L17.6 7.41801L20.4909 10.3089C20.7722 10.5901 21.228 10.5901 21.5091 10.3089C21.7902 10.0277 21.7902 9.57185 21.5091 9.29068L18.6182 6.39977L21.5091 3.50887Z" fill="#FB793C"/>
</svg>
