<svg width="24" height="24" viewBox="0 0 24 24" fill="none" xmlns="http://www.w3.org/2000/svg">
<path fill-rule="evenodd" clip-rule="evenodd" d="M3.43875 6.39983C3.43875 4.76434 4.76456 3.43853 6.40004 3.43853C8.03552 3.43853 9.36134 4.76434 9.36134 6.39983C9.36134 8.0353 8.03552 9.36113 6.40004 9.36113C4.76456 9.36113 3.43875 8.0353 3.43875 6.39983ZM6.40004 1.99854C3.96928 1.99854 1.99875 3.96906 1.99875 6.39983C1.99875 8.8306 3.96928 10.8011 6.40004 10.8011C8.83081 10.8011 10.8013 8.8306 10.8013 6.39983C10.8013 3.96906 8.83081 1.99854 6.40004 1.99854ZM9.31256 17.6001L3.99998 20.5389V14.6612L9.31256 17.6001ZM4.22214 13.1384C3.47566 12.7255 2.55998 13.2654 2.55998 14.1185V21.0817C2.55998 21.9348 3.47566 22.4746 4.22214 22.0617L10.5158 18.5801C11.2862 18.1538 11.2862 17.0463 10.5158 16.6201L4.22214 13.1384ZM13.28 14.3999C13.28 13.7814 13.7815 13.2799 14.4 13.2799H20.8C21.4186 13.2799 21.92 13.7814 21.92 14.3999V20.7999C21.92 21.4185 21.4186 21.9199 20.8 21.9199H14.4C13.7815 21.9199 13.28 21.4185 13.28 20.7999V14.3999ZM14.72 14.7199V20.4799H20.48V14.7199H14.72ZM21.5091 3.50887C21.7903 3.22769 21.7903 2.77182 21.5091 2.49063C21.228 2.20946 20.7722 2.20946 20.4909 2.49063L17.6 5.38154L14.7091 2.49068C14.428 2.2095 13.9721 2.2095 13.6909 2.49068C13.4097 2.77185 13.4097 3.22774 13.6909 3.5089L16.5818 6.39977L13.6909 9.29063C13.4097 9.57181 13.4097 10.0277 13.6909 10.3089C13.9721 10.5901 14.428 10.5901 14.7091 10.3089L17.6 7.41801L20.4909 10.3089C20.7722 10.5901 21.228 10.5901 21.5091 10.3089C21.7903 10.0277 21.7903 9.57185 21.5091 9.29068L18.6183 6.39977L21.5091 3.50887Z" fill="#667472"/>
</svg>
