<svg width="161" height="56" viewBox="0 0 161 56" fill="none" xmlns="http://www.w3.org/2000/svg">
<path d="M160.309 21.4547C160.206 21.9711 159.922 22.2293 159.457 22.2293H151.324C151.118 22.2293 151.014 22.3326 151.014 22.5391L148.458 43.0654C148.407 43.4269 148.381 43.9175 148.381 44.5371C148.381 46.1895 148.794 47.3772 149.62 48.1002C150.498 48.8231 151.815 49.1846 153.57 49.1846H155.739C155.997 49.1846 156.178 49.262 156.281 49.417C156.436 49.5719 156.488 49.7526 156.436 49.9592L155.817 54.7615C155.817 55.2779 155.559 55.5361 155.042 55.5361C153.39 55.6394 152.228 55.691 151.557 55.691C148.097 55.691 145.489 55.1488 143.733 54.0644C141.978 52.9284 141.1 50.8886 141.1 47.9453C141.1 47.4805 141.151 46.7318 141.255 45.699L144.121 22.5391C144.121 22.3326 144.017 22.2293 143.811 22.2293H139.241C138.724 22.2293 138.518 21.9711 138.621 21.4547L139.163 16.8847C139.267 16.3683 139.551 16.1102 140.015 16.1102H144.585C144.792 16.1102 144.895 16.0069 144.895 15.8003L146.057 6.66032C146.16 6.14393 146.444 5.88574 146.909 5.88574H152.331C152.538 5.88574 152.693 5.9632 152.796 6.11812C152.951 6.27303 153.002 6.45376 152.951 6.66032L151.866 15.8003C151.815 15.852 151.815 15.9294 151.866 16.0327C151.918 16.0843 151.995 16.1102 152.099 16.1102H160.232C160.748 16.1102 160.955 16.3683 160.851 16.8847L160.309 21.4547Z" fill="#F5F6F6"/>
<path d="M132.313 7.82285C129.783 7.82285 128.001 8.31342 126.968 9.29455C125.987 10.2757 125.342 12.1347 125.032 14.8715L124.877 15.801C124.877 16.0075 124.98 16.1108 125.187 16.1108H133.088C133.294 16.1108 133.449 16.1883 133.552 16.3432C133.707 16.4981 133.759 16.6788 133.707 16.8854L133.088 22.1525C132.984 22.6689 132.7 22.9271 132.235 22.9271H124.335C124.128 22.9271 124.025 23.0304 124.025 23.2369L120.152 54.7622C120.1 54.9687 119.997 55.1495 119.842 55.3044C119.687 55.4593 119.507 55.5368 119.3 55.5368H113.568C113.103 55.5368 112.871 55.2786 112.871 54.7622L116.744 23.2369C116.796 23.1853 116.796 23.1336 116.744 23.082C116.692 22.9787 116.615 22.9271 116.512 22.9271H111.477C110.96 22.9271 110.754 22.6689 110.857 22.1525L111.477 16.8854C111.58 16.369 111.864 16.1108 112.329 16.1108H117.364C117.57 16.1108 117.673 16.0075 117.673 15.801L117.828 14.4068C118.241 10.9986 118.964 8.36506 119.997 6.50607C121.03 4.64709 122.502 3.33031 124.412 2.55573C126.375 1.72951 129.034 1.31641 132.39 1.31641H134.947C135.463 1.31641 135.669 1.5746 135.566 2.09098L135.024 7.04827C134.921 7.56466 134.637 7.82285 134.172 7.82285H132.313Z" fill="#F5F6F6"/>
<path d="M100.472 9.91458C99.1811 9.91458 98.1484 9.52729 97.3738 8.75271C96.5992 7.97814 96.2119 6.97119 96.2119 5.73187C96.2119 4.07944 96.7283 2.71102 97.7611 1.62661C98.8455 0.542203 100.162 0 101.711 0C103.002 0 104.035 0.387288 104.81 1.16186C105.584 1.8848 105.972 2.89175 105.972 4.18271C105.972 5.7835 105.429 7.15192 104.345 8.28797C103.261 9.37237 101.97 9.91458 100.472 9.91458ZM91.8743 55.4597C91.3579 55.4597 91.1514 55.2015 91.2546 54.6851L95.9021 16.8858C95.9021 16.6792 95.9796 16.4985 96.1345 16.3436C96.2894 16.1886 96.4701 16.1112 96.6767 16.1112H102.409C102.873 16.1112 103.106 16.3694 103.106 16.8858L98.4582 54.6851C98.3549 55.2015 98.0709 55.4597 97.6062 55.4597H91.8743Z" fill="#F5F6F6"/>
<path d="M43.1762 55.5373C42.8148 55.5373 42.5566 55.3307 42.4017 54.9176L36.2825 16.9634V16.8084C36.2825 16.3437 36.5407 16.1113 37.0571 16.1113H42.9439C43.1504 16.1113 43.3053 16.1888 43.4086 16.3437C43.5635 16.447 43.641 16.6019 43.641 16.8084L47.359 44.9256C47.359 45.0289 47.4106 45.0805 47.5139 45.0805C47.6172 45.0805 47.6946 45.0289 47.7462 44.9256L58.4354 16.8084C58.642 16.3437 58.9518 16.1113 59.3649 16.1113H64.5546C64.9677 16.1113 65.2259 16.3437 65.3291 16.8084L69.2795 44.8481C69.3311 44.9514 69.3828 45.003 69.4344 45.003C69.5377 45.003 69.6151 44.9514 69.6668 44.8481L80.5108 16.8084C80.7174 16.3437 81.0272 16.1113 81.4403 16.1113L87.2496 16.1888C87.8693 16.1888 88.05 16.4728 87.7919 17.0408L72.3003 54.9176C72.0421 55.3307 71.7323 55.5373 71.3708 55.5373H65.4841C65.1226 55.5373 64.8902 55.3307 64.7869 54.9176L60.6042 28.7369C60.5526 28.6336 60.4751 28.582 60.3718 28.582C60.3202 28.582 60.2686 28.6336 60.2169 28.7369L50.07 54.8402C49.8634 55.3049 49.5536 55.5373 49.1405 55.5373H43.1762Z" fill="#F5F6F6"/>
<path d="M14.0172 55.9997C9.78288 55.9997 6.40056 55.096 3.87028 53.2886C1.39164 51.4813 0.152313 49.1834 0.152313 46.3949C0.152313 45.9302 0.178132 45.5945 0.229771 45.388L0.384686 44.5359C0.384686 44.3294 0.462144 44.1486 0.617059 43.9937C0.771974 43.8388 0.978528 43.7614 1.23672 43.7614H6.5813C6.83949 43.7614 7.02022 43.8388 7.1235 43.9937C7.27842 44.1486 7.33006 44.3294 7.27842 44.5359L7.20096 44.9232C7.04604 46.3691 7.6657 47.6342 9.05994 48.7186C10.4542 49.803 12.3132 50.3453 14.6369 50.3453C17.0639 50.3453 19.052 49.803 20.6011 48.7186C22.1503 47.5826 22.9249 46.1884 22.9249 44.5359C22.9249 43.1933 22.3052 42.1864 21.0659 41.5151C19.8782 40.7921 17.9676 40.0434 15.334 39.2688C12.7005 38.4942 10.5316 37.7197 8.82757 36.9451C7.1235 36.1705 5.67763 35.0861 4.48994 33.6919C3.30226 32.2976 2.70842 30.5419 2.70842 28.4247C2.70842 24.5519 4.18011 21.4794 7.1235 19.2073C10.1185 16.8835 13.9398 15.7217 18.5872 15.7217C22.6667 15.7217 25.9199 16.6512 28.3469 18.5102C30.7739 20.3175 31.9874 22.6929 31.9874 25.6363C31.9874 26.2043 31.9616 26.6174 31.9099 26.8756L31.8325 27.108C31.8325 27.3145 31.755 27.4952 31.6001 27.6502C31.4452 27.8051 31.2645 27.8825 31.0579 27.8825H25.7908C25.5326 27.8825 25.326 27.8051 25.1711 27.6502C25.0679 27.4952 25.042 27.3145 25.0937 27.108L25.1711 26.8756C25.326 25.3781 24.7322 24.1387 23.3896 23.1576C22.0986 22.1248 20.2397 21.6085 17.8127 21.6085C15.4373 21.6085 13.5008 22.099 12.0033 23.0802C10.5058 24.0096 9.75706 25.3006 9.75706 26.953C9.75706 28.2956 10.3767 29.3284 11.616 30.0513C12.8554 30.7743 14.8176 31.5489 17.5028 32.3751C20.188 33.1497 22.3827 33.8984 24.0867 34.6213C25.7908 35.3443 27.2367 36.4029 28.4244 37.7971C29.6637 39.1913 30.2833 40.9729 30.2833 43.1417C30.2833 45.7236 29.5862 47.9957 28.192 49.958C26.8494 51.8686 24.9388 53.3661 22.4601 54.4505C19.9815 55.4833 17.1672 55.9997 14.0172 55.9997Z" fill="#F5F6F6"/>
</svg>
