<svg width="1820" height="1223" viewBox="0 0 1820 1223" fill="none" xmlns="http://www.w3.org/2000/svg">
<g opacity="0.3" filter="url(#filter0_dd_739_231)">
<path d="M393.311 47.2855C414.848 37.085 439.217 26.8846 447.152 25.1845C455.086 24.0511 481.723 23.4844 506.66 24.6178C534.997 26.3179 566.735 31.9848 591.671 40.4852C613.208 48.4189 661.947 68.2531 699.352 85.8206C736.758 102.821 786.631 123.222 809.867 130.023C843.872 140.79 864.275 143.623 911.881 143.057C951.553 143.057 982.724 139.656 1005.39 132.856C1024.1 127.189 1077.37 105.088 1124.41 84.1205C1170.88 63.1529 1224.72 41.6186 1243.43 35.9516C1262.69 30.2847 1298.4 25.7512 1325.6 25.1845C1361.31 24.6178 1381.14 27.4513 1402.11 35.9516C1417.42 41.6186 1442.92 54.0858 1458.79 63.1529C1474.09 72.7867 1499.59 90.3541 1514.33 103.388C1529.63 115.855 1557.97 145.89 1577.24 169.124C1597.07 192.359 1622.01 226.36 1633.34 244.495C1645.25 262.062 1663.38 295.497 1674.72 318.165C1686.05 340.266 1703.62 380.501 1714.39 407.135C1724.59 433.77 1739.33 478.539 1746.69 506.307C1754.63 534.075 1764.83 578.843 1769.93 605.478C1775.03 632.112 1782.4 681.415 1787.5 715.983C1792.03 751.118 1796 819.121 1796 871.823C1796 923.393 1793.17 980.628 1790.33 999.329C1786.93 1018.03 1779 1049.77 1772.76 1070.17C1766.53 1090.57 1751.23 1121.17 1739.89 1138.17C1725.54 1158.95 1710.04 1173.49 1693.42 1181.8C1679.82 1188.6 1657.15 1195.97 1642.98 1197.67C1626.54 1199.94 1604.44 1198.24 1580.64 1192C1560.23 1186.9 1533.6 1177.27 1521.13 1171.04C1508.66 1164.8 1480.89 1147.24 1458.79 1131.94C1436.12 1116.07 1381.71 1065.63 1331.27 1012.93C1283.1 962.494 1233.22 915.459 1220.76 908.092C1208.29 901.291 1173.72 890.524 1144.25 885.424C1100.04 876.924 1058.67 875.224 911.881 875.224C762.828 875.224 724.289 876.357 679.516 885.424C650.046 891.091 616.608 900.158 605.84 905.825C595.072 910.925 555.4 947.194 517.995 985.162C480.59 1023.7 435.817 1069.03 418.815 1086.03C401.812 1103.03 369.508 1128.54 347.972 1143.27C326.436 1157.44 292.998 1174.44 274.295 1181.24C255.593 1188.04 228.956 1195.41 214.787 1197.67C197.785 1200.51 179.082 1198.81 158.113 1192.57C141.111 1188.04 117.308 1176.14 105.406 1166.5C92.3708 1155.74 77.6355 1134.77 65.1672 1108.7C54.399 1086.03 41.9307 1048.06 37.3968 1024.83C32.2961 1001.6 27.1954 956.827 24.9284 925.659C23.2282 894.491 23.7949 834.422 27.1954 792.487C30.5958 750.551 38.5302 685.382 44.7644 647.98C50.9986 610.578 62.3335 554.475 70.2678 523.307C78.2023 492.139 91.2373 448.504 99.7385 426.97C107.673 405.435 123.542 366.9 135.443 341.966C146.778 317.031 170.581 273.396 188.717 245.628C206.853 217.86 234.057 181.025 248.225 164.024C262.394 147.023 292.431 118.122 313.967 99.9879C335.504 81.2871 371.775 58.0527 393.311 47.2855Z" stroke="#F23E0D" shape-rendering="crispEdges"/>
</g>
<defs>
<filter id="filter0_dd_739_231" x="0.5" y="0.5" width="1819" height="1222" filterUnits="userSpaceOnUse" color-interpolation-filters="sRGB">
<feFlood flood-opacity="0" result="BackgroundImageFix"/>
<feColorMatrix in="SourceAlpha" type="matrix" values="0 0 0 0 0 0 0 0 0 0 0 0 0 0 0 0 0 0 127 0" result="hardAlpha"/>
<feMorphology radius="1" operator="dilate" in="SourceAlpha" result="effect1_dropShadow_739_231"/>
<feOffset/>
<feGaussianBlur stdDeviation="2"/>
<feComposite in2="hardAlpha" operator="out"/>
<feColorMatrix type="matrix" values="0 0 0 0 0.94902 0 0 0 0 0.243137 0 0 0 0 0.0509804 0 0 0 0.45 0"/>
<feBlend mode="normal" in2="BackgroundImageFix" result="effect1_dropShadow_739_231"/>
<feColorMatrix in="SourceAlpha" type="matrix" values="0 0 0 0 0 0 0 0 0 0 0 0 0 0 0 0 0 0 127 0" result="hardAlpha"/>
<feMorphology radius="3" operator="dilate" in="SourceAlpha" result="effect2_dropShadow_739_231"/>
<feOffset/>
<feGaussianBlur stdDeviation="10"/>
<feComposite in2="hardAlpha" operator="out"/>
<feColorMatrix type="matrix" values="0 0 0 0 0.94902 0 0 0 0 0.243137 0 0 0 0 0.0509804 0 0 0 0.6 0"/>
<feBlend mode="normal" in2="effect1_dropShadow_739_231" result="effect2_dropShadow_739_231"/>
<feBlend mode="normal" in="SourceGraphic" in2="effect2_dropShadow_739_231" result="shape"/>
</filter>
</defs>
</svg>
