<svg width="1486" height="879" viewBox="0 0 1486 879" fill="none" xmlns="http://www.w3.org/2000/svg">
<g opacity="0.05">
<path fill-rule="evenodd" clip-rule="evenodd" d="M260.205 615.14C259.575 612.254 259.814 609.245 260.892 606.495C261.97 603.745 263.84 601.376 266.264 599.688C268.688 597.999 271.558 597.068 274.512 597.01C277.466 596.953 280.37 597.772 282.858 599.364C285.346 600.957 287.306 603.251 288.491 605.958C289.676 608.664 290.032 611.66 289.514 614.569C288.996 617.477 287.627 620.167 285.581 622.298C283.535 624.429 280.904 625.906 278.019 626.541C274.145 627.388 270.094 626.662 266.754 624.525C263.414 622.387 261.059 619.012 260.205 615.14ZM270.074 590.217C265.755 591.145 261.809 593.334 258.736 596.507C255.663 599.68 253.602 603.694 252.813 608.04C252.024 612.386 252.544 616.869 254.306 620.919C256.069 624.97 258.994 628.406 262.711 630.791C266.429 633.177 270.771 634.405 275.188 634.32C279.604 634.234 283.896 632.839 287.518 630.312C291.141 627.784 293.931 624.237 295.535 620.122C297.139 616.006 297.485 611.507 296.529 607.195C295.255 601.445 291.757 596.433 286.801 593.253C281.845 590.072 275.832 588.981 270.074 590.217Z" fill="url(#paint0_radial_739_206)"/>
<path fill-rule="evenodd" clip-rule="evenodd" d="M93.4998 538.729C92.8862 537.011 92.7953 535.15 93.2386 533.381C93.6819 531.612 94.6395 530.014 95.9905 528.789C97.3415 527.564 99.0253 526.766 100.829 526.497C102.633 526.229 104.476 526.5 106.126 527.279C107.775 528.057 109.157 529.306 110.097 530.869C111.037 532.432 111.492 534.239 111.406 536.06C111.32 537.882 110.696 539.638 109.612 541.105C108.529 542.572 107.035 543.685 105.32 544.304C104.178 544.716 102.966 544.898 101.753 544.841C100.54 544.784 99.3507 544.488 98.2527 543.97C97.1546 543.452 96.1696 542.722 95.354 541.823C94.5384 540.923 93.9083 539.872 93.4998 538.729ZM97.5699 522.811C95.0192 523.724 92.7961 525.373 91.181 527.548C89.566 529.723 88.6315 532.328 88.4953 535.034C88.3591 537.74 89.0274 540.426 90.4158 542.752C91.8042 545.079 93.8506 546.942 96.2967 548.107C98.7429 549.272 101.479 549.686 104.161 549.297C106.842 548.909 109.348 547.735 111.363 545.923C113.378 544.112 114.811 541.745 115.482 539.12C116.153 536.495 116.031 533.73 115.133 531.174C114.536 529.466 113.607 527.894 112.399 526.547C111.191 525.201 109.728 524.107 108.095 523.33C106.462 522.552 104.691 522.106 102.885 522.017C101.078 521.928 99.2716 522.198 97.5699 522.811Z" fill="url(#paint1_radial_739_206)"/>
<path fill-rule="evenodd" clip-rule="evenodd" d="M1199.89 718.034C1200.4 715.698 1201.59 713.565 1203.32 711.907C1205.04 710.248 1207.22 709.137 1209.57 708.714C1211.92 708.292 1214.35 708.576 1216.54 709.532C1218.73 710.488 1220.59 712.073 1221.89 714.085C1223.18 716.098 1223.85 718.448 1223.8 720.84C1223.76 723.231 1223.01 725.556 1221.65 727.521C1220.28 729.486 1218.37 731.003 1216.14 731.879C1213.92 732.756 1211.48 732.953 1209.14 732.447C1207.59 732.11 1206.12 731.469 1204.81 730.562C1203.5 729.655 1202.39 728.499 1201.53 727.16C1200.67 725.821 1200.08 724.326 1199.8 722.76C1199.52 721.194 1199.55 719.588 1199.89 718.034ZM1215.53 703.036C1212.05 702.279 1208.42 702.571 1205.1 703.875C1201.79 705.18 1198.94 707.438 1196.9 710.365C1194.87 713.292 1193.76 716.755 1193.69 720.317C1193.63 723.879 1194.63 727.379 1196.55 730.375C1198.48 733.372 1201.25 735.729 1204.52 737.149C1207.79 738.569 1211.4 738.988 1214.91 738.354C1218.41 737.719 1221.65 736.059 1224.21 733.583C1226.77 731.107 1228.54 727.928 1229.3 724.446C1229.8 722.13 1229.84 719.739 1229.41 717.409C1228.98 715.078 1228.1 712.855 1226.81 710.866C1225.53 708.877 1223.86 707.162 1221.91 705.819C1219.96 704.475 1217.76 703.529 1215.44 703.036H1215.53Z" fill="url(#paint2_radial_739_206)"/>
<path fill-rule="evenodd" clip-rule="evenodd" d="M414.784 410.02C414.757 407.885 415.363 405.79 416.527 404C417.691 402.21 419.359 400.806 421.321 399.965C423.284 399.124 425.451 398.884 427.55 399.275C429.649 399.667 431.584 400.672 433.111 402.164C434.638 403.656 435.688 405.567 436.128 407.656C436.569 409.745 436.379 411.918 435.584 413.899C434.789 415.88 433.424 417.581 431.661 418.786C429.899 419.991 427.819 420.646 425.684 420.669C422.828 420.698 420.076 419.594 418.032 417.598C415.989 415.601 414.821 412.876 414.784 410.02ZM425.405 393.767C422.234 393.8 419.144 394.774 416.526 396.564C413.908 398.354 411.88 400.88 410.699 403.823C409.517 406.766 409.235 409.994 409.888 413.097C410.541 416.201 412.101 419.041 414.368 421.258C416.636 423.475 419.51 424.969 422.628 425.552C425.745 426.135 428.965 425.78 431.881 424.532C434.797 423.284 437.277 421.199 439.007 418.542C440.737 415.884 441.64 412.773 441.602 409.601C441.58 407.498 441.144 405.419 440.318 403.484C439.491 401.549 438.292 399.796 436.787 398.325C435.283 396.855 433.503 395.695 431.55 394.913C429.597 394.131 427.509 393.741 425.405 393.767Z" fill="url(#paint3_radial_739_206)"/>
<path fill-rule="evenodd" clip-rule="evenodd" d="M945.615 304.897C945.588 302.762 946.194 300.667 947.358 298.877C948.522 297.087 950.19 295.683 952.152 294.842C954.115 294.001 956.282 293.761 958.381 294.152C960.48 294.544 962.415 295.549 963.942 297.041C965.469 298.533 966.519 300.444 966.959 302.533C967.4 304.622 967.21 306.795 966.415 308.776C965.62 310.757 964.255 312.458 962.492 313.663C960.73 314.868 958.65 315.523 956.515 315.546C953.659 315.575 950.907 314.471 948.863 312.475C946.82 310.478 945.652 307.753 945.615 304.897ZM956.236 288.644C953.065 288.678 949.975 289.651 947.357 291.441C944.739 293.231 942.711 295.757 941.53 298.701C940.348 301.644 940.066 304.871 940.719 307.974C941.372 311.078 942.932 313.918 945.199 316.135C947.467 318.352 950.341 319.846 953.459 320.429C956.576 321.012 959.796 320.657 962.712 319.409C965.628 318.161 968.108 316.076 969.838 313.419C971.568 310.761 972.471 307.65 972.433 304.478C972.411 302.375 971.975 300.296 971.149 298.361C970.322 296.426 969.123 294.673 967.618 293.202C966.114 291.732 964.334 290.572 962.381 289.79C960.428 289.008 958.34 288.618 956.236 288.644Z" fill="url(#paint4_radial_739_206)"/>
<path fill-rule="evenodd" clip-rule="evenodd" d="M1255.16 620.967C1255.13 618.833 1255.73 616.738 1256.9 614.948C1258.06 613.158 1259.73 611.754 1261.69 610.913C1263.65 610.071 1265.82 609.831 1267.92 610.223C1270.02 610.614 1271.96 611.62 1273.48 613.112C1275.01 614.603 1276.06 616.515 1276.5 618.604C1276.94 620.693 1276.75 622.865 1275.96 624.847C1275.16 626.828 1273.79 628.529 1272.03 629.734C1270.27 630.939 1268.19 631.594 1266.06 631.616C1263.2 631.646 1260.45 630.542 1258.4 628.545C1256.36 626.549 1255.19 623.824 1255.16 620.967ZM1265.78 604.715C1262.61 604.748 1259.52 605.721 1256.9 607.512C1254.28 609.302 1252.25 611.828 1251.07 614.771C1249.89 617.714 1249.61 620.942 1250.26 624.045C1250.91 627.148 1252.47 629.988 1254.74 632.205C1257.01 634.422 1259.88 635.917 1263 636.5C1266.12 637.082 1269.34 636.727 1272.25 635.48C1275.17 634.232 1277.65 632.147 1279.38 629.489C1281.11 626.832 1282.01 623.72 1281.97 620.549C1281.95 618.445 1281.51 616.367 1280.69 614.432C1279.86 612.497 1278.66 610.744 1277.16 609.273C1275.65 607.802 1273.87 606.643 1271.92 605.861C1269.97 605.078 1267.88 604.689 1265.78 604.715Z" fill="url(#paint5_radial_739_206)"/>
<path fill-rule="evenodd" clip-rule="evenodd" d="M750.459 195.777C750.373 194.456 750.681 193.138 751.345 191.992C752.008 190.846 752.997 189.922 754.186 189.338C755.375 188.754 756.711 188.537 758.023 188.712C759.336 188.888 760.567 189.45 761.561 190.326C762.554 191.202 763.265 192.353 763.604 193.634C763.942 194.914 763.893 196.266 763.462 197.519C763.032 198.771 762.239 199.868 761.185 200.67C760.13 201.471 758.862 201.942 757.54 202.022C756.664 202.079 755.786 201.962 754.956 201.678C754.126 201.395 753.36 200.95 752.702 200.37C752.045 199.79 751.508 199.086 751.123 198.298C750.738 197.509 750.512 196.653 750.459 195.777ZM756.48 185.463C754.517 185.566 752.628 186.25 751.054 187.428C749.48 188.606 748.291 190.225 747.638 192.08C746.986 193.935 746.899 195.942 747.389 197.846C747.879 199.75 748.923 201.466 750.39 202.776C751.856 204.085 753.679 204.93 755.626 205.202C757.573 205.475 759.558 205.162 761.327 204.305C763.097 203.448 764.572 202.084 765.565 200.387C766.558 198.69 767.025 196.737 766.906 194.774C766.741 192.168 765.553 189.732 763.6 187.999C761.647 186.265 759.088 185.374 756.48 185.519V185.463Z" fill="url(#paint6_radial_739_206)"/>
<path fill-rule="evenodd" clip-rule="evenodd" d="M1158.74 331.239L1134.49 338.376L1139.81 314.485L1158.74 331.239ZM1142.02 308.491C1141.41 307.953 1140.67 307.584 1139.87 307.418C1139.07 307.253 1138.25 307.298 1137.48 307.548C1136.7 307.798 1136.01 308.246 1135.46 308.846C1134.91 309.446 1134.53 310.179 1134.35 310.972L1128.05 339.295C1127.85 340.092 1127.87 340.927 1128.1 341.715C1128.33 342.503 1128.76 343.216 1129.36 343.782C1129.95 344.348 1130.69 344.747 1131.48 344.938C1132.28 345.129 1133.12 345.106 1133.9 344.871L1162.67 336.508C1163.47 336.269 1164.19 335.822 1164.76 335.214C1165.32 334.605 1165.72 333.856 1165.9 333.044C1166.08 332.232 1166.04 331.386 1165.79 330.594C1165.54 329.801 1165.08 329.091 1164.46 328.535L1142.02 308.491Z" fill="url(#paint7_radial_739_206)"/>
<path fill-rule="evenodd" clip-rule="evenodd" d="M1305.26 483.876L1293.92 492.964L1291.52 479.026L1305.26 483.876ZM1291.32 475.513C1290.88 475.391 1290.42 475.379 1289.97 475.479C1289.53 475.578 1289.11 475.786 1288.77 476.083C1288.42 476.381 1288.15 476.759 1287.98 477.184C1287.82 477.61 1287.76 478.07 1287.81 478.524L1290.6 494.943C1290.7 495.388 1290.91 495.8 1291.21 496.144C1291.51 496.488 1291.9 496.753 1292.32 496.915C1292.75 497.078 1293.21 497.133 1293.66 497.076C1294.11 497.019 1294.55 496.851 1294.92 496.588L1308.36 485.828C1308.7 485.513 1308.96 485.117 1309.12 484.676C1309.27 484.234 1309.31 483.761 1309.23 483.3C1309.15 482.84 1308.96 482.406 1308.67 482.039C1308.38 481.672 1308.01 481.383 1307.58 481.2L1291.32 475.513Z" fill="url(#paint8_radial_739_206)"/>
<path fill-rule="evenodd" clip-rule="evenodd" d="M321.312 821.709L297.477 833.222L298.899 807.631L321.312 821.709ZM300.237 801.052C299.519 800.6 298.696 800.343 297.848 800.306C297 800.269 296.157 800.454 295.403 800.842C294.649 801.231 294.009 801.809 293.546 802.521C293.084 803.232 292.815 804.052 292.766 804.899L291.065 835.23C291.019 836.077 291.195 836.922 291.576 837.681C291.956 838.439 292.528 839.086 293.234 839.556C293.941 840.026 294.758 840.304 295.605 840.361C296.452 840.419 297.299 840.255 298.063 839.885L326.302 826.281C327.088 825.903 327.759 825.32 328.243 824.595C328.728 823.869 329.009 823.027 329.058 822.156C329.106 821.285 328.92 820.416 328.519 819.642C328.117 818.867 327.516 818.214 326.776 817.751L300.237 801.052Z" fill="url(#paint9_radial_739_206)"/>
<path fill-rule="evenodd" clip-rule="evenodd" d="M989.639 143.514L972.132 157.035L968.87 135.876L989.639 143.514ZM968.815 130.272C968.148 130.033 967.43 129.971 966.733 130.092C966.035 130.213 965.38 130.513 964.832 130.962C964.285 131.411 963.863 131.995 963.608 132.656C963.353 133.317 963.274 134.032 963.378 134.733L967.253 159.822C967.365 160.521 967.655 161.18 968.097 161.733C968.538 162.287 969.116 162.716 969.773 162.98C970.43 163.244 971.144 163.333 971.846 163.239C972.547 163.145 973.213 162.87 973.777 162.443L994.489 146.413C995.067 145.966 995.514 145.372 995.785 144.693C996.055 144.014 996.139 143.275 996.029 142.553C995.918 141.831 995.616 141.151 995.154 140.585C994.692 140.019 994.087 139.586 993.402 139.333L968.815 130.272Z" fill="url(#paint10_radial_739_206)"/>
<path fill-rule="evenodd" clip-rule="evenodd" d="M717.809 650.851L696.399 655.116L702.839 634.961L717.809 650.851ZM705.264 629.999C704.782 629.491 704.176 629.117 703.506 628.914C702.836 628.711 702.124 628.686 701.441 628.84C700.758 628.995 700.127 629.324 699.61 629.796C699.093 630.268 698.707 630.866 698.49 631.532L690.852 655.395C690.64 656.063 690.607 656.775 690.754 657.46C690.901 658.145 691.223 658.781 691.69 659.304C692.157 659.827 692.752 660.219 693.416 660.443C694.08 660.667 694.791 660.714 695.479 660.58L720.847 655.534C721.557 655.398 722.216 655.074 722.756 654.595C723.297 654.116 723.698 653.501 723.918 652.813C724.137 652.125 724.167 651.391 724.005 650.687C723.842 649.984 723.493 649.337 722.994 648.816L705.264 629.999Z" fill="url(#paint11_radial_739_206)"/>
<path fill-rule="evenodd" clip-rule="evenodd" d="M1347.96 856.275L1326.55 860.54L1332.99 840.385L1347.96 856.275ZM1335.42 835.423C1334.93 834.915 1334.33 834.542 1333.66 834.339C1332.99 834.135 1332.28 834.11 1331.59 834.265C1330.91 834.419 1330.28 834.749 1329.76 835.22C1329.24 835.692 1328.86 836.29 1328.64 836.956L1321 860.819C1320.79 861.487 1320.76 862.199 1320.91 862.884C1321.05 863.57 1321.38 864.205 1321.84 864.728C1322.31 865.251 1322.9 865.644 1323.57 865.867C1324.23 866.091 1324.94 866.138 1325.63 866.004L1351 860.958C1351.71 860.823 1352.37 860.498 1352.91 860.02C1353.45 859.541 1353.85 858.925 1354.07 858.237C1354.29 857.549 1354.32 856.815 1354.16 856.112C1353.99 855.408 1353.65 854.762 1353.15 854.24L1335.42 835.423Z" fill="url(#paint12_radial_739_206)"/>
<path fill-rule="evenodd" clip-rule="evenodd" d="M423.197 127.822C423.139 127.366 423.171 126.902 423.292 126.459C423.414 126.015 423.622 125.6 423.904 125.238C424.186 124.875 424.538 124.572 424.938 124.345C425.338 124.119 425.779 123.974 426.236 123.919L446.057 121.493C446.513 121.435 446.976 121.467 447.419 121.589C447.863 121.71 448.278 121.918 448.641 122.2C449.003 122.483 449.307 122.834 449.533 123.234C449.759 123.635 449.904 124.076 449.959 124.532L452.385 144.353C452.443 144.809 452.411 145.272 452.289 145.715C452.168 146.159 451.96 146.574 451.678 146.937C451.395 147.3 451.044 147.603 450.644 147.829C450.243 148.056 449.802 148.2 449.346 148.256L429.525 150.681C429.069 150.739 428.606 150.707 428.163 150.586C427.719 150.464 427.304 150.257 426.941 149.974C426.579 149.692 426.275 149.34 426.049 148.94C425.823 148.54 425.678 148.099 425.623 147.642L423.197 127.822ZM427.769 128.268L429.971 146.109L447.813 143.907L445.61 126.065L427.769 128.268Z" fill="url(#paint13_radial_739_206)"/>
<path fill-rule="evenodd" clip-rule="evenodd" d="M1170.96 220.194C1170.59 219.923 1170.28 219.581 1170.04 219.189C1169.8 218.796 1169.64 218.359 1169.57 217.905C1169.5 217.45 1169.52 216.987 1169.63 216.54C1169.75 216.094 1169.94 215.674 1170.22 215.305L1182.08 199.242C1182.35 198.87 1182.69 198.556 1183.09 198.317C1183.48 198.079 1183.91 197.92 1184.37 197.851C1184.82 197.781 1185.29 197.803 1185.73 197.913C1186.18 198.024 1186.6 198.222 1186.97 198.496L1203.03 210.358C1203.4 210.629 1203.72 210.971 1203.96 211.364C1204.2 211.757 1204.35 212.193 1204.42 212.648C1204.49 213.102 1204.47 213.566 1204.36 214.012C1204.25 214.458 1204.05 214.878 1203.78 215.248L1191.92 231.311C1191.64 231.682 1191.3 231.996 1190.91 232.235C1190.52 232.474 1190.08 232.632 1189.63 232.702C1189.17 232.771 1188.71 232.75 1188.26 232.639C1187.82 232.528 1187.4 232.331 1187.03 232.057L1170.96 220.194ZM1174.43 217.18L1188.9 227.844L1199.57 213.372L1185.09 202.708L1174.43 217.18Z" fill="url(#paint14_radial_739_206)"/>
<path fill-rule="evenodd" clip-rule="evenodd" d="M681.011 849.503C681.157 849.305 681.34 849.137 681.551 849.01C681.762 848.883 681.996 848.799 682.24 848.763C682.483 848.726 682.732 848.739 682.97 848.799C683.209 848.859 683.434 848.965 683.631 849.113L692.162 855.524C692.55 855.823 692.805 856.262 692.873 856.746C692.941 857.231 692.815 857.724 692.524 858.117L686.14 866.675C685.837 867.065 685.393 867.321 684.904 867.389C684.414 867.457 683.918 867.331 683.52 867.038L674.989 860.626C674.791 860.483 674.623 860.301 674.497 860.092C674.371 859.882 674.288 859.649 674.255 859.407C674.221 859.165 674.236 858.918 674.3 858.682C674.364 858.446 674.475 858.225 674.627 858.033L681.011 849.503ZM682.6 851.371L676.857 859.037L684.523 864.807L690.294 857.113L682.6 851.371Z" fill="url(#paint15_radial_739_206)"/>
<path fill-rule="evenodd" clip-rule="evenodd" d="M963.601 413.114C963.549 412.832 963.553 412.543 963.613 412.262C963.673 411.982 963.788 411.716 963.952 411.48C964.115 411.245 964.323 411.043 964.564 410.888C964.806 410.733 965.075 410.628 965.358 410.577L977.651 408.264C978.217 408.157 978.801 408.28 979.277 408.604C979.752 408.928 980.08 409.427 980.188 409.992L982.502 422.286C982.554 422.568 982.55 422.857 982.49 423.138C982.43 423.418 982.315 423.684 982.152 423.92C981.989 424.155 981.78 424.357 981.539 424.512C981.298 424.667 981.028 424.772 980.746 424.823L968.48 427.136C967.911 427.243 967.323 427.122 966.843 426.798C966.363 426.475 966.03 425.975 965.915 425.408L963.601 413.114ZM966.389 413.114L968.452 424.265L979.603 422.174L977.512 411.023L966.389 413.114Z" fill="url(#paint16_radial_739_206)"/>
<path fill-rule="evenodd" clip-rule="evenodd" d="M664.536 765.202C664.453 764.845 664.442 764.476 664.502 764.114C664.562 763.753 664.693 763.407 664.888 763.096C665.082 762.786 665.335 762.516 665.634 762.304C665.932 762.091 666.269 761.939 666.626 761.857L682.182 758.233C682.541 758.146 682.913 758.132 683.278 758.19C683.642 758.249 683.992 758.379 684.305 758.573C684.619 758.768 684.891 759.023 685.106 759.323C685.32 759.624 685.473 759.964 685.555 760.324L689.151 775.879C689.234 776.236 689.245 776.606 689.185 776.967C689.124 777.329 688.993 777.675 688.799 777.985C688.605 778.296 688.351 778.565 688.053 778.778C687.755 778.991 687.417 779.142 687.06 779.225L671.505 782.849C671.148 782.931 670.778 782.943 670.417 782.882C670.055 782.822 669.709 782.691 669.399 782.497C669.088 782.302 668.819 782.049 668.606 781.751C668.393 781.452 668.242 781.115 668.16 780.758L664.536 765.202ZM668.215 765.202L671.477 779.141L685.416 775.879L682.182 761.941L668.215 765.202Z" fill="url(#paint17_radial_739_206)"/>
<path fill-rule="evenodd" clip-rule="evenodd" d="M199.939 214.36C199.88 213.9 199.913 213.433 200.036 212.986C200.159 212.539 200.368 212.121 200.654 211.756C200.939 211.39 201.293 211.085 201.697 210.857C202.1 210.63 202.545 210.484 203.005 210.429L223.021 207.948C223.48 207.889 223.947 207.922 224.394 208.045C224.841 208.168 225.259 208.378 225.624 208.663C225.99 208.948 226.295 209.302 226.523 209.706C226.751 210.11 226.896 210.554 226.951 211.014L229.433 231.058C229.535 231.988 229.268 232.921 228.69 233.656C228.111 234.392 227.266 234.87 226.338 234.989L206.322 237.442C205.395 237.552 204.462 237.292 203.726 236.718C202.99 236.143 202.51 235.301 202.392 234.375L199.939 214.36ZM204.566 214.806L206.768 232.814L224.805 230.612L222.575 212.575L204.566 214.806Z" fill="url(#paint18_radial_739_206)"/>
<path fill-rule="evenodd" clip-rule="evenodd" d="M551.967 242.422C552.199 242.287 552.401 242.107 552.562 241.893C552.722 241.679 552.838 241.435 552.903 241.175C552.968 240.915 552.981 240.645 552.94 240.381C552.899 240.116 552.805 239.862 552.664 239.634C552.532 239.4 552.354 239.195 552.14 239.032C551.926 238.869 551.681 238.752 551.42 238.687C551.16 238.621 550.888 238.61 550.623 238.653C550.357 238.696 550.103 238.793 549.877 238.938L540.148 244.708L534.377 234.951C534.262 234.692 534.093 234.461 533.882 234.272C533.671 234.084 533.422 233.942 533.152 233.856C532.882 233.77 532.597 233.742 532.316 233.775C532.034 233.807 531.763 233.898 531.52 234.043C531.276 234.187 531.066 234.382 530.903 234.613C530.74 234.845 530.628 235.108 530.574 235.386C530.52 235.664 530.525 235.951 530.59 236.226C530.654 236.502 530.776 236.761 530.948 236.986L536.719 246.715L526.99 252.486C526.755 252.618 526.55 252.796 526.388 253.01C526.225 253.224 526.107 253.469 526.042 253.73C525.976 253.991 525.965 254.262 526.008 254.528C526.051 254.793 526.148 255.047 526.293 255.274C526.422 255.511 526.599 255.719 526.812 255.884C527.026 256.049 527.271 256.169 527.533 256.234C527.795 256.3 528.068 256.31 528.335 256.265C528.601 256.219 528.855 256.119 529.08 255.97L538.837 250.2L544.608 259.957C544.743 260.188 544.923 260.39 545.137 260.551C545.351 260.712 545.595 260.828 545.855 260.893C546.115 260.958 546.385 260.97 546.649 260.929C546.914 260.888 547.168 260.794 547.396 260.654C547.857 260.376 548.19 259.927 548.32 259.404C548.451 258.881 548.369 258.328 548.093 257.866L542.322 248.137L551.967 242.422Z" fill="url(#paint19_radial_739_206)"/>
<path fill-rule="evenodd" clip-rule="evenodd" d="M619.697 64.5798C620.036 64.3224 620.321 64.0004 620.536 63.6324C620.751 63.2644 620.891 62.8576 620.948 62.4353C621.005 62.0131 620.978 61.5837 620.868 61.1719C620.759 60.7601 620.569 60.374 620.31 60.0358C620.055 59.6972 619.735 59.4125 619.37 59.1981C619.004 58.9837 618.6 58.8439 618.18 58.7869C617.76 58.7299 617.333 58.7567 616.923 58.8658C616.513 58.9749 616.13 59.1641 615.794 59.4225L601.186 70.5734L590.035 55.9658C589.499 55.3492 588.748 54.9588 587.935 54.8731C587.122 54.7873 586.307 55.0127 585.654 55.5037C585 55.9947 584.557 56.715 584.413 57.5196C584.269 58.3243 584.435 59.1535 584.878 59.8406L596.029 74.4761L581.393 85.627C581.016 85.8674 580.693 86.1835 580.444 86.5552C580.196 86.9268 580.027 87.346 579.948 87.7863C579.87 88.2265 579.884 88.6783 579.989 89.113C580.094 89.5477 580.288 89.9558 580.558 90.3117C580.829 90.6676 581.171 90.9635 581.562 91.1807C581.953 91.3978 582.385 91.5315 582.83 91.5733C583.275 91.6151 583.724 91.5641 584.149 91.4235C584.573 91.2829 584.964 91.0557 585.296 90.7564L599.904 79.6055L611.055 94.2132C611.305 94.5571 611.622 94.8472 611.986 95.0663C612.351 95.2855 612.756 95.4293 613.177 95.4891C613.598 95.5489 614.027 95.5235 614.438 95.4145C614.849 95.3055 615.234 95.1149 615.571 94.8543C616.253 94.3391 616.703 93.5749 616.823 92.7287C616.943 91.8824 616.724 91.0229 616.212 90.3382L605.061 75.7027L619.697 64.5798Z" fill="url(#paint20_radial_739_206)"/>
<path fill-rule="evenodd" clip-rule="evenodd" d="M721.6 514.81C722.107 514.493 722.475 513.996 722.631 513.418C722.787 512.841 722.719 512.226 722.44 511.697C722.161 511.168 721.693 510.764 721.128 510.565C720.564 510.367 719.946 510.39 719.398 510.628L707.606 516.845L701.389 505.025C701.244 504.752 701.048 504.511 700.81 504.314C700.572 504.118 700.297 503.97 700.002 503.879C699.707 503.788 699.397 503.757 699.09 503.786C698.782 503.815 698.484 503.905 698.211 504.049C697.938 504.194 697.697 504.391 697.5 504.629C697.303 504.867 697.156 505.141 697.065 505.436C696.974 505.731 696.943 506.041 696.972 506.349C697.001 506.656 697.091 506.955 697.235 507.227L703.452 519.019L691.632 525.236C691.085 525.532 690.675 526.029 690.488 526.622C690.3 527.215 690.351 527.858 690.628 528.414C690.772 528.688 690.969 528.93 691.206 529.127C691.444 529.325 691.719 529.473 692.014 529.564C692.31 529.654 692.62 529.686 692.928 529.656C693.235 529.626 693.534 529.536 693.806 529.39L705.626 523.201L711.815 534.993C712.106 535.545 712.603 535.96 713.198 536.148C713.793 536.336 714.438 536.281 714.993 535.997C715.54 535.701 715.95 535.203 716.137 534.611C716.325 534.018 716.274 533.375 715.997 532.819L709.78 520.999L721.6 514.81Z" fill="url(#paint21_radial_739_206)"/>
<path fill-rule="evenodd" clip-rule="evenodd" d="M1351.75 720.234C1352.26 719.917 1352.63 719.42 1352.78 718.843C1352.94 718.265 1352.87 717.65 1352.59 717.121C1352.31 716.592 1351.84 716.188 1351.28 715.99C1350.72 715.791 1350.1 715.814 1349.55 716.053L1337.76 722.269L1331.54 710.449C1331.4 710.177 1331.2 709.935 1330.96 709.738C1330.72 709.542 1330.45 709.394 1330.15 709.303C1329.86 709.213 1329.55 709.181 1329.24 709.21C1328.93 709.24 1328.64 709.329 1328.36 709.474C1328.09 709.618 1327.85 709.815 1327.65 710.053C1327.46 710.291 1327.31 710.565 1327.22 710.861C1327.13 711.156 1327.1 711.466 1327.12 711.773C1327.15 712.08 1327.24 712.379 1327.39 712.652L1333.6 724.444L1321.78 730.66C1321.24 730.956 1320.83 731.453 1320.64 732.046C1320.45 732.639 1320.5 733.282 1320.78 733.838C1320.92 734.112 1321.12 734.354 1321.36 734.552C1321.6 734.749 1321.87 734.897 1322.17 734.988C1322.46 735.079 1322.77 735.11 1323.08 735.08C1323.39 735.05 1323.69 734.96 1323.96 734.814L1335.78 728.625L1341.97 740.417C1342.26 740.969 1342.76 741.384 1343.35 741.572C1343.95 741.76 1344.59 741.706 1345.15 741.421C1345.69 741.125 1346.1 740.628 1346.29 740.035C1346.48 739.442 1346.43 738.799 1346.15 738.243L1339.93 726.423L1351.75 720.234Z" fill="url(#paint22_radial_739_206)"/>
<path fill-rule="evenodd" clip-rule="evenodd" d="M823.909 592.308C823.972 591.952 823.899 591.585 823.705 591.279C823.51 590.974 823.209 590.752 822.859 590.658C822.51 590.564 822.138 590.603 821.816 590.769C821.495 590.936 821.247 591.216 821.122 591.556L819.031 599.445L811.225 597.27C811.042 597.22 810.851 597.207 810.663 597.232C810.474 597.257 810.293 597.319 810.129 597.416C809.966 597.512 809.823 597.64 809.71 597.792C809.596 597.944 809.514 598.117 809.469 598.302C809.374 598.668 809.426 599.056 809.614 599.384C809.801 599.712 810.109 599.954 810.472 600.058L818.362 602.149L816.271 610.038C816.208 610.395 816.281 610.762 816.476 611.067C816.67 611.372 816.971 611.594 817.321 611.688C817.67 611.783 818.042 611.743 818.364 611.577C818.685 611.411 818.933 611.13 819.059 610.791L821.149 602.902L829.039 604.992C829.395 605.055 829.762 604.982 830.068 604.788C830.373 604.593 830.595 604.292 830.689 603.942C830.783 603.593 830.744 603.221 830.577 602.899C830.411 602.578 830.131 602.33 829.791 602.205L821.902 600.114L823.909 592.308Z" fill="url(#paint23_radial_739_206)"/>
<path fill-rule="evenodd" clip-rule="evenodd" d="M1484.89 772.477C1485.39 772.16 1485.76 771.663 1485.92 771.086C1486.07 770.508 1486.01 769.893 1485.73 769.364C1485.45 768.835 1484.98 768.431 1484.42 768.233C1483.85 768.035 1483.23 768.057 1482.68 768.296L1470.89 774.512L1464.68 762.692C1464.53 762.42 1464.33 762.178 1464.1 761.982C1463.86 761.785 1463.58 761.637 1463.29 761.546C1462.99 761.456 1462.68 761.424 1462.38 761.453C1462.07 761.483 1461.77 761.572 1461.5 761.717C1461.23 761.861 1460.98 762.058 1460.79 762.296C1460.59 762.534 1460.44 762.809 1460.35 763.104C1460.26 763.399 1460.23 763.709 1460.26 764.016C1460.29 764.323 1460.38 764.622 1460.52 764.895L1466.74 776.687L1454.92 782.903C1454.37 783.2 1453.96 783.696 1453.78 784.289C1453.59 784.882 1453.64 785.525 1453.92 786.081C1454.06 786.355 1454.26 786.597 1454.49 786.795C1454.73 786.992 1455.01 787.14 1455.3 787.231C1455.6 787.322 1455.91 787.353 1456.21 787.323C1456.52 787.293 1456.82 787.203 1457.09 787.057L1468.91 780.868L1475.1 792.66C1475.39 793.212 1475.89 793.627 1476.49 793.815C1477.08 794.003 1477.73 793.949 1478.28 793.664C1478.83 793.368 1479.24 792.871 1479.42 792.278C1479.61 791.685 1479.56 791.042 1479.28 790.486L1473.07 778.666L1484.89 772.477Z" fill="url(#paint24_radial_739_206)"/>
<path fill-rule="evenodd" clip-rule="evenodd" d="M445.56 572.181C445.628 571.885 445.633 571.579 445.575 571.282C445.517 570.984 445.398 570.702 445.224 570.454C445.051 570.205 444.828 569.996 444.569 569.838C444.31 569.681 444.021 569.58 443.721 569.541C443.42 569.502 443.115 569.526 442.824 569.612C442.534 569.698 442.264 569.843 442.033 570.039C441.802 570.235 441.615 570.478 441.483 570.75C441.351 571.023 441.278 571.32 441.267 571.623L439.734 583.778L427.58 582.217C427.299 582.182 427.015 582.202 426.743 582.277C426.471 582.352 426.216 582.48 425.993 582.653C425.771 582.827 425.584 583.042 425.445 583.288C425.306 583.534 425.217 583.804 425.182 584.084C425.139 584.367 425.154 584.656 425.225 584.933C425.297 585.21 425.424 585.469 425.598 585.696C425.773 585.922 425.991 586.111 426.241 586.251C426.49 586.391 426.766 586.479 427.05 586.51L439.176 588.043L437.643 600.197C437.608 600.477 437.629 600.762 437.704 601.034C437.778 601.306 437.906 601.561 438.08 601.784C438.253 602.006 438.469 602.192 438.715 602.332C438.96 602.471 439.231 602.56 439.511 602.595C439.792 602.634 440.077 602.616 440.351 602.543C440.625 602.469 440.881 602.342 441.104 602.168C441.328 601.993 441.514 601.776 441.652 601.529C441.791 601.281 441.878 601.009 441.908 600.727L443.47 588.6L455.596 590.134C455.879 590.177 456.167 590.162 456.444 590.091C456.721 590.019 456.981 589.892 457.208 589.718C457.434 589.543 457.623 589.325 457.763 589.075C457.903 588.826 457.991 588.55 458.021 588.266C458.057 587.986 458.036 587.701 457.961 587.429C457.886 587.157 457.758 586.902 457.585 586.68C457.411 586.457 457.196 586.271 456.95 586.132C456.704 585.992 456.434 585.903 456.154 585.868L443.999 584.307L445.56 572.181Z" fill="url(#paint25_radial_739_206)"/>
<path fill-rule="evenodd" clip-rule="evenodd" d="M1075.71 777.605C1075.78 777.31 1075.78 777.004 1075.73 776.706C1075.67 776.409 1075.55 776.127 1075.38 775.878C1075.2 775.63 1074.98 775.42 1074.72 775.263C1074.46 775.105 1074.17 775.004 1073.87 774.965C1073.57 774.926 1073.27 774.95 1072.98 775.036C1072.69 775.122 1072.42 775.268 1072.19 775.464C1071.95 775.66 1071.77 775.902 1071.64 776.175C1071.5 776.447 1071.43 776.745 1071.42 777.048L1069.89 789.202L1057.73 787.641C1057.45 787.606 1057.17 787.626 1056.9 787.701C1056.62 787.776 1056.37 787.904 1056.15 788.077C1055.92 788.251 1055.74 788.467 1055.6 788.712C1055.46 788.958 1055.37 789.228 1055.33 789.509C1055.29 789.791 1055.31 790.08 1055.38 790.357C1055.45 790.634 1055.58 790.894 1055.75 791.12C1055.92 791.347 1056.14 791.536 1056.39 791.676C1056.64 791.815 1056.92 791.903 1057.2 791.934L1069.33 793.467L1067.8 805.622C1067.76 805.902 1067.78 806.186 1067.86 806.458C1067.93 806.73 1068.06 806.985 1068.23 807.208C1068.41 807.431 1068.62 807.617 1068.87 807.756C1069.11 807.895 1069.38 807.985 1069.66 808.019C1069.94 808.058 1070.23 808.04 1070.5 807.967C1070.78 807.894 1071.03 807.766 1071.26 807.592C1071.48 807.418 1071.67 807.201 1071.8 806.953C1071.94 806.706 1072.03 806.433 1072.06 806.151L1073.62 794.025L1085.75 795.558C1086.03 795.601 1086.32 795.586 1086.6 795.515C1086.87 795.443 1087.13 795.317 1087.36 795.142C1087.59 794.968 1087.78 794.749 1087.92 794.499C1088.06 794.25 1088.14 793.975 1088.17 793.69C1088.21 793.41 1088.19 793.126 1088.11 792.854C1088.04 792.581 1087.91 792.327 1087.74 792.104C1087.56 791.881 1087.35 791.695 1087.1 791.556C1086.86 791.417 1086.59 791.327 1086.31 791.293L1074.15 789.732L1075.71 777.605Z" fill="url(#paint26_radial_739_206)"/>
<path d="M339.613 5.01785C340.058 3.87347 340.589 2.76458 341.202 1.70055C341.529 1.0334 342.006 0.451216 342.596 0C342.819 0 343.126 0.278741 343.237 0.752652C343.387 1.85181 343.453 2.96088 343.432 4.07004C343.479 6.45162 343.893 8.81178 344.659 11.0672C345.249 13.3524 346.014 15.589 346.945 17.7577C347.699 19.2026 348.527 20.6077 349.426 21.9672C350.489 23.4629 351.203 25.1774 351.517 26.9851C351.879 28.5741 352.353 31.3618 352.548 33.146C352.657 34.5547 352.919 35.9474 353.329 37.2996C353.618 37.8418 354.079 38.273 354.639 38.5262C355.938 38.7396 357.257 38.7957 358.57 38.6935C361.162 38.5541 361.831 38.6935 363.002 39.3904C363.726 39.8224 364.384 40.3577 364.954 40.9794C365.306 41.5905 365.542 42.2616 365.65 42.9587C365.65 43.7671 365.65 44.4641 364.229 46.0252H360.354C358.735 45.9621 357.114 46.018 355.503 46.1925C355.279 46.2238 355.065 46.3053 354.877 46.4308C354.689 46.5562 354.531 46.7225 354.416 46.9173C354.376 47.4751 354.452 48.0351 354.639 48.562C354.952 49.5353 355.372 50.4704 355.893 51.3497C356.28 52.011 356.615 52.7006 356.897 53.4126C356.897 53.6078 356.73 54.0259 356.395 54.3047C356.061 54.5835 355.169 54.7786 353.608 54.7229C352.084 54.6808 350.596 54.2488 349.287 53.4684C347.449 52.3692 345.87 50.8857 344.659 49.1195C343.495 47.6122 342.178 46.2296 340.728 44.9938C339.676 44.3751 338.526 43.9413 337.327 43.7113C335.811 43.5014 334.285 43.3712 332.755 43.3211C331.334 43.3211 329.968 43.1538 329.689 43.126C329.44 43.0164 329.241 42.8174 329.131 42.5684C329.131 42.3175 329.55 41.7042 330.163 41.1745C330.827 40.6287 331.525 40.126 332.254 39.6692C333.882 38.9561 335.559 38.3599 337.272 37.885C340.617 36.8257 341.369 36.4633 341.62 35.8779C341.807 35.2357 341.883 34.5663 341.843 33.8986C341.364 31.8907 340.702 29.9311 339.864 28.0444C338.802 25.7116 338.025 23.2593 337.55 20.7406C337.364 18.8868 337.364 17.019 337.55 15.1652C337.732 13.2882 338.039 11.4256 338.47 9.58975C338.721 8.0565 339.251 6.02143 339.613 5.01785Z" fill="url(#paint27_radial_739_206)"/>
<path d="M796.869 48.6203C797.353 47.8302 797.893 47.0756 798.485 46.3623C798.987 45.8047 799.545 45.303 799.74 45.303C799.935 45.303 800.102 45.5817 800.102 45.9441C800.074 46.7771 799.981 47.6067 799.824 48.4252C799.556 50.2087 799.556 52.022 799.824 53.8055C799.958 55.5798 800.229 57.3412 800.632 59.0743C800.911 60.0221 801.496 61.5832 801.914 62.5589C802.509 63.8056 802.832 65.1644 802.862 66.5453C802.862 67.7998 802.862 69.9464 802.862 71.2845C802.745 72.3499 802.745 73.4249 802.862 74.4903C803.007 74.9231 803.291 75.2957 803.671 75.5497C804.571 75.8799 805.506 76.1044 806.458 76.2187C808.41 76.4696 808.884 76.6369 809.664 77.3338C810.147 77.7494 810.561 78.2386 810.891 78.7834C811.067 79.2847 811.152 79.8134 811.142 80.3445C811.142 80.9578 810.891 81.4596 809.664 82.4353L806.876 81.8499C805.685 81.5695 804.473 81.3831 803.252 81.2924C803.085 81.2931 802.919 81.3281 802.766 81.3952C802.613 81.4623 802.475 81.5601 802.36 81.6826C802.281 82.097 802.281 82.5228 802.36 82.9371C802.463 83.6988 802.65 84.4468 802.918 85.1673C803.12 85.7017 803.279 86.2518 803.392 86.812C803.356 86.9437 803.292 87.0663 803.206 87.1719C803.12 87.2775 803.012 87.3639 802.89 87.4253C802.528 87.6205 801.914 87.6205 800.688 87.4253C799.57 87.1943 798.532 86.6754 797.677 85.92C796.479 84.8447 795.528 83.5228 794.889 82.045C794.226 80.7738 793.442 79.5695 792.548 78.4489C791.846 77.8482 791.044 77.3763 790.178 77.055C789.081 76.6847 787.964 76.3776 786.833 76.1351C785.773 75.9121 784.77 75.6333 784.575 75.5775C784.487 75.5215 784.413 75.448 784.355 75.3616C784.297 75.2753 784.258 75.1779 784.24 75.0757C784.24 74.8806 784.658 74.4903 785.188 74.1837C785.753 73.8643 786.34 73.5849 786.944 73.3474C788.259 73.0511 789.59 72.837 790.931 72.7062C793.551 72.3717 794.164 72.2044 794.415 71.7862C794.52 71.3294 794.548 70.8584 794.499 70.3924C794.42 68.8325 794.196 67.2833 793.83 65.7648C793.364 63.9417 793.111 62.0707 793.077 60.1894C793.157 58.8038 793.381 57.4304 793.746 56.0914C794.137 54.7343 794.612 53.4029 795.168 52.105C795.669 50.9123 796.237 49.7489 796.869 48.6203Z" fill="url(#paint28_radial_739_206)"/>
<path d="M1055.04 489.442C1055.73 488.679 1056.47 487.97 1057.27 487.323C1057.72 486.911 1058.25 486.606 1058.83 486.431C1059.03 486.431 1059.16 486.793 1059.11 487.211C1058.9 488.106 1058.62 488.982 1058.27 489.832C1057.61 491.69 1057.23 493.634 1057.13 495.603C1056.92 497.546 1056.85 499.503 1056.91 501.457C1057.05 502.544 1057.35 504.244 1057.6 505.471C1057.93 506.949 1057.93 508.481 1057.6 509.959C1057.41 511.325 1056.93 513.611 1056.57 515.061C1056.23 516.186 1056.02 517.345 1055.93 518.518C1056 519.011 1056.22 519.47 1056.57 519.828C1057.52 520.383 1058.53 520.823 1059.58 521.138C1061.62 521.807 1062.12 522.058 1062.82 522.978C1063.25 523.532 1063.59 524.154 1063.82 524.818C1063.93 525.389 1063.93 525.975 1063.82 526.546C1063.68 527.187 1063.32 527.689 1061.81 528.498L1058.83 527.271C1057.6 526.735 1056.33 526.288 1055.04 525.933C1054.85 525.896 1054.66 525.9 1054.48 525.943C1054.3 525.986 1054.13 526.068 1053.98 526.184C1053.78 526.602 1053.66 527.057 1053.64 527.522C1053.63 528.361 1053.68 529.201 1053.81 530.031C1053.91 530.658 1053.97 531.291 1053.98 531.926C1053.92 532.06 1053.82 532.177 1053.71 532.268C1053.59 532.36 1053.45 532.424 1053.31 532.456C1052.89 532.623 1052.22 532.456 1050.97 531.926C1049.81 531.441 1048.79 530.663 1048.01 529.668C1046.91 528.277 1046.13 526.658 1045.73 524.929C1045.26 523.418 1044.65 521.953 1043.92 520.553C1043.28 519.768 1042.52 519.099 1041.66 518.573C1040.55 517.95 1039.4 517.391 1038.23 516.901C1037.14 516.455 1036.11 515.953 1035.92 515.841C1035.83 515.761 1035.77 515.665 1035.73 515.56C1035.69 515.454 1035.66 515.342 1035.66 515.228C1035.66 515.033 1036.22 514.698 1036.86 514.475C1037.54 514.242 1038.23 514.056 1038.93 513.918C1040.39 513.819 1041.86 513.819 1043.33 513.918C1046.12 514.085 1046.93 514.057 1047.32 513.667C1047.63 513.211 1047.89 512.714 1048.07 512.189C1048.29 510.499 1048.36 508.791 1048.26 507.088C1048.15 504.97 1048.28 502.847 1048.65 500.76C1049.02 499.282 1049.54 497.844 1050.19 496.467C1050.9 495.082 1051.69 493.742 1052.56 492.452C1053.33 491.404 1054.16 490.399 1055.04 489.442Z" fill="url(#paint29_radial_739_206)"/>
<path d="M431.157 235.158C432.265 234.4 433.43 233.729 434.641 233.151C435.339 232.749 436.123 232.519 436.927 232.482C437.178 232.482 437.234 233.039 436.927 233.541C436.383 234.618 435.759 235.652 435.059 236.635C433.653 238.822 432.565 241.196 431.826 243.688C430.945 246.105 430.246 248.583 429.735 251.104C429.54 252.525 429.4 254.895 429.372 256.456C429.371 258.447 428.943 260.415 428.118 262.227C427.299 264.346 426.368 266.421 425.33 268.443C424.567 269.776 423.95 271.187 423.49 272.653C423.408 273.31 423.545 273.977 423.881 274.548C424.929 275.543 426.089 276.413 427.337 277.141C429.735 278.618 430.125 279.12 430.878 280.514C431.275 281.339 431.53 282.225 431.63 283.134C431.573 283.898 431.375 284.645 431.045 285.337C430.655 286.145 430.041 286.647 427.867 287.232L424.438 284.724C423.023 283.684 421.532 282.752 419.978 281.936C419.759 281.837 419.521 281.786 419.281 281.786C419.041 281.786 418.803 281.837 418.584 281.936C418.189 282.396 417.903 282.939 417.748 283.525C417.438 284.598 417.241 285.7 417.162 286.814C417.109 287.641 416.987 288.461 416.8 289.267C416.8 289.49 416.27 289.714 415.796 289.769C415.322 289.825 414.402 289.435 413.008 288.375C411.665 287.391 410.598 286.075 409.914 284.556C408.938 282.432 408.434 280.12 408.437 277.782C408.334 275.709 408.007 273.652 407.461 271.649C406.873 270.39 406.049 269.255 405.036 268.304C404.116 267.468 402.248 265.99 401.161 265.098C400.25 264.458 399.376 263.77 398.54 263.035C398.379 262.788 398.319 262.489 398.373 262.199C398.373 261.948 399.293 261.697 400.157 261.585C401.085 261.519 402.017 261.519 402.945 261.585C404.835 261.962 406.697 262.465 408.52 263.091C412.172 264.206 413.064 264.345 413.65 263.955C414.213 263.494 414.702 262.948 415.099 262.338C415.894 260.238 416.51 258.075 416.939 255.871C417.414 253.114 418.228 250.426 419.364 247.87C420.307 246.101 421.408 244.422 422.654 242.852C423.99 241.312 425.414 239.85 426.919 238.475C428.27 237.294 429.685 236.186 431.157 235.158Z" fill="url(#paint30_radial_739_206)"/>
<path d="M459.973 750.595C460.833 749.599 461.765 748.667 462.761 747.807C463.311 747.237 463.976 746.79 464.712 746.497C464.991 746.497 465.186 746.943 465.13 747.473C464.939 748.656 464.65 749.822 464.266 750.957C463.581 753.425 463.253 755.979 463.29 758.54C463.16 761.068 463.216 763.602 463.458 766.122C463.708 767.516 464.266 769.774 464.684 771.252C465.273 773.125 465.444 775.104 465.186 777.05C465.007 779.296 464.7 781.53 464.266 783.741C463.922 785.212 463.744 786.718 463.736 788.229C463.863 788.875 464.196 789.461 464.684 789.902C465.948 790.547 467.287 791.034 468.671 791.351C471.458 792.048 472.016 792.355 472.992 793.498C473.612 794.159 474.112 794.923 474.469 795.756C474.612 796.492 474.612 797.25 474.469 797.986C474.469 798.85 473.912 799.519 472.044 800.774L468.057 799.408C466.419 798.828 464.742 798.362 463.039 798.014C462.806 797.983 462.568 798.002 462.343 798.069C462.117 798.136 461.908 798.25 461.729 798.404C461.504 798.962 461.39 799.559 461.395 800.16C461.443 801.257 461.583 802.348 461.813 803.422C461.991 804.222 462.122 805.032 462.203 805.847C462.203 806.07 461.813 806.405 461.367 806.6C460.921 806.795 459.973 806.6 458.3 806.126C456.744 805.559 455.361 804.599 454.286 803.339C452.75 801.623 451.6 799.598 450.913 797.401C450.175 795.452 449.241 793.584 448.125 791.825C447.254 790.857 446.215 790.054 445.059 789.456C443.944 788.898 441.881 788.034 440.487 787.532C439.443 787.201 438.419 786.81 437.42 786.361C437.188 786.174 437.038 785.904 437.002 785.609C437.002 785.358 437.727 784.884 438.508 784.521C439.367 784.166 440.252 783.877 441.156 783.657C443.054 783.455 444.963 783.38 446.871 783.434C450.634 783.434 451.526 783.295 451.972 782.765C452.368 782.168 452.66 781.508 452.836 780.814C453.003 778.603 452.957 776.381 452.697 774.179C452.359 771.401 452.359 768.593 452.697 765.816C453.069 763.91 453.619 762.043 454.342 760.24C455.159 758.4 456.09 756.612 457.129 754.888C458.005 753.41 458.954 751.977 459.973 750.595Z" fill="url(#paint31_radial_739_206)"/>
<path d="M1307.06 61.0383C1307.27 59.7126 1307.58 58.4052 1308 57.1277C1308.18 56.3445 1308.56 55.6175 1309.08 55.0075C1309.25 54.8253 1309.7 55.1681 1309.85 55.7357C1310.26 56.871 1310.58 58.0355 1310.81 59.2192C1311.44 61.7432 1312.41 64.1662 1313.71 66.4159C1314.86 68.7164 1316.18 70.9278 1317.66 73.0315C1318.56 74.1505 1320.19 75.8805 1321.3 76.9738C1322.75 78.3432 1323.88 80.0065 1324.63 81.8514C1325.61 83.9036 1326.47 86.0058 1327.23 88.1493C1327.67 89.6197 1328.27 91.0379 1329.02 92.379C1329.44 92.8907 1330.02 93.249 1330.67 93.3986C1332.11 93.321 1333.54 93.0765 1334.93 92.67C1337.65 91.9443 1338.28 92.0057 1339.81 92.4171C1340.68 92.6952 1341.5 93.1194 1342.23 93.6716C1342.75 94.2383 1343.15 94.8958 1343.43 95.6106C1343.75 96.4498 1343.69 97.2401 1342.62 99.2218L1338.44 99.9877C1336.71 100.301 1335.01 100.743 1333.35 101.311C1333.13 101.403 1332.93 101.54 1332.76 101.715C1332.6 101.889 1332.47 102.097 1332.39 102.323C1332.45 102.927 1332.65 103.508 1332.97 104.023C1333.54 104.986 1334.2 105.886 1334.96 106.709C1335.52 107.316 1336.03 107.968 1336.49 108.659C1336.65 108.812 1336.45 109.35 1336.17 109.733C1335.88 110.115 1334.96 110.515 1333.24 110.799C1331.6 111.099 1329.91 110.969 1328.34 110.422C1326.12 109.671 1324.1 108.448 1322.4 106.838C1320.82 105.488 1319.11 104.312 1317.28 103.331C1315.96 102.893 1314.57 102.711 1313.18 102.794C1311.94 102.887 1309.58 103.228 1308.19 103.404C1307.1 103.626 1305.99 103.788 1304.89 103.89C1304.6 103.837 1304.34 103.675 1304.16 103.436C1303.98 103.264 1304.43 102.423 1304.95 101.719C1305.54 100.999 1306.18 100.323 1306.86 99.6941C1308.43 98.5807 1310.08 97.5735 1311.79 96.6794C1315.11 94.7935 1315.82 94.2413 1315.94 93.5479C1315.99 92.8216 1315.93 92.0916 1315.76 91.3836C1314.78 89.3629 1313.64 87.4286 1312.33 85.6018C1310.65 83.362 1309.26 80.9231 1308.19 78.3408C1307.55 76.4406 1307.09 74.4864 1306.8 72.5024C1306.6 70.4735 1306.52 68.4347 1306.56 66.3962C1306.63 64.6024 1306.79 62.8138 1307.06 61.0383Z" fill="url(#paint32_radial_739_206)"/>
<path d="M1008.12 664.622C1009.8 663.418 1011.57 662.346 1013.42 661.416C1014.6 660.76 1015.88 660.308 1017.21 660.078C1017.88 660.078 1018.24 660.301 1018.21 660.663C1017.97 661.369 1017.58 662.015 1017.07 662.559C1016.36 663.417 1015.75 664.352 1015.26 665.347C1014.76 666.601 1014.38 667.898 1014.11 669.221C1013.64 670.803 1013.64 672.491 1014.11 674.072C1014.6 676.043 1014.94 678.046 1015.15 680.066C1015.35 681.919 1015.35 683.788 1015.15 685.641C1014.84 687.453 1014.87 687.927 1015.4 688.429C1015.9 688.886 1016.47 689.253 1017.1 689.516C1017.68 689.767 1019.13 690.269 1020.25 690.631C1021.58 691.03 1022.78 691.77 1023.73 692.778C1024.32 693.302 1024.79 693.949 1025.1 694.673C1025.1 694.952 1024.51 695.091 1023.43 695.036C1022.34 694.98 1019.5 695.036 1016.71 695.259C1013.81 695.455 1010.91 695.455 1008.01 695.259C1006.05 695.304 1004.12 694.802 1002.43 693.809C1000.71 692.882 998.811 692.313 996.859 692.136C994.852 691.858 993.012 691.551 992.761 691.467C992.64 691.381 992.539 691.268 992.467 691.138C992.395 691.008 992.352 690.863 992.343 690.715C992.343 690.408 993.179 689.795 994.127 689.405C995.075 689.014 997.361 688.15 999.061 687.537C1001.85 686.589 1002.29 686.31 1002.82 685.195C1003.27 684.1 1003.43 682.912 1003.3 681.738C1003.3 680.54 1002.94 677.808 1002.63 675.689C1002.31 674.055 1002.25 672.379 1002.46 670.727C1002.91 669.731 1003.48 668.795 1004.16 667.939C1005.34 666.678 1006.67 665.564 1008.12 664.622Z" fill="url(#paint33_radial_739_206)"/>
<path d="M842.949 797.651C844.433 796.117 846.026 794.691 847.716 793.386C848.796 792.495 850.022 791.796 851.34 791.323C852.009 791.323 852.399 791.323 852.455 791.741C852.316 792.495 852.032 793.215 851.619 793.86C851.082 794.882 850.652 795.956 850.336 797.066C850.066 798.435 849.916 799.825 849.89 801.22C849.754 802.924 850.122 804.63 850.95 806.126C851.758 808.017 852.456 809.953 853.041 811.924C853.648 813.786 854.032 815.714 854.184 817.667C854.184 819.563 854.351 820.037 854.992 820.455C855.587 820.817 856.236 821.081 856.916 821.235C857.557 821.375 859.118 821.626 860.316 821.765C861.74 821.918 863.096 822.447 864.247 823.298C865.195 823.94 865.976 824.692 866.003 824.971C866.031 825.25 865.502 825.473 864.387 825.64C863.271 825.807 860.4 826.421 857.585 827.145C854.685 827.873 851.743 828.423 848.775 828.79C846.786 829.197 844.723 829.052 842.81 828.372C840.872 827.727 838.818 827.509 836.788 827.731C834.725 827.731 832.774 827.731 832.495 827.731C832.356 827.664 832.234 827.566 832.137 827.446C832.041 827.325 831.972 827.184 831.938 827.034C831.938 826.727 832.607 825.947 833.527 825.361C834.446 824.776 836.537 823.494 838.182 822.574C840.803 821.068 841.221 820.734 841.555 819.507C841.786 818.31 841.719 817.076 841.36 815.911C841.081 814.684 840.273 811.98 839.576 809.862C838.918 808.276 838.54 806.587 838.461 804.872C838.724 803.784 839.127 802.734 839.66 801.749C840.584 800.253 841.688 798.877 842.949 797.651Z" fill="url(#paint34_radial_739_206)"/>
<path d="M520.439 398.534C519.66 397.16 519.042 395.701 518.599 394.185C518.331 393.423 518.18 392.624 518.153 391.816C518.153 391.816 518.822 392.039 519.491 392.541C520.868 393.465 522.334 394.249 523.867 394.882C525.67 395.691 527.534 396.353 529.443 396.862C530.865 397.142 532.32 397.217 533.764 397.085C535.276 396.943 536.801 397.046 538.28 397.391C539.618 397.698 541.988 398.255 543.549 398.674C544.912 399.032 546.324 399.164 547.73 399.064C548.901 398.813 549.18 398.506 549.793 397.252C550.391 395.771 550.821 394.228 551.076 392.652C551.359 391.246 551.536 389.82 551.605 388.387C551.459 387.073 551.188 385.775 550.797 384.512C550.452 383.618 550.237 382.679 550.156 381.724C550.156 381.557 550.574 381.724 550.825 381.724C551.413 382.386 551.918 383.116 552.33 383.899C553.093 385.372 553.745 386.9 554.281 388.471C554.783 390.004 555.48 392.513 555.815 394.046C556.104 395.734 556.104 397.459 555.815 399.148C555.646 399.975 555.646 400.829 555.815 401.656C555.815 401.656 556.79 401.322 557.682 400.709C558.495 400.154 559.343 399.651 560.219 399.203C560.916 398.925 561.056 398.98 560.916 399.454C560.777 399.928 559.271 402.688 557.571 405.95C556.453 408.463 555.019 410.823 553.306 412.975C552.09 413.958 550.772 414.809 549.375 415.511C548.419 416.135 547.331 416.526 546.197 416.654C546.038 416.463 545.925 416.238 545.867 415.997C545.809 415.755 545.807 415.503 545.862 415.261C545.862 414.647 546.113 413.644 546.281 412.919C546.358 412.499 546.338 412.067 546.222 411.656C546.106 411.245 545.897 410.867 545.612 410.549C545.025 409.797 544.245 409.218 543.354 408.877C541.939 408.482 540.473 408.303 539.005 408.347C537.245 408.368 535.488 408.2 533.764 407.845C531.954 407.352 530.199 406.68 528.523 405.838C526.712 405.072 525.065 403.965 523.672 402.576C522.435 401.365 521.349 400.007 520.439 398.534Z" fill="url(#paint35_radial_739_206)"/>
<path d="M1323.14 394.703C1324.39 392.106 1325.83 389.6 1327.43 387.204C1328.44 385.61 1329.7 384.189 1331.17 382.994C1332 382.576 1332.56 382.576 1332.78 382.994C1332.97 384.014 1332.92 385.062 1332.64 386.061C1332.38 387.607 1332.29 389.178 1332.39 390.744C1332.6 392.639 1333 394.508 1333.59 396.319C1334.14 398.568 1335.35 400.604 1337.05 402.174C1338.94 404.268 1340.71 406.475 1342.35 408.781C1343.91 410.912 1345.23 413.212 1346.28 415.638C1347.11 418.064 1347.5 418.621 1348.48 418.872C1349.39 419.084 1350.33 419.14 1351.27 419.039C1352.13 419.039 1354.25 418.593 1355.84 418.259C1357.73 417.853 1359.7 417.949 1361.55 418.538C1362.63 418.773 1363.63 419.239 1364.51 419.904C1364.68 420.294 1364.09 420.796 1362.7 421.493C1361.3 422.189 1357.96 424.28 1354.67 426.343C1351.27 428.528 1347.73 430.492 1344.07 432.225C1341.7 433.598 1338.99 434.292 1336.24 434.232C1333.49 434.26 1330.78 434.858 1328.27 435.989C1325.65 436.992 1323.17 437.884 1322.69 437.94C1322.49 437.92 1322.29 437.852 1322.11 437.74C1321.94 437.629 1321.79 437.477 1321.69 437.299C1321.52 436.936 1322.08 435.626 1323 434.511C1323.92 433.396 1326.07 430.776 1327.74 428.936C1330.53 425.897 1330.83 425.256 1330.75 423.555C1330.54 421.915 1329.93 420.353 1328.96 419.011C1328.1 417.59 1325.87 414.467 1324.09 412.07C1322.58 410.306 1321.36 408.311 1320.49 406.16C1320.38 404.642 1320.46 403.117 1320.71 401.616C1321.25 399.224 1322.06 396.903 1323.14 394.703Z" fill="url(#paint36_radial_739_206)"/>
<path d="M742.832 288.548C742.053 287.174 741.435 285.715 740.992 284.199C740.724 283.437 740.573 282.638 740.546 281.83C740.546 281.83 741.215 282.053 741.884 282.555C743.261 283.479 744.727 284.263 746.26 284.896C748.063 285.705 749.927 286.367 751.836 286.876C753.258 287.156 754.713 287.231 756.157 287.099C757.669 286.957 759.194 287.06 760.673 287.405C762.011 287.712 764.381 288.27 765.942 288.688C767.305 289.046 768.717 289.178 770.123 289.078C771.294 288.827 771.573 288.52 772.186 287.266C772.784 285.785 773.214 284.242 773.469 282.666C773.752 281.26 773.929 279.834 773.998 278.401C773.852 277.087 773.582 275.789 773.19 274.526C772.846 273.632 772.63 272.693 772.549 271.738C772.549 271.571 772.967 271.738 773.218 271.738C773.806 272.4 774.311 273.13 774.723 273.913C775.486 275.386 776.138 276.914 776.674 278.485C777.176 280.018 777.873 282.527 778.208 284.06C778.497 285.748 778.497 287.473 778.208 289.162C778.039 289.989 778.039 290.843 778.208 291.671C778.208 291.671 779.183 291.336 780.076 290.723C780.888 290.168 781.736 289.665 782.612 289.217C783.309 288.939 783.449 288.994 783.309 289.468C783.17 289.942 781.664 292.702 779.964 295.964C778.846 298.477 777.412 300.837 775.699 302.989C774.483 303.972 773.165 304.823 771.768 305.525C770.812 306.149 769.724 306.54 768.59 306.668C768.431 306.477 768.318 306.252 768.26 306.011C768.202 305.769 768.2 305.517 768.256 305.275C768.256 304.661 768.506 303.658 768.674 302.933C768.751 302.513 768.731 302.081 768.615 301.67C768.499 301.259 768.29 300.881 768.005 300.563C767.418 299.811 766.638 299.232 765.747 298.891C764.332 298.496 762.866 298.318 761.398 298.361C759.638 298.382 757.881 298.214 756.157 297.859C754.347 297.366 752.592 296.694 750.916 295.852C749.105 295.086 747.458 293.979 746.065 292.59C744.828 291.379 743.742 290.022 742.832 288.548Z" fill="url(#paint37_radial_739_206)"/>
<path d="M559.244 628.967C560.543 626.38 562.014 623.884 563.648 621.496C564.698 619.913 565.986 618.503 567.467 617.314C568.304 616.924 568.889 616.924 569.084 617.314C569.252 618.345 569.195 619.401 568.917 620.408C568.657 621.974 568.582 623.564 568.694 625.147C568.895 627.038 569.277 628.905 569.837 630.723C570.362 632.987 571.534 635.05 573.21 636.661C575.094 638.78 576.844 641.015 578.451 643.351C579.984 645.517 581.274 647.845 582.298 650.293C583.106 652.746 583.497 653.303 584.472 653.582C585.386 653.792 586.326 653.858 587.26 653.777C588.152 653.777 590.271 653.359 591.86 653.052C593.773 652.669 595.753 652.794 597.603 653.415C598.686 653.648 599.699 654.135 600.558 654.837C600.725 655.199 600.112 655.729 598.718 656.37C597.324 657.011 593.923 659.158 590.605 661.137C587.147 663.307 583.552 665.253 579.845 666.963C577.44 668.314 574.712 668.979 571.956 668.887C569.192 668.876 566.457 669.446 563.927 670.559C561.139 671.535 558.77 672.371 558.352 672.427C558.141 672.411 557.938 672.342 557.762 672.224C557.586 672.107 557.443 671.947 557.348 671.758C557.181 671.396 557.766 670.113 558.686 668.97C559.606 667.827 561.836 665.291 563.537 663.395C566.324 660.384 566.715 659.743 566.631 658.015C566.442 656.371 565.848 654.8 564.903 653.443C564.039 651.993 561.864 648.843 560.08 646.39C558.596 644.603 557.41 642.588 556.567 640.424C556.472 638.894 556.565 637.359 556.846 635.852C557.37 633.47 558.175 631.159 559.244 628.967Z" fill="url(#paint38_radial_739_206)"/>
<path d="M1189.4 834.391C1190.7 831.805 1192.17 829.309 1193.8 826.92C1194.85 825.338 1196.14 823.927 1197.62 822.738C1198.46 822.348 1199.04 822.348 1199.24 822.738C1199.4 823.77 1199.35 824.825 1199.07 825.833C1198.81 827.398 1198.73 828.989 1198.85 830.572C1199.05 832.463 1199.43 834.33 1199.99 836.147C1200.51 838.412 1201.69 840.475 1203.36 842.085C1205.25 844.205 1207 846.439 1208.6 848.776C1210.14 850.942 1211.43 853.269 1212.45 855.717C1213.26 858.17 1213.65 858.728 1214.62 859.006C1215.54 859.216 1216.48 859.282 1217.41 859.202C1218.3 859.202 1220.42 858.783 1222.01 858.477C1223.93 858.093 1225.91 858.218 1227.75 858.839C1228.84 859.072 1229.85 859.56 1230.71 860.261C1230.88 860.623 1230.26 861.153 1228.87 861.794C1227.48 862.435 1224.08 864.582 1220.76 866.561C1217.3 868.731 1213.7 870.677 1210 872.387C1207.59 873.738 1204.86 874.403 1202.11 874.311C1199.34 874.3 1196.61 874.87 1194.08 875.984C1191.29 876.959 1188.92 877.796 1188.5 877.851C1188.29 877.836 1188.09 877.766 1187.91 877.649C1187.74 877.531 1187.6 877.371 1187.5 877.182C1187.33 876.82 1187.92 875.538 1188.84 874.395C1189.76 873.252 1191.99 870.715 1193.69 868.819C1196.48 865.808 1196.87 865.167 1196.78 863.439C1196.59 861.796 1196 860.225 1195.05 858.867C1194.19 857.417 1192.02 854.267 1190.23 851.814C1188.75 850.027 1187.56 848.013 1186.72 845.848C1186.62 844.319 1186.72 842.783 1187 841.277C1187.52 838.895 1188.33 836.583 1189.4 834.391Z" fill="url(#paint39_radial_739_206)"/>
<path d="M1339.46 202.072C1341.05 200.562 1342.75 199.165 1344.54 197.891C1345.69 197.031 1346.97 196.362 1348.33 195.912C1349.03 195.912 1349.44 195.912 1349.47 196.385C1349.31 197.16 1348.99 197.892 1348.52 198.532C1347.92 199.563 1347.44 200.657 1347.07 201.794C1346.74 203.175 1346.53 204.584 1346.46 206.003C1346.24 207.752 1346.54 209.527 1347.32 211.105C1348.1 213.108 1348.75 215.156 1349.28 217.238C1349.81 219.177 1350.12 221.168 1350.22 223.175C1350.22 225.127 1350.22 225.629 1350.92 225.963C1351.52 226.36 1352.18 226.652 1352.87 226.827C1353.51 226.995 1355.1 227.329 1356.33 227.524C1357.78 227.751 1359.16 228.346 1360.32 229.253C1361.02 229.71 1361.61 230.32 1362.04 231.037C1362.04 231.343 1361.49 231.566 1360.34 231.678C1359.2 231.789 1356.22 232.319 1353.32 232.932C1350.3 233.561 1347.25 233.998 1344.17 234.243C1342.11 234.587 1340 234.345 1338.07 233.546C1336.11 232.821 1334.02 232.517 1331.94 232.654C1329.79 232.654 1327.81 232.654 1327.53 232.654C1327.39 232.59 1327.26 232.49 1327.16 232.363C1327.06 232.236 1327 232.087 1326.97 231.929C1326.97 231.622 1327.7 230.842 1328.67 230.284C1329.65 229.727 1331.85 228.472 1333.58 227.496C1336.37 226.075 1336.76 225.74 1337.15 224.486C1337.46 223.269 1337.46 221.995 1337.15 220.778C1336.93 219.524 1336.2 216.708 1335.56 214.506C1334.97 212.849 1334.65 211.107 1334.61 209.348C1334.94 208.243 1335.41 207.184 1336.01 206.198C1336.98 204.684 1338.14 203.298 1339.46 202.072Z" fill="url(#paint40_radial_739_206)"/>
<path d="M1367.14 602.007C1366.36 600.633 1365.74 599.174 1365.3 597.658C1365.03 596.895 1364.88 596.096 1364.85 595.288C1364.85 595.288 1365.52 595.511 1366.19 596.013C1367.57 596.937 1369.03 597.722 1370.57 598.355C1372.37 599.164 1374.23 599.826 1376.14 600.334C1377.56 600.615 1379.02 600.69 1380.46 600.557C1381.97 600.415 1383.5 600.519 1384.98 600.864C1386.32 601.17 1388.69 601.728 1390.25 602.146C1391.61 602.504 1393.02 602.636 1394.43 602.536C1395.6 602.286 1395.88 601.979 1396.49 600.724C1397.09 599.244 1397.52 597.701 1397.77 596.125C1398.06 594.718 1398.23 593.292 1398.3 591.859C1398.16 590.545 1397.89 589.248 1397.49 587.985C1397.15 587.09 1396.93 586.152 1396.85 585.197C1396.85 585.03 1397.27 585.197 1397.52 585.197C1398.11 585.858 1398.62 586.588 1399.03 587.371C1399.79 588.845 1400.44 590.373 1400.98 591.943C1401.48 593.476 1402.18 595.985 1402.51 597.519C1402.8 599.207 1402.8 600.932 1402.51 602.62C1402.34 603.448 1402.34 604.301 1402.51 605.129C1402.51 605.129 1403.49 604.794 1404.38 604.181C1405.19 603.626 1406.04 603.123 1406.92 602.676C1407.61 602.397 1407.75 602.453 1407.61 602.927C1407.47 603.401 1405.97 606.16 1404.27 609.422C1403.15 611.935 1401.72 614.296 1400 616.447C1398.79 617.431 1397.47 618.281 1396.07 618.984C1395.12 619.607 1394.03 619.998 1392.89 620.127C1392.74 619.936 1392.62 619.711 1392.56 619.469C1392.51 619.227 1392.51 618.976 1392.56 618.733C1392.56 618.12 1392.81 617.116 1392.98 616.391C1393.06 615.972 1393.04 615.54 1392.92 615.129C1392.8 614.718 1392.59 614.339 1392.31 614.022C1391.72 613.269 1390.94 612.691 1390.05 612.349C1388.64 611.955 1387.17 611.776 1385.7 611.82C1383.94 611.84 1382.19 611.672 1380.46 611.318C1378.65 610.825 1376.9 610.152 1375.22 609.311C1373.41 608.544 1371.76 607.437 1370.37 606.049C1369.13 604.837 1368.05 603.48 1367.14 602.007Z" fill="url(#paint41_radial_739_206)"/>
<path d="M17.4272 227.964C18.8857 226.5 20.4927 225.192 22.2221 224.061C23.0843 223.48 24.0223 223.02 25.0098 222.695C25.2049 222.695 25.0097 223.615 24.5916 224.618C23.9146 226.675 23.4476 228.795 23.1977 230.946C22.8356 233.467 22.6678 236.011 22.696 238.557C22.841 240.466 23.2636 242.345 23.9504 244.132C24.6566 245.979 25.0613 247.928 25.1492 249.903C25.1492 251.687 25.3722 254.865 25.4279 256.956C25.4737 258.794 25.8222 260.611 26.4594 262.336C27.1842 263.702 27.6302 263.953 29.4422 264.287C31.5084 264.511 33.5927 264.511 35.6588 264.287C37.5336 264.131 39.396 263.851 41.2342 263.451C42.8232 262.801 44.345 261.999 45.7782 261.054C46.8171 260.286 47.963 259.676 49.1793 259.242C49.4301 259.242 49.458 259.688 49.3465 260.078C48.7379 261.092 48.0077 262.029 47.1721 262.866C45.5852 264.339 43.8891 265.69 42.0985 266.908C40.0149 268.334 37.8559 269.646 35.631 270.839C33.6398 271.859 31.4912 272.538 29.275 272.846C28.1718 272.873 27.0839 273.109 26.0691 273.543C26.0691 273.738 26.8497 274.658 27.9369 275.578C28.9259 276.385 29.8574 277.261 30.7246 278.198C31.31 279.007 31.31 279.146 30.7246 279.146C30.1392 279.146 26.0691 278.254 21.3857 277.306C17.8391 276.794 14.3668 275.858 11.0433 274.518C9.38087 273.347 7.84819 272.001 6.47144 270.504C5.35868 269.512 4.48232 268.283 3.90675 266.908C3.90675 266.518 4.7431 266.099 5.55154 265.988C6.35997 265.876 7.67017 265.737 8.618 265.681C9.17814 265.629 9.71934 265.451 10.2018 265.162C10.6842 264.872 11.0956 264.478 11.4057 264.009C12.112 262.99 12.5528 261.812 12.6881 260.58C12.6717 258.685 12.3614 256.804 11.7681 255.004C11.153 252.809 10.7515 250.559 10.5694 248.286C10.5499 245.836 10.7647 243.391 11.2106 240.982C11.5365 238.43 12.3404 235.961 13.5801 233.706C14.6258 231.644 15.9176 229.715 17.4272 227.964Z" fill="url(#paint42_radial_739_206)"/>
<path d="M195.921 728.906C197.052 727.845 198.295 726.911 199.628 726.119C200.298 725.677 201.032 725.338 201.803 725.115C201.803 725.115 201.803 725.812 201.468 726.565C200.907 728.126 200.514 729.743 200.297 731.387C199.977 733.304 199.809 735.243 199.796 737.186C199.875 738.624 200.167 740.042 200.66 741.395C201.171 742.818 201.444 744.316 201.468 745.828C201.468 747.194 201.468 749.591 201.468 751.208C201.48 752.612 201.716 754.004 202.165 755.334C202.695 756.393 203.029 756.588 204.423 756.867C205.999 757.029 207.587 757.029 209.162 756.867C210.585 756.766 212 756.58 213.4 756.31C214.615 755.817 215.789 755.23 216.912 754.553C217.712 753.975 218.595 753.524 219.533 753.215C219.728 753.215 219.728 753.578 219.533 753.856C219.045 754.588 218.474 755.262 217.832 755.864C216.669 756.979 215.43 758.013 214.124 758.958C212.491 759.973 210.807 760.903 209.079 761.746C207.548 762.505 205.897 762.996 204.2 763.195C203.355 763.174 202.516 763.346 201.747 763.697C201.747 763.697 202.305 764.533 203.141 765.258C203.876 765.887 204.565 766.567 205.204 767.293C205.65 767.906 205.65 768.046 205.204 768.018C204.758 767.99 201.691 767.265 198.123 766.457C195.431 765.991 192.802 765.215 190.289 764.143C189 763.213 187.821 762.137 186.777 760.937C185.634 759.711 184.77 758.428 184.881 758.149C184.993 757.871 185.522 757.564 186.136 757.48C186.749 757.397 187.753 757.313 188.477 757.285C188.901 757.255 189.311 757.13 189.679 756.917C190.046 756.704 190.36 756.411 190.596 756.059C191.164 755.299 191.529 754.406 191.655 753.466C191.666 751.994 191.459 750.529 191.042 749.117C190.596 747.44 190.325 745.721 190.234 743.988C190.246 742.113 190.452 740.245 190.847 738.412C191.117 736.45 191.76 734.557 192.743 732.837C193.653 731.413 194.719 730.095 195.921 728.906Z" fill="url(#paint43_radial_739_206)"/>
<path d="M1178.08 11.8033C1178.18 10.294 1178.43 8.79871 1178.84 7.34291C1179.02 6.59328 1179.32 5.87791 1179.73 5.22431C1179.87 5.22431 1180.15 5.72602 1180.43 6.45082C1181.05 7.91986 1181.83 9.32099 1182.74 10.6324C1183.77 12.2066 1184.91 13.6979 1186.17 15.0928C1187.17 16.0495 1188.29 16.8654 1189.51 17.5181C1190.81 18.1905 1191.98 19.0658 1193 20.1107C1193.92 21.0585 1195.54 22.7311 1196.6 23.874C1197.51 24.8734 1198.58 25.7121 1199.77 26.3551C1200.83 26.7454 1201.19 26.6618 1202.37 25.9648C1203.61 25.0822 1204.75 24.063 1205.77 22.9262C1206.76 21.9333 1207.69 20.8813 1208.55 19.7761C1209.1 18.6377 1209.55 17.453 1209.89 16.2357C1210.1 15.3128 1210.42 14.4219 1210.87 13.5875C1211.06 13.5875 1211.26 13.5874 1211.37 13.9777C1211.48 14.8105 1211.48 15.6538 1211.37 16.4866C1211.21 18.0751 1210.93 19.6496 1210.53 21.1979C1210.08 22.9908 1209.53 24.7587 1208.89 26.4945C1208.29 28.0321 1207.43 29.4558 1206.35 30.704C1205.52 31.6239 1204.85 32.4881 1204.93 32.6554C1205.57 32.889 1206.26 32.9561 1206.94 32.8505C1207.87 32.784 1208.8 32.784 1209.73 32.8505C1210.42 32.9899 1210.51 33.0735 1210.17 33.4081C1209.84 33.7426 1207.16 35.1643 1204.09 36.8927C1201.89 38.3407 1199.51 39.5111 1197.01 40.3773C1195.52 40.5308 1194.02 40.5308 1192.53 40.3773C1191.42 40.3969 1190.33 40.1481 1189.35 39.6525C1189.33 39.4173 1189.36 39.181 1189.44 38.9598C1189.53 38.7385 1189.65 38.5375 1189.82 38.3702C1190.21 37.9242 1190.88 37.1715 1191.35 36.6975C1191.63 36.3976 1191.84 36.0397 1191.97 35.6494C1192.09 35.2591 1192.13 34.846 1192.08 34.4395C1191.98 33.5289 1191.65 32.6575 1191.13 31.9027C1190.18 30.8259 1189.08 29.8876 1187.87 29.115C1186.45 28.2151 1185.14 27.1686 1183.94 25.9927C1182.72 24.6589 1181.65 23.2013 1180.73 21.6439C1179.68 20.0878 1178.92 18.3482 1178.5 16.5145C1178.2 14.9634 1178.06 13.3841 1178.08 11.8033Z" fill="url(#paint44_radial_739_206)"/>
<path d="M102.034 58.1726C102.869 57.2614 103.804 56.4477 104.822 55.7473C105.316 55.3754 105.861 55.0751 106.439 54.8552C106.439 54.8552 106.439 55.3849 106.244 55.9982C105.908 57.2183 105.702 58.4704 105.63 59.7337C105.507 61.218 105.507 62.7099 105.63 64.1941C105.762 65.3021 106.063 66.3833 106.522 67.3999C106.983 68.4534 107.275 69.573 107.387 70.7173C107.387 71.7767 107.693 73.5051 107.777 74.8432C107.871 75.9157 108.124 76.968 108.53 77.9654C109.003 78.746 109.282 78.8854 110.369 79.0248C111.573 79.0739 112.778 78.9991 113.966 78.8017C115.056 78.657 116.136 78.4429 117.199 78.1606C118.105 77.7121 118.972 77.1898 119.792 76.5994C120.375 76.1213 121.023 75.7272 121.715 75.4286C121.883 75.4286 121.911 75.7073 121.715 75.9304C121.399 76.5193 121.005 77.0631 120.545 77.5473C119.675 78.4561 118.743 79.3037 117.757 80.084C116.781 80.8367 115.136 81.9518 114.105 82.5651C112.966 83.2287 111.721 83.6908 110.425 83.9311C109.782 83.9814 109.156 84.1616 108.585 84.4607C108.585 84.4607 109.059 85.074 109.728 85.5758C110.33 86.0274 110.907 86.5113 111.457 87.0255C111.819 87.4715 111.819 87.5551 111.457 87.583C111.094 87.6109 108.669 87.1928 105.881 86.7746C103.789 86.5871 101.728 86.1375 99.7482 85.4365C98.7363 84.8027 97.8009 84.0544 96.9605 83.2063C96.2798 82.665 95.7276 81.9795 95.3436 81.1992C95.4489 81.0379 95.5884 80.9019 95.7522 80.8007C95.916 80.6995 96.1002 80.6356 96.2915 80.6137C96.7375 80.6137 97.5181 80.3907 98.0756 80.335C98.3974 80.2832 98.704 80.1615 98.9737 79.9785C99.2434 79.7955 99.4697 79.5556 99.6367 79.2756C100.015 78.6606 100.235 77.9614 100.278 77.2406C100.209 76.1157 99.9746 75.0071 99.581 73.9511C99.1441 72.6843 98.8359 71.3768 98.661 70.0483C98.5713 68.6153 98.6274 67.1769 98.8283 65.7552C98.9363 64.2562 99.324 62.7907 99.9712 61.4343C100.532 60.272 101.224 59.1776 102.034 58.1726Z" fill="url(#paint45_radial_739_206)"/>
<path d="M787.613 363.771C788.514 362.943 789.495 362.206 790.54 361.569C790.926 361.368 791.359 361.271 791.794 361.29C791.473 362.536 790.935 363.715 790.205 364.775C789.076 366.617 788.23 368.619 787.696 370.713C787.305 372.172 786.998 373.651 786.777 375.145C786.777 376.205 786.581 378.212 786.581 379.606C786.557 381.659 786.39 383.708 786.08 385.739C785.801 387.718 785.188 390.868 784.741 392.652C784.34 394.405 783.847 396.136 783.264 397.837C782.939 398.557 782.759 399.334 782.734 400.123C783.409 400.818 784.19 401.402 785.048 401.852C786.143 402.506 787.146 403.303 788.031 404.221C788.487 404.715 788.804 405.321 788.951 405.977C788.928 406.367 788.853 406.751 788.728 407.12C788.304 407.637 787.758 408.039 787.139 408.291C786.417 408.644 785.765 409.126 785.215 409.713C784.75 410.484 784.536 411.38 784.602 412.278C784.672 413.967 784.982 415.638 785.522 417.24C786.03 418.842 786.626 420.414 787.306 421.951C787.78 422.871 788.031 423.624 787.836 423.652C786.975 423.244 786.199 422.676 785.55 421.979C784.435 421.003 782.929 419.498 782.121 418.634C781.276 417.716 780.511 416.727 779.835 415.679C779.253 414.648 778.768 413.565 778.385 412.445C777.945 411.052 777.618 409.626 777.41 408.18C777.075 405.838 777.047 405.782 775.598 404.667C774.495 403.8 773.443 402.869 772.448 401.879C771.337 400.658 770.155 399.504 768.907 398.423C768.078 397.761 767.321 397.014 766.649 396.193C766.454 395.886 766.398 395.496 766.649 395.412C767.207 395.235 767.794 395.169 768.378 395.217C769.744 395.258 771.105 395.407 772.448 395.663C774.678 396.053 775.096 396.053 775.514 395.663C775.863 395.155 776.118 394.588 776.267 393.99C776.406 393.433 777.047 389.558 778.72 377.877L780.922 373.389C781.776 371.21 782.95 369.171 784.407 367.34C785.104 366.225 786.581 364.747 787.613 363.771Z" fill="url(#paint46_radial_739_206)"/>
<path d="M103.452 821.542C103.958 820.398 104.604 819.321 105.376 818.336C105.794 817.89 106.296 817.556 106.463 817.583C106.604 818.887 106.538 820.204 106.268 821.486C105.94 823.667 105.94 825.885 106.268 828.065C106.435 829.515 106.825 831.55 107.076 832.609C107.327 833.669 108.052 835.564 108.581 836.875C109.327 838.829 109.942 840.832 110.421 842.868C110.895 844.847 111.509 848.053 111.787 849.921C112.066 851.789 112.289 854.27 112.317 855.496C112.281 856.305 112.414 857.112 112.707 857.866C113.594 858.254 114.534 858.507 115.495 858.619C116.783 858.826 118.039 859.201 119.231 859.734C119.857 860.002 120.383 860.461 120.736 861.044C120.885 861.406 120.961 861.795 120.959 862.187C120.77 862.842 120.414 863.438 119.927 863.915C119.381 864.527 118.939 865.224 118.617 865.978C118.49 866.88 118.626 867.8 119.008 868.627C119.715 870.207 120.654 871.673 121.795 872.975C122.88 874.308 124.044 875.574 125.28 876.767C126.06 877.464 126.562 878.077 126.395 878.188C125.431 878.11 124.488 877.865 123.607 877.464C122.186 876.962 120.178 876.098 119.091 875.596C117.95 875.041 116.858 874.388 115.83 873.644C114.891 872.899 114.023 872.068 113.237 871.163C112.298 870.004 111.45 868.773 110.7 867.484C109.501 865.393 109.446 865.337 107.634 864.835C106.241 864.402 104.881 863.871 103.564 863.246C102.055 862.512 100.5 861.879 98.9081 861.351C97.8738 861.023 96.8747 860.593 95.9253 860.068C95.6465 859.873 95.4513 859.511 95.5629 859.371C96.0299 859.003 96.5584 858.72 97.124 858.535C98.4324 858.064 99.7742 857.691 101.138 857.42C103.424 856.946 103.926 856.779 103.926 856.11C104.028 855.501 104.028 854.879 103.926 854.27C103.926 853.684 102.978 849.782 100.163 838.101L100.553 833.027C100.547 830.638 100.895 828.262 101.584 825.975C102.002 824.804 102.811 822.852 103.452 821.542Z" fill="url(#paint47_radial_739_206)"/>
<path d="M319.333 426.858C319.766 425.444 320.364 424.087 321.117 422.815C321.563 422.23 322.065 421.756 322.26 421.756C322.655 423.255 322.778 424.813 322.622 426.356C322.544 428.958 322.835 431.558 323.487 434.078C323.905 435.778 324.685 438.092 325.131 439.291C325.577 440.49 326.72 442.608 327.557 444.058C328.724 446.242 329.758 448.495 330.651 450.804C331.515 453.062 332.714 456.714 333.439 458.861C334.163 461.007 334.721 463.878 334.916 465.161C334.983 466.137 335.258 467.088 335.725 467.949C336.837 468.278 337.993 468.438 339.153 468.422C340.693 468.447 342.222 468.681 343.697 469.119C344.463 469.369 345.147 469.822 345.677 470.43C346.046 470.975 346.196 471.639 346.098 472.289C346 472.94 345.66 473.53 345.147 473.942C344.599 474.74 344.193 475.626 343.948 476.563C343.922 477.64 344.224 478.699 344.813 479.601C345.873 481.34 347.188 482.909 348.715 484.257C350.175 485.672 351.731 486.986 353.371 488.187C354.402 488.856 355.099 489.525 354.904 489.665C353.763 489.747 352.617 489.605 351.531 489.247C349.775 488.884 347.294 488.187 345.955 487.741C344.533 487.275 343.152 486.687 341.83 485.985C340.605 485.243 339.448 484.394 338.373 483.448C337.108 482.225 335.934 480.911 334.86 479.518C333.132 477.259 333.048 477.232 330.874 476.925C329.176 476.616 327.5 476.197 325.856 475.671C323.974 475.045 322.056 474.533 320.113 474.137C318.857 473.922 317.625 473.586 316.434 473.134C316.043 472.939 315.765 472.548 315.876 472.353C316.364 471.844 316.94 471.429 317.577 471.127C319.04 470.379 320.56 469.745 322.121 469.231C324.713 468.311 325.131 468.06 325.271 467.252C325.314 466.52 325.239 465.785 325.048 465.077C324.88 464.38 323.263 459.948 318.162 446.678L317.827 440.685C317.463 437.905 317.51 435.087 317.967 432.322C318.134 430.9 318.803 428.474 319.333 426.858Z" fill="url(#paint48_radial_739_206)"/>
<path d="M125.698 366.866C125.167 365.194 124.858 363.461 124.778 361.709C124.773 361.08 124.916 360.459 125.196 359.897C125.419 359.729 126.785 361.486 128.625 364.218C130.26 366.855 132.269 369.24 134.591 371.298C136.152 372.692 138.438 374.476 139.664 375.341C140.891 376.205 143.456 377.599 145.24 378.491C147.863 379.854 150.388 381.401 152.795 383.118C155.136 384.763 158.76 387.579 160.767 389.307C162.775 391.035 165.339 393.433 166.343 394.576C167.058 395.473 167.95 396.213 168.963 396.75C170.279 396.335 171.521 395.714 172.643 394.91C174.199 393.933 175.877 393.165 177.633 392.624C178.545 392.373 179.509 392.373 180.421 392.624C180.92 392.869 181.365 393.21 181.731 393.628C182.133 394.499 182.297 395.461 182.205 396.416C182.207 397.572 182.396 398.72 182.762 399.817C183.432 400.889 184.401 401.742 185.55 402.27C187.749 403.291 190.089 403.977 192.492 404.305C194.872 404.703 197.273 404.963 199.684 405.085C201.161 405.085 202.276 405.253 202.221 405.531C201.125 406.36 199.887 406.984 198.569 407.371C196.59 408.152 193.662 409.1 192.073 409.574C190.347 410.042 188.585 410.368 186.805 410.549C185.101 410.623 183.394 410.548 181.703 410.326C179.64 409.963 177.609 409.441 175.626 408.765C172.42 407.678 172.309 407.706 170.051 408.765C168.173 409.584 166.246 410.282 164.28 410.856C161.997 411.484 159.754 412.247 157.562 413.142C156.176 413.769 154.728 414.245 153.241 414.564C152.739 414.564 152.209 414.424 152.181 414.173C152.335 413.346 152.637 412.552 153.073 411.832C154.017 410.111 155.098 408.471 156.307 406.925C158.231 404.305 158.509 403.803 158.091 402.911C157.673 402.137 157.115 401.447 156.446 400.876C155.833 400.318 151.289 397.001 137.462 387.244L133.141 381.669C130.877 379.174 128.998 376.355 127.566 373.306C127.175 371.661 126.256 368.845 125.698 366.866Z" fill="url(#paint49_radial_739_206)"/>
<path d="M31.5569 710.145C32.7308 709.579 33.9654 709.149 35.2367 708.863C35.685 708.749 36.1544 708.749 36.6027 708.863C36.6027 709.002 35.627 710.201 33.815 711.873C32.0784 713.359 30.5749 715.098 29.3546 717.031C28.5017 718.383 27.7201 719.778 27.013 721.212C26.5669 722.244 25.8142 724.223 25.3682 725.617C24.6743 727.685 23.8455 729.706 22.8871 731.666C21.9672 733.562 20.3503 736.517 19.3189 738.189C18.2874 739.862 16.8657 742.008 16.1409 742.928C15.5799 743.55 15.1529 744.281 14.8864 745.075C15.3404 746.083 15.9626 747.007 16.7263 747.807C17.6233 748.817 18.3826 749.942 18.9843 751.152C19.2855 751.795 19.4013 752.51 19.3189 753.215C19.2037 753.607 19.0038 753.969 18.7334 754.274C18.149 754.682 17.4649 754.923 16.7542 754.971C15.9139 755.099 15.1025 755.372 14.3567 755.78C13.6539 756.408 13.1582 757.234 12.935 758.149C12.434 759.869 12.2082 761.656 12.2659 763.446C12.2451 765.233 12.3289 767.021 12.5168 768.798C12.712 769.858 12.712 770.694 12.5168 770.666C11.7845 769.975 11.1887 769.152 10.7606 768.241C9.95214 766.903 8.89281 764.896 8.36314 763.753C7.81308 762.557 7.36544 761.317 7.02504 760.045C6.75953 758.77 6.61024 757.473 6.57901 756.17C6.59693 754.629 6.72737 753.092 6.96929 751.57C7.38744 749.089 7.35957 749.034 6.27236 747.445C5.44536 746.179 4.7094 744.856 4.07006 743.486C3.337 741.895 2.50847 740.349 1.589 738.858C0.953881 737.924 0.421149 736.924 0 735.875C0 735.513 0 735.123 0.139386 735.067C0.769483 735.076 1.39276 735.199 1.97928 735.429C3.33221 735.925 4.64612 736.522 5.90996 737.214C8.0565 738.301 8.44678 738.44 9.06007 738.05C9.56289 737.639 9.99593 737.149 10.3424 736.6C10.6769 736.071 12.5447 732.391 18.0365 721.156L21.6884 717.337C23.2912 715.424 25.1703 713.761 27.2638 712.403C28.2674 711.818 30.191 710.786 31.5569 710.145Z" fill="url(#paint50_radial_739_206)"/>
</g>
<defs>
<radialGradient id="paint0_radial_739_206" cx="0" cy="0" r="1" gradientUnits="userSpaceOnUse" gradientTransform="translate(743 362.901) rotate(90) scale(424 1008.16)">
<stop stop-color="#F5F6F6"/>
<stop offset="1" stop-color="#F5F6F6" stop-opacity="0"/>
</radialGradient>
<radialGradient id="paint1_radial_739_206" cx="0" cy="0" r="1" gradientUnits="userSpaceOnUse" gradientTransform="translate(743 362.901) rotate(90) scale(424 1008.16)">
<stop stop-color="#F5F6F6"/>
<stop offset="1" stop-color="#F5F6F6" stop-opacity="0"/>
</radialGradient>
<radialGradient id="paint2_radial_739_206" cx="0" cy="0" r="1" gradientUnits="userSpaceOnUse" gradientTransform="translate(743 362.901) rotate(90) scale(424 1008.16)">
<stop stop-color="#F5F6F6"/>
<stop offset="1" stop-color="#F5F6F6" stop-opacity="0"/>
</radialGradient>
<radialGradient id="paint3_radial_739_206" cx="0" cy="0" r="1" gradientUnits="userSpaceOnUse" gradientTransform="translate(743 362.901) rotate(90) scale(424 1008.16)">
<stop stop-color="#F5F6F6"/>
<stop offset="1" stop-color="#F5F6F6" stop-opacity="0"/>
</radialGradient>
<radialGradient id="paint4_radial_739_206" cx="0" cy="0" r="1" gradientUnits="userSpaceOnUse" gradientTransform="translate(743 362.901) rotate(90) scale(424 1008.16)">
<stop stop-color="#F5F6F6"/>
<stop offset="1" stop-color="#F5F6F6" stop-opacity="0"/>
</radialGradient>
<radialGradient id="paint5_radial_739_206" cx="0" cy="0" r="1" gradientUnits="userSpaceOnUse" gradientTransform="translate(743 362.901) rotate(90) scale(424 1008.16)">
<stop stop-color="#F5F6F6"/>
<stop offset="1" stop-color="#F5F6F6" stop-opacity="0"/>
</radialGradient>
<radialGradient id="paint6_radial_739_206" cx="0" cy="0" r="1" gradientUnits="userSpaceOnUse" gradientTransform="translate(743 362.901) rotate(90) scale(424 1008.16)">
<stop stop-color="#F5F6F6"/>
<stop offset="1" stop-color="#F5F6F6" stop-opacity="0"/>
</radialGradient>
<radialGradient id="paint7_radial_739_206" cx="0" cy="0" r="1" gradientUnits="userSpaceOnUse" gradientTransform="translate(743 362.901) rotate(90) scale(424 1008.16)">
<stop stop-color="#F5F6F6"/>
<stop offset="1" stop-color="#F5F6F6" stop-opacity="0"/>
</radialGradient>
<radialGradient id="paint8_radial_739_206" cx="0" cy="0" r="1" gradientUnits="userSpaceOnUse" gradientTransform="translate(743 362.901) rotate(90) scale(424 1008.16)">
<stop stop-color="#F5F6F6"/>
<stop offset="1" stop-color="#F5F6F6" stop-opacity="0"/>
</radialGradient>
<radialGradient id="paint9_radial_739_206" cx="0" cy="0" r="1" gradientUnits="userSpaceOnUse" gradientTransform="translate(743 362.901) rotate(90) scale(424 1008.16)">
<stop stop-color="#F5F6F6"/>
<stop offset="1" stop-color="#F5F6F6" stop-opacity="0"/>
</radialGradient>
<radialGradient id="paint10_radial_739_206" cx="0" cy="0" r="1" gradientUnits="userSpaceOnUse" gradientTransform="translate(743 362.901) rotate(90) scale(424 1008.16)">
<stop stop-color="#F5F6F6"/>
<stop offset="1" stop-color="#F5F6F6" stop-opacity="0"/>
</radialGradient>
<radialGradient id="paint11_radial_739_206" cx="0" cy="0" r="1" gradientUnits="userSpaceOnUse" gradientTransform="translate(743 362.901) rotate(90) scale(424 1008.16)">
<stop stop-color="#F5F6F6"/>
<stop offset="1" stop-color="#F5F6F6" stop-opacity="0"/>
</radialGradient>
<radialGradient id="paint12_radial_739_206" cx="0" cy="0" r="1" gradientUnits="userSpaceOnUse" gradientTransform="translate(743 362.901) rotate(90) scale(424 1008.16)">
<stop stop-color="#F5F6F6"/>
<stop offset="1" stop-color="#F5F6F6" stop-opacity="0"/>
</radialGradient>
<radialGradient id="paint13_radial_739_206" cx="0" cy="0" r="1" gradientUnits="userSpaceOnUse" gradientTransform="translate(743 362.901) rotate(90) scale(424 1008.16)">
<stop stop-color="#F5F6F6"/>
<stop offset="1" stop-color="#F5F6F6" stop-opacity="0"/>
</radialGradient>
<radialGradient id="paint14_radial_739_206" cx="0" cy="0" r="1" gradientUnits="userSpaceOnUse" gradientTransform="translate(743 362.901) rotate(90) scale(424 1008.16)">
<stop stop-color="#F5F6F6"/>
<stop offset="1" stop-color="#F5F6F6" stop-opacity="0"/>
</radialGradient>
<radialGradient id="paint15_radial_739_206" cx="0" cy="0" r="1" gradientUnits="userSpaceOnUse" gradientTransform="translate(743 362.901) rotate(90) scale(424 1008.16)">
<stop stop-color="#F5F6F6"/>
<stop offset="1" stop-color="#F5F6F6" stop-opacity="0"/>
</radialGradient>
<radialGradient id="paint16_radial_739_206" cx="0" cy="0" r="1" gradientUnits="userSpaceOnUse" gradientTransform="translate(743 362.901) rotate(90) scale(424 1008.16)">
<stop stop-color="#F5F6F6"/>
<stop offset="1" stop-color="#F5F6F6" stop-opacity="0"/>
</radialGradient>
<radialGradient id="paint17_radial_739_206" cx="0" cy="0" r="1" gradientUnits="userSpaceOnUse" gradientTransform="translate(743 362.901) rotate(90) scale(424 1008.16)">
<stop stop-color="#F5F6F6"/>
<stop offset="1" stop-color="#F5F6F6" stop-opacity="0"/>
</radialGradient>
<radialGradient id="paint18_radial_739_206" cx="0" cy="0" r="1" gradientUnits="userSpaceOnUse" gradientTransform="translate(743 362.901) rotate(90) scale(424 1008.16)">
<stop stop-color="#F5F6F6"/>
<stop offset="1" stop-color="#F5F6F6" stop-opacity="0"/>
</radialGradient>
<radialGradient id="paint19_radial_739_206" cx="0" cy="0" r="1" gradientUnits="userSpaceOnUse" gradientTransform="translate(743 362.901) rotate(90) scale(424 1008.16)">
<stop stop-color="#F5F6F6"/>
<stop offset="1" stop-color="#F5F6F6" stop-opacity="0"/>
</radialGradient>
<radialGradient id="paint20_radial_739_206" cx="0" cy="0" r="1" gradientUnits="userSpaceOnUse" gradientTransform="translate(743 362.901) rotate(90) scale(424 1008.16)">
<stop stop-color="#F5F6F6"/>
<stop offset="1" stop-color="#F5F6F6" stop-opacity="0"/>
</radialGradient>
<radialGradient id="paint21_radial_739_206" cx="0" cy="0" r="1" gradientUnits="userSpaceOnUse" gradientTransform="translate(743 362.901) rotate(90) scale(424 1008.16)">
<stop stop-color="#F5F6F6"/>
<stop offset="1" stop-color="#F5F6F6" stop-opacity="0"/>
</radialGradient>
<radialGradient id="paint22_radial_739_206" cx="0" cy="0" r="1" gradientUnits="userSpaceOnUse" gradientTransform="translate(743 362.901) rotate(90) scale(424 1008.16)">
<stop stop-color="#F5F6F6"/>
<stop offset="1" stop-color="#F5F6F6" stop-opacity="0"/>
</radialGradient>
<radialGradient id="paint23_radial_739_206" cx="0" cy="0" r="1" gradientUnits="userSpaceOnUse" gradientTransform="translate(743 362.901) rotate(90) scale(424 1008.16)">
<stop stop-color="#F5F6F6"/>
<stop offset="1" stop-color="#F5F6F6" stop-opacity="0"/>
</radialGradient>
<radialGradient id="paint24_radial_739_206" cx="0" cy="0" r="1" gradientUnits="userSpaceOnUse" gradientTransform="translate(743 362.901) rotate(90) scale(424 1008.16)">
<stop stop-color="#F5F6F6"/>
<stop offset="1" stop-color="#F5F6F6" stop-opacity="0"/>
</radialGradient>
<radialGradient id="paint25_radial_739_206" cx="0" cy="0" r="1" gradientUnits="userSpaceOnUse" gradientTransform="translate(743 362.901) rotate(90) scale(424 1008.16)">
<stop stop-color="#F5F6F6"/>
<stop offset="1" stop-color="#F5F6F6" stop-opacity="0"/>
</radialGradient>
<radialGradient id="paint26_radial_739_206" cx="0" cy="0" r="1" gradientUnits="userSpaceOnUse" gradientTransform="translate(743 362.901) rotate(90) scale(424 1008.16)">
<stop stop-color="#F5F6F6"/>
<stop offset="1" stop-color="#F5F6F6" stop-opacity="0"/>
</radialGradient>
<radialGradient id="paint27_radial_739_206" cx="0" cy="0" r="1" gradientUnits="userSpaceOnUse" gradientTransform="translate(743 362.901) rotate(90) scale(424 1008.16)">
<stop stop-color="#F5F6F6"/>
<stop offset="1" stop-color="#F5F6F6" stop-opacity="0"/>
</radialGradient>
<radialGradient id="paint28_radial_739_206" cx="0" cy="0" r="1" gradientUnits="userSpaceOnUse" gradientTransform="translate(743 362.901) rotate(90) scale(424 1008.16)">
<stop stop-color="#F5F6F6"/>
<stop offset="1" stop-color="#F5F6F6" stop-opacity="0"/>
</radialGradient>
<radialGradient id="paint29_radial_739_206" cx="0" cy="0" r="1" gradientUnits="userSpaceOnUse" gradientTransform="translate(743 362.901) rotate(90) scale(424 1008.16)">
<stop stop-color="#F5F6F6"/>
<stop offset="1" stop-color="#F5F6F6" stop-opacity="0"/>
</radialGradient>
<radialGradient id="paint30_radial_739_206" cx="0" cy="0" r="1" gradientUnits="userSpaceOnUse" gradientTransform="translate(743 362.901) rotate(90) scale(424 1008.16)">
<stop stop-color="#F5F6F6"/>
<stop offset="1" stop-color="#F5F6F6" stop-opacity="0"/>
</radialGradient>
<radialGradient id="paint31_radial_739_206" cx="0" cy="0" r="1" gradientUnits="userSpaceOnUse" gradientTransform="translate(743 362.901) rotate(90) scale(424 1008.16)">
<stop stop-color="#F5F6F6"/>
<stop offset="1" stop-color="#F5F6F6" stop-opacity="0"/>
</radialGradient>
<radialGradient id="paint32_radial_739_206" cx="0" cy="0" r="1" gradientUnits="userSpaceOnUse" gradientTransform="translate(743 362.901) rotate(90) scale(424 1008.16)">
<stop stop-color="#F5F6F6"/>
<stop offset="1" stop-color="#F5F6F6" stop-opacity="0"/>
</radialGradient>
<radialGradient id="paint33_radial_739_206" cx="0" cy="0" r="1" gradientUnits="userSpaceOnUse" gradientTransform="translate(743 362.901) rotate(90) scale(424 1008.16)">
<stop stop-color="#F5F6F6"/>
<stop offset="1" stop-color="#F5F6F6" stop-opacity="0"/>
</radialGradient>
<radialGradient id="paint34_radial_739_206" cx="0" cy="0" r="1" gradientUnits="userSpaceOnUse" gradientTransform="translate(743 362.901) rotate(90) scale(424 1008.16)">
<stop stop-color="#F5F6F6"/>
<stop offset="1" stop-color="#F5F6F6" stop-opacity="0"/>
</radialGradient>
<radialGradient id="paint35_radial_739_206" cx="0" cy="0" r="1" gradientUnits="userSpaceOnUse" gradientTransform="translate(743 362.901) rotate(90) scale(424 1008.16)">
<stop stop-color="#F5F6F6"/>
<stop offset="1" stop-color="#F5F6F6" stop-opacity="0"/>
</radialGradient>
<radialGradient id="paint36_radial_739_206" cx="0" cy="0" r="1" gradientUnits="userSpaceOnUse" gradientTransform="translate(743 362.901) rotate(90) scale(424 1008.16)">
<stop stop-color="#F5F6F6"/>
<stop offset="1" stop-color="#F5F6F6" stop-opacity="0"/>
</radialGradient>
<radialGradient id="paint37_radial_739_206" cx="0" cy="0" r="1" gradientUnits="userSpaceOnUse" gradientTransform="translate(743 362.901) rotate(90) scale(424 1008.16)">
<stop stop-color="#F5F6F6"/>
<stop offset="1" stop-color="#F5F6F6" stop-opacity="0"/>
</radialGradient>
<radialGradient id="paint38_radial_739_206" cx="0" cy="0" r="1" gradientUnits="userSpaceOnUse" gradientTransform="translate(743 362.901) rotate(90) scale(424 1008.16)">
<stop stop-color="#F5F6F6"/>
<stop offset="1" stop-color="#F5F6F6" stop-opacity="0"/>
</radialGradient>
<radialGradient id="paint39_radial_739_206" cx="0" cy="0" r="1" gradientUnits="userSpaceOnUse" gradientTransform="translate(743 362.901) rotate(90) scale(424 1008.16)">
<stop stop-color="#F5F6F6"/>
<stop offset="1" stop-color="#F5F6F6" stop-opacity="0"/>
</radialGradient>
<radialGradient id="paint40_radial_739_206" cx="0" cy="0" r="1" gradientUnits="userSpaceOnUse" gradientTransform="translate(743 362.901) rotate(90) scale(424 1008.16)">
<stop stop-color="#F5F6F6"/>
<stop offset="1" stop-color="#F5F6F6" stop-opacity="0"/>
</radialGradient>
<radialGradient id="paint41_radial_739_206" cx="0" cy="0" r="1" gradientUnits="userSpaceOnUse" gradientTransform="translate(743 362.901) rotate(90) scale(424 1008.16)">
<stop stop-color="#F5F6F6"/>
<stop offset="1" stop-color="#F5F6F6" stop-opacity="0"/>
</radialGradient>
<radialGradient id="paint42_radial_739_206" cx="0" cy="0" r="1" gradientUnits="userSpaceOnUse" gradientTransform="translate(743 362.901) rotate(90) scale(424 1008.16)">
<stop stop-color="#F5F6F6"/>
<stop offset="1" stop-color="#F5F6F6" stop-opacity="0"/>
</radialGradient>
<radialGradient id="paint43_radial_739_206" cx="0" cy="0" r="1" gradientUnits="userSpaceOnUse" gradientTransform="translate(743 362.901) rotate(90) scale(424 1008.16)">
<stop stop-color="#F5F6F6"/>
<stop offset="1" stop-color="#F5F6F6" stop-opacity="0"/>
</radialGradient>
<radialGradient id="paint44_radial_739_206" cx="0" cy="0" r="1" gradientUnits="userSpaceOnUse" gradientTransform="translate(743 362.901) rotate(90) scale(424 1008.16)">
<stop stop-color="#F5F6F6"/>
<stop offset="1" stop-color="#F5F6F6" stop-opacity="0"/>
</radialGradient>
<radialGradient id="paint45_radial_739_206" cx="0" cy="0" r="1" gradientUnits="userSpaceOnUse" gradientTransform="translate(743 362.901) rotate(90) scale(424 1008.16)">
<stop stop-color="#F5F6F6"/>
<stop offset="1" stop-color="#F5F6F6" stop-opacity="0"/>
</radialGradient>
<radialGradient id="paint46_radial_739_206" cx="0" cy="0" r="1" gradientUnits="userSpaceOnUse" gradientTransform="translate(743 362.901) rotate(90) scale(424 1008.16)">
<stop stop-color="#F5F6F6"/>
<stop offset="1" stop-color="#F5F6F6" stop-opacity="0"/>
</radialGradient>
<radialGradient id="paint47_radial_739_206" cx="0" cy="0" r="1" gradientUnits="userSpaceOnUse" gradientTransform="translate(743 362.901) rotate(90) scale(424 1008.16)">
<stop stop-color="#F5F6F6"/>
<stop offset="1" stop-color="#F5F6F6" stop-opacity="0"/>
</radialGradient>
<radialGradient id="paint48_radial_739_206" cx="0" cy="0" r="1" gradientUnits="userSpaceOnUse" gradientTransform="translate(743 362.901) rotate(90) scale(424 1008.16)">
<stop stop-color="#F5F6F6"/>
<stop offset="1" stop-color="#F5F6F6" stop-opacity="0"/>
</radialGradient>
<radialGradient id="paint49_radial_739_206" cx="0" cy="0" r="1" gradientUnits="userSpaceOnUse" gradientTransform="translate(743 362.901) rotate(90) scale(424 1008.16)">
<stop stop-color="#F5F6F6"/>
<stop offset="1" stop-color="#F5F6F6" stop-opacity="0"/>
</radialGradient>
<radialGradient id="paint50_radial_739_206" cx="0" cy="0" r="1" gradientUnits="userSpaceOnUse" gradientTransform="translate(743 362.901) rotate(90) scale(424 1008.16)">
<stop stop-color="#F5F6F6"/>
<stop offset="1" stop-color="#F5F6F6" stop-opacity="0"/>
</radialGradient>
</defs>
</svg>
