<svg width="34" height="66" viewBox="0 0 34 66" fill="none" xmlns="http://www.w3.org/2000/svg">
<path fill-rule="evenodd" clip-rule="evenodd" d="M17.847 63.4779C18.289 62.6393 19.5045 60.3737 20.5481 58.4461C21.0222 57.5705 21.9168 55.9199 23.0077 53.9075L23.0139 53.896C24.3231 51.4806 25.9139 48.5458 27.399 45.8042C30.1123 40.7849 32.3591 36.5918 32.3837 36.5167C32.4205 36.3916 29.2897 36.354 17.0244 36.354C4.78365 36.354 1.61603 36.3915 1.61603 36.5167C1.61603 36.5918 5.05376 43.0004 9.2527 50.7483C13.4394 58.4962 16.9139 64.8672 16.9507 64.9173C16.9999 64.9549 17.3927 64.304 17.847 63.4779Z" stroke="#FB793C" stroke-width="1.39823"/>
<path d="M28.8419 12.5841C28.8419 19.1479 23.5208 24.469 16.957 24.469C10.3931 24.469 5.07201 19.1479 5.07201 12.5841C5.07201 6.02019 10.3931 0.699115 16.957 0.699115C23.5208 0.699115 28.8419 6.02019 28.8419 12.5841Z" stroke="#FB793C" stroke-width="1.39823"/>
</svg>
