<svg width="43" height="32" viewBox="0 0 43 32" fill="none" xmlns="http://www.w3.org/2000/svg">
<path d="M29.8753 12.767C35.3078 17.7523 39.5223 24.0435 42.0215 31.1432C42.1415 31.484 41.7794 31.7909 41.4572 31.6276C35.3011 28.5076 28.338 26.7495 20.9643 26.7495C13.5251 26.7495 6.50381 28.539 0.307521 31.7111C0.121135 31.8065 -0.0707924 31.5903 0.0500198 31.4193C6.94104 21.6644 17.5823 14.7475 29.8753 12.767Z" fill="#F23E0D"/>
<path d="M29.8752 12.7669C22.0033 5.54308 11.5743 1.06147 0.102018 0.83596C-0.00806162 0.833797 -0.0401128 0.985289 0.0611187 1.02858C7.60718 4.25583 14.1015 9.46885 18.8872 16.0107C22.3453 14.4892 26.0294 13.3865 29.8752 12.7669Z" fill="#FB793C"/>
</svg>
