<svg width="74" height="55" viewBox="0 0 74 55" fill="none" xmlns="http://www.w3.org/2000/svg">
<path d="M52.2838 21.3408C61.7908 30.0653 69.1666 41.0753 73.5404 53.5002C73.7503 54.0966 73.1167 54.6338 72.5527 54.3479C61.7792 48.8878 49.5934 45.8109 36.689 45.8109C23.6699 45.8109 11.3822 48.9427 0.538355 54.4941C0.212169 54.6611 -0.123716 54.2827 0.0877123 53.9834C12.1474 36.9117 30.7702 24.8067 52.2838 21.3408Z" fill="#F23E0D"/>
<path d="M52.2833 21.3419C38.5071 8.69968 20.2558 0.856605 0.178537 0.461954C-0.0141083 0.458167 -0.0701997 0.723289 0.106961 0.799056C13.313 6.44693 24.6785 15.57 33.0536 27.0187C39.1057 24.3559 45.553 22.4261 52.2833 21.3419Z" fill="#FB793C"/>
</svg>
