<svg width="1627" height="939" viewBox="0 0 1627 939" fill="none" xmlns="http://www.w3.org/2000/svg">
<g opacity="0.3">
<path opacity="0.3" d="M232 182C232 242.751 182.751 292 122 292C61.2487 292 12 242.751 12 182C12 121.249 61.2487 72 122 72C182.751 72 232 121.249 232 182Z" stroke="#FFF5ED" stroke-width="12"/>
<path opacity="0.3" d="M1517 858.5C1517 879.211 1500.21 896 1479.5 896C1458.79 896 1442 879.211 1442 858.5C1442 837.789 1458.79 821 1479.5 821C1500.21 821 1517 837.789 1517 858.5Z" stroke="#FFF5ED" stroke-width="8"/>
<path opacity="0.3" d="M1512.04 471.818C1513.43 468.573 1511.92 464.819 1508.67 463.434C1505.43 462.05 1501.67 463.558 1500.29 466.804L1474.43 527.416L1413.82 501.559C1410.57 500.174 1406.82 501.683 1405.43 504.928C1404.05 508.174 1405.56 511.928 1408.8 513.312L1469.42 539.17L1443.56 599.782C1442.17 603.028 1443.68 606.781 1446.93 608.166C1450.17 609.55 1453.93 608.042 1455.31 604.796L1481.17 544.184L1541.78 570.042C1545.03 571.426 1548.78 569.918 1550.17 566.672C1551.55 563.426 1550.04 559.673 1546.8 558.288L1486.18 532.43L1512.04 471.818Z" fill="#FFF5ED"/>
<path opacity="0.3" d="M136.078 466.431L208.376 506.078L168.729 578.375L96.431 538.728L136.078 466.431Z" stroke="#FFF5ED" stroke-width="8"/>
<path opacity="0.3" fill-rule="evenodd" clip-rule="evenodd" d="M1429.86 62.0212C1429.92 68.7644 1429.92 87.0507 1429.87 102.64C1429.84 109.722 1429.79 123.074 1429.72 139.354L1429.72 139.447C1429.65 158.986 1429.55 182.728 1429.47 204.903C1429.36 245.483 1429.38 279.318 1429.48 279.873C1429.67 280.785 1449.19 270.816 1525.19 230.833C1601.03 190.93 1620.53 180.367 1620.12 179.575C1619.87 179.1 1577.25 149.788 1525.46 114.489C1473.75 79.1501 1431.02 50.1951 1430.63 49.9986C1430.2 49.9213 1429.93 55.3172 1429.86 62.0212Z" stroke="#FFF5ED" stroke-width="12"/>
<path opacity="0.3" fill-rule="evenodd" clip-rule="evenodd" d="M170.414 768.13C165.358 769.426 151.62 772.841 139.898 775.708C134.573 777.011 124.532 779.462 112.289 782.451L112.219 782.468C97.525 786.055 79.671 790.413 62.9959 794.488C32.4874 801.971 7.07226 808.304 6.67361 808.481C6.02394 808.792 17.1551 821.6 61.3703 871.236C105.497 920.772 117.071 933.453 117.588 932.992C117.898 932.716 131.97 895.23 148.828 849.736C165.731 804.292 179.515 766.795 179.589 766.462C179.567 766.125 175.463 766.929 170.414 768.13Z" stroke="#FFF5ED" stroke-width="12"/>
</g>
</svg>
