<svg width="32" height="32" viewBox="0 0 32 32" fill="none" xmlns="http://www.w3.org/2000/svg">
<g clip-path="url(#clip0_905_27)">
<path fill-rule="evenodd" clip-rule="evenodd" d="M14.5308 3.51373C14.1267 6.14225 14.2564 8.28849 14.4394 11.3173C14.4728 11.8704 14.508 12.4529 14.5421 13.0732C14.573 13.6364 14.1602 14.1263 13.5999 14.1913C13.0396 14.2563 12.5256 13.8738 12.4269 13.3185L12.2614 12.3882C12.0406 11.0193 11.6982 9.07693 11.0465 7.35448C10.3731 5.57466 9.49034 4.35458 8.3933 3.96894C7.78654 3.75689 7.29389 3.93129 6.95185 4.28911C6.58658 4.67119 6.39488 5.27072 6.53376 5.87518C6.85781 7.13438 7.35204 8.35563 7.88983 9.63844C7.93775 9.7527 7.98605 9.86759 8.03458 9.98302C8.52352 11.1458 9.0372 12.3674 9.42174 13.6337L9.42274 13.6371C9.73226 14.6685 9.93378 15.4869 10.0925 16.1315C10.1554 16.3869 10.2116 16.6151 10.2651 16.8183C10.3844 17.2716 10.1938 17.7496 9.79543 17.9965C9.39703 18.2434 8.88416 18.2013 8.53135 17.8928C7.97331 17.4048 7.49866 16.9127 7.07876 16.4651C6.98937 16.3698 6.90351 16.2777 6.82037 16.1885C6.50191 15.847 6.22319 15.548 5.93779 15.2753C5.24776 14.6159 4.65915 14.2508 3.85248 14.1732L3.84691 14.1727C3.33049 14.1203 3.01657 14.2174 2.81079 14.3494C2.60051 14.4842 2.38908 14.7288 2.21406 15.1729C2.08336 15.5412 2.16565 16.2771 2.54485 17.0008L2.5542 17.0186C2.9885 17.887 3.72213 18.8072 4.65367 19.825C5.11443 20.3285 5.60793 20.8394 6.12126 21.3705L6.14327 21.3933C6.64631 21.9138 7.16719 22.4527 7.67387 23.0031C9.4481 24.9308 11.2577 27.2081 11.6538 29.8667H24.5519C24.669 26.5286 25.3346 24.0384 26.2133 21.6205C26.5502 20.6942 26.9058 19.8061 27.2695 18.8977C27.9674 17.155 28.6952 15.3373 29.3771 13.0309C30.0777 10.6611 29.8874 9.32337 29.5708 8.61833C29.2629 7.93297 28.7817 7.7181 28.5474 7.6716C28.0279 7.56851 27.8153 7.7002 27.6689 7.84856C27.4496 8.07074 27.2422 8.49649 27.0765 9.17907C26.9154 9.84203 26.8271 10.5924 26.7371 11.36L26.7302 11.4194C26.6504 12.1012 26.5611 12.8643 26.3819 13.4421C26.3217 13.6682 26.2014 13.8753 26.0222 14.0275C25.8948 14.1357 25.6222 14.3108 25.2393 14.2787C24.6238 14.227 24.2586 13.6991 24.2453 13.1154C24.2261 12.2764 24.295 11.4318 24.3358 10.5943C24.4113 9.03778 24.4843 7.53856 24.3723 6.04629L24.3716 6.03593C24.3021 4.9706 23.5718 4.27153 22.8282 4.10197C22.4651 4.01922 22.1205 4.06615 21.834 4.23147C21.5531 4.39352 21.2381 4.72145 21.0291 5.36307L21.0268 5.37016C20.9392 5.63285 20.849 6.13873 20.7703 6.85312C20.6943 7.54223 20.6365 8.34729 20.59 9.16092C20.5502 9.8567 20.5181 10.5779 20.4893 11.2255C20.4529 12.0433 20.4217 12.7436 20.3868 13.1268C20.373 13.2791 20.3294 13.4292 20.256 13.5634C20.2103 13.6472 19.9705 14.1002 19.3516 14.1193C18.7289 14.1385 18.4315 13.6545 18.3829 13.5663C18.2535 13.3312 18.2414 13.0519 18.2347 12.7847C18.2288 12.5454 18.2249 12.1984 18.2224 11.835C18.2173 11.1058 18.2173 10.2809 18.2173 10.047C18.2173 7.82016 18.2152 5.66127 18.0206 3.5066C17.9026 2.64804 17.2006 2.14304 16.3063 2.13344C15.4112 2.12384 14.6756 2.61769 14.5308 3.51373ZM20.0793 2.90496C19.658 0.956766 17.9181 0.0172869 16.3292 0.000237952C14.6443 -0.0178412 12.7736 0.993879 12.4238 3.17946L12.4228 3.18579C12.3358 3.75125 12.2715 4.29826 12.2259 4.83524C11.5077 3.57043 10.5093 2.45107 9.09973 1.95597C7.65143 1.4492 6.29162 1.89245 5.40975 2.81498C4.55285 3.71138 4.14801 5.0505 4.45933 6.37325L4.4644 6.39388C4.83153 7.82524 5.38445 9.18008 5.92241 10.4633C5.96936 10.5753 6.01621 10.6867 6.0628 10.7976C6.44563 11.7086 6.8134 12.5838 7.12258 13.4668C6.32328 12.7604 5.3744 12.177 4.05922 12.0499C3.17578 11.9608 2.35501 12.1074 1.65932 12.5535C0.969041 12.9961 0.513429 13.662 0.222263 14.4087L0.215183 14.4273C-0.217261 15.6008 0.141504 17.006 0.650441 17.9818C1.2239 19.1248 2.12502 20.222 3.07993 21.2653C3.56365 21.7939 4.07757 22.3258 4.58737 22.8531L4.60121 22.8674C5.10984 23.3937 5.61529 23.9166 6.10419 24.4478C8.12665 26.6453 9.60004 28.7215 9.60004 30.9333C9.60004 31.5223 10.0776 32 10.6667 32H25.6C26.1892 32 26.6667 31.5223 26.6667 30.9333C26.6667 27.3519 27.3111 24.8452 28.2184 22.3492C28.5126 21.5398 28.8461 20.7057 29.1985 19.8239C29.9174 18.025 30.7157 16.0277 31.4229 13.6357C32.2039 10.9936 32.1193 9.08595 31.5168 7.74436C30.9056 6.3831 29.8236 5.74997 28.9628 5.57909C28.0055 5.3891 27.1716 5.5568 26.5105 6.03906C26.5073 5.98982 26.5037 5.94065 26.5 5.89156C26.3652 3.8624 24.9402 2.39541 23.3024 2.02202C22.4738 1.83315 21.5703 1.92084 20.7682 2.38345C20.5195 2.52685 20.2892 2.70129 20.0793 2.90496Z" fill="#F23E0D"/>
</g>
<defs>
<clipPath id="clip0_905_27">
<rect width="32" height="32" fill="white"/>
</clipPath>
</defs>
</svg>
