<svg width="32" height="32" viewBox="0 0 32 32" fill="none" xmlns="http://www.w3.org/2000/svg">
<g clip-path="url(#clip0_905_97)">
<path fill-rule="evenodd" clip-rule="evenodd" d="M18.5529 0.0860886C19.005 0.279548 19.2662 0.757026 19.1854 1.2421L17.2591 12.8H26.6664C27.0705 12.8 27.44 13.0283 27.6207 13.3897C27.8012 13.751 27.7623 14.1835 27.5198 14.5067L14.7199 31.5733C14.4249 31.9667 13.8991 32.1073 13.447 31.9138C12.9948 31.7205 12.7336 31.2429 12.8145 30.758L14.7408 19.2H5.3333C4.92929 19.2 4.55993 18.9717 4.37925 18.6103C4.19856 18.249 4.23756 17.8165 4.47997 17.4933L17.2799 0.426746C17.575 0.0333345 18.1007 -0.107371 18.5529 0.0860886ZM7.46664 17.0667H15.9999C16.3135 17.0667 16.6111 17.2046 16.8138 17.4439C17.0165 17.6831 17.1036 17.9994 17.0521 18.3087L15.6379 26.7938L24.5331 14.9333H15.9999C15.6864 14.9333 15.3887 14.7954 15.186 14.5561C14.9834 14.3169 14.8962 14.0006 14.9478 13.6913L16.362 5.20623L7.46664 17.0667Z" fill="#F23E0D"/>
</g>
<defs>
<clipPath id="clip0_905_97">
<rect width="32" height="32" fill="white"/>
</clipPath>
</defs>
</svg>
