<svg width="32" height="32" viewBox="0 0 32 32" fill="none" xmlns="http://www.w3.org/2000/svg">
<path fill-rule="evenodd" clip-rule="evenodd" d="M14.621 8.22088L16.3276 6.51417C17.7026 5.1392 20.1143 4.18498 22.5109 3.84264C23.692 3.67394 24.8088 3.66344 25.7203 3.79995C26.6639 3.94127 27.2423 4.21749 27.5125 4.48759C27.7826 4.75769 28.0589 5.33598 28.2001 6.27959C28.3367 7.19114 28.3262 8.30801 28.1575 9.48906C27.8151 11.8856 26.8608 14.2973 25.4857 15.6724L16 25.1582L13.5542 22.7125C13.1377 22.2959 12.4623 22.2959 12.0457 22.7125C11.6292 23.1289 11.6292 23.8043 12.0457 24.221L15.2458 27.421C15.6623 27.8374 16.3377 27.8374 16.7543 27.421L17.9216 26.2536L20.4187 30.4153C20.5877 30.6971 20.877 30.8851 21.203 30.9254C21.529 30.9655 21.8554 30.8531 22.0875 30.621L26.3541 26.3543C26.5916 26.1169 26.7034 25.7815 26.656 25.4491L25.6647 18.5105L26.9944 17.1809C28.8192 15.3559 29.8916 12.4342 30.2692 9.79076C30.4606 8.45181 30.4834 7.12204 30.31 5.96362C30.1412 4.83727 29.7641 3.72226 29.0208 2.97907C28.2778 2.2359 27.1627 1.85882 26.0363 1.69014C24.8779 1.51666 23.5482 1.53948 22.2091 1.73075C19.5657 2.10836 16.644 3.18078 14.8191 5.00567L13.4895 6.33529L6.55086 5.34406C6.21851 5.29657 5.88317 5.40834 5.64577 5.64576L1.37911 9.9124C1.14685 10.1447 1.03455 10.471 1.07468 10.797C1.11482 11.123 1.30291 11.4123 1.58456 11.5813L5.74645 14.0784L4.57913 15.2457C4.37911 15.4458 4.26672 15.7171 4.26672 16C4.26672 16.2829 4.37911 16.5542 4.57913 16.7542L7.77915 19.9542C8.1957 20.3708 8.87108 20.3708 9.28763 19.9542C9.70421 19.5377 9.70421 18.8623 9.28763 18.4458L6.84187 16L8.22096 14.6209L14.621 8.22088ZM21.5452 28.1463L19.4765 24.6986L23.779 20.3961L24.4687 25.2228L21.5452 28.1463ZM7.30137 12.5235L11.604 8.2209L6.77714 7.53137L3.85362 10.4549L7.30137 12.5235ZM5.02094 22.0874C5.4375 21.671 5.4375 20.9956 5.02094 20.579C4.60439 20.1625 3.929 20.1625 3.51244 20.579L1.37911 22.7123C0.962549 23.1289 0.962549 23.8043 1.37911 24.2208C1.79567 24.6374 2.47105 24.6374 2.88761 24.2208L5.02094 22.0874ZM8.22098 25.2877C8.63754 24.871 8.63756 24.1956 8.22101 23.7792C7.80445 23.3625 7.12908 23.3625 6.7125 23.7792L2.44577 28.0456C2.02922 28.4623 2.02921 29.1377 2.44577 29.5541C2.86233 29.9707 3.5377 29.9707 3.95425 29.5543L8.22098 25.2877ZM11.4209 28.4874C11.8375 28.071 11.8375 27.3956 11.4209 26.979C11.0044 26.5625 10.329 26.5625 9.91244 26.979L7.77911 29.1123C7.36255 29.5289 7.36255 30.2043 7.77911 30.6208C8.19566 31.0374 8.87105 31.0374 9.28761 30.6208L11.4209 28.4874ZM20.2666 14.3974C21.738 14.3974 22.9308 13.2047 22.9308 11.7333C22.9308 10.2619 21.738 9.06916 20.2666 9.06916C18.7952 9.06916 17.6025 10.2619 17.6025 11.7333C17.6025 13.2047 18.7952 14.3974 20.2666 14.3974Z" fill="#F23E0D"/>
</svg>
