<svg width="28" height="26" viewBox="0 0 28 26" fill="none" xmlns="http://www.w3.org/2000/svg">
<path opacity="0.3" fill-rule="evenodd" clip-rule="evenodd" d="M13.3026 2.2107C12.9387 2.91531 11.9379 4.8188 11.0786 6.43834C10.6883 7.17406 9.95161 8.56086 9.05347 10.2517L9.04834 10.2614C7.97036 12.2907 6.66056 14.7566 5.43779 17.06C3.20371 21.2772 1.35377 24.8002 1.33355 24.8633C1.30322 24.9685 3.88101 25 13.9799 25C24.0585 25 26.6666 24.9685 26.6666 24.8633C26.6666 24.8002 23.8361 19.4157 20.3788 12.906C16.9317 6.39628 14.0709 1.04337 14.0405 1.0013C14.0001 0.96975 13.6766 1.51661 13.3026 2.2107Z" stroke="#F23E0D" stroke-width="2"/>
</svg>
