<svg width="93" height="32" viewBox="0 0 93 32" fill="none" xmlns="http://www.w3.org/2000/svg">
<path d="M92.029 12.26C91.97 12.555 91.8077 12.7026 91.5422 12.7026H86.8949C86.7769 12.7026 86.7178 12.7616 86.7178 12.8796L85.2573 24.6085C85.2278 24.8151 85.213 25.0954 85.213 25.4495C85.213 26.3937 85.4491 27.0723 85.9212 27.4854C86.4228 27.8985 87.1752 28.1051 88.1784 28.1051H89.4177C89.5652 28.1051 89.6685 28.1493 89.7275 28.2378C89.816 28.3264 89.8456 28.4296 89.8161 28.5477L89.462 31.2918C89.462 31.5869 89.3144 31.7344 89.0194 31.7344C88.0752 31.7934 87.4113 31.8229 87.0277 31.8229C85.0507 31.8229 83.5606 31.5131 82.5574 30.8934C81.5542 30.2443 81.0526 29.0788 81.0526 27.3969C81.0526 27.1313 81.0821 26.7035 81.1411 26.1134L82.7787 12.8796C82.7787 12.7616 82.7197 12.7026 82.6017 12.7026H79.9903C79.6953 12.7026 79.5772 12.555 79.6362 12.26L79.9461 9.64863C80.0051 9.35357 80.1674 9.20603 80.4329 9.20603H83.0443C83.1623 9.20603 83.2213 9.14702 83.2213 9.02899L83.8852 3.80631C83.9442 3.51124 84.1065 3.36371 84.3721 3.36371H87.4703C87.5883 3.36371 87.6768 3.40797 87.7358 3.49649C87.8243 3.58501 87.8539 3.68828 87.8243 3.80631L87.2047 9.02899C87.1752 9.0585 87.1752 9.10276 87.2047 9.16177C87.2342 9.19128 87.2785 9.20603 87.3375 9.20603H91.9848C92.2799 9.20603 92.3979 9.35357 92.3389 9.64863L92.029 12.26Z" fill="#F5F6F6"/>
<path d="M76.0315 4.47022C74.5856 4.47022 73.5677 4.75054 72.9775 5.31116C72.4169 5.87179 72.0481 6.93403 71.871 8.49789L71.7825 9.02901C71.7825 9.14703 71.8415 9.20605 71.9595 9.20605H76.4741C76.5921 9.20605 76.6806 9.25031 76.7396 9.33883C76.8281 9.42735 76.8577 9.53062 76.8281 9.64865L76.4741 12.6583C76.415 12.9534 76.2528 13.1009 75.9872 13.1009H71.4727C71.3547 13.1009 71.2956 13.1599 71.2956 13.278L69.0826 31.2918C69.0531 31.4098 68.9941 31.5131 68.9056 31.6016C68.8171 31.6901 68.7138 31.7344 68.5958 31.7344H65.3205C65.055 31.7344 64.9222 31.5869 64.9222 31.2918L67.1352 13.278C67.1647 13.2485 67.1647 13.219 67.1352 13.1894C67.1057 13.1304 67.0614 13.1009 67.0024 13.1009H64.1255C63.8305 13.1009 63.7124 12.9534 63.7714 12.6583L64.1255 9.64865C64.1845 9.35358 64.3468 9.20605 64.6124 9.20605H67.4893C67.6073 9.20605 67.6663 9.14703 67.6663 9.02901L67.7548 8.23233C67.9909 6.28489 68.404 4.78004 68.9941 3.7178C69.5843 2.65556 70.4252 1.90314 71.5169 1.46054C72.6382 0.988434 74.1578 0.75238 76.0757 0.75238H77.5363C77.8314 0.75238 77.9494 0.899914 77.8904 1.19498L77.5806 4.02762C77.5216 4.32269 77.3593 4.47022 77.0937 4.47022H76.0315Z" fill="#F5F6F6"/>
<path d="M57.8374 5.66528C57.0997 5.66528 56.5096 5.44398 56.067 5.00138C55.6244 4.55878 55.4031 3.9834 55.4031 3.27524C55.4031 2.33103 55.6981 1.5491 56.2883 0.929459C56.9079 0.30982 57.6603 0 58.5455 0C59.2832 0 59.8733 0.2213 60.3159 0.6639C60.7585 1.07699 60.9798 1.65237 60.9798 2.39004C60.9798 3.30475 60.67 4.08667 60.0504 4.73582C59.4307 5.35546 58.6931 5.66528 57.8374 5.66528ZM52.9245 31.6902C52.6294 31.6902 52.5114 31.5426 52.5704 31.2476L55.226 9.64868C55.226 9.53066 55.2703 9.42738 55.3588 9.33886C55.4473 9.25034 55.5506 9.20608 55.6686 9.20608H58.9439C59.2094 9.20608 59.3422 9.35362 59.3422 9.64868L56.6866 31.2476C56.6276 31.5426 56.4653 31.6902 56.1997 31.6902H52.9245Z" fill="#F5F6F6"/>
<path d="M25.098 31.7344C24.8914 31.7344 24.7439 31.6164 24.6554 31.3803L21.1588 9.69291V9.6044C21.1588 9.33883 21.3063 9.20605 21.6014 9.20605H24.9652C25.0832 9.20605 25.1717 9.25031 25.2307 9.33883C25.3193 9.39785 25.3635 9.48637 25.3635 9.6044L27.488 25.6708C27.488 25.7298 27.5175 25.7593 27.5765 25.7593C27.6355 25.7593 27.6798 25.7298 27.7093 25.6708L33.8172 9.6044C33.9352 9.33883 34.1122 9.20605 34.3483 9.20605H37.3137C37.5498 9.20605 37.6973 9.33883 37.7563 9.6044L40.0136 25.6265C40.0431 25.6855 40.0726 25.715 40.1021 25.715C40.1611 25.715 40.2054 25.6855 40.2349 25.6265L46.4313 9.6044C46.5493 9.33883 46.7264 9.20605 46.9624 9.20605L50.2819 9.25031C50.636 9.25031 50.7393 9.4126 50.5917 9.73717L41.7397 31.3803C41.5922 31.6164 41.4152 31.7344 41.2086 31.7344H37.8448C37.6383 31.7344 37.5055 31.6164 37.4465 31.3803L35.0565 16.4204C35.027 16.3614 34.9827 16.3319 34.9237 16.3319C34.8942 16.3319 34.8647 16.3614 34.8352 16.4204L29.0371 31.3361C28.9191 31.6016 28.742 31.7344 28.506 31.7344H25.098Z" fill="#F5F6F6"/>
<path d="M8.43628 32C6.01673 32 4.08404 31.4836 2.63821 30.4509C1.22189 29.4182 0.513733 28.1051 0.513733 26.5118C0.513733 26.2462 0.528486 26.0544 0.557993 25.9364L0.646513 25.4495C0.646513 25.3315 0.690773 25.2282 0.779293 25.1397C0.867813 25.0512 0.98584 25.0069 1.13337 25.0069H4.18731C4.33485 25.0069 4.43812 25.0512 4.49713 25.1397C4.58565 25.2282 4.61516 25.3315 4.58565 25.4495L4.54139 25.6708C4.45287 26.497 4.80695 27.2199 5.60364 27.8396C6.40032 28.4592 7.46256 28.769 8.79036 28.769C10.1772 28.769 11.3132 28.4592 12.1984 27.8396C13.0836 27.1904 13.5262 26.3937 13.5262 25.4495C13.5262 24.6824 13.1721 24.107 12.4639 23.7234C11.7853 23.3103 10.6935 22.8824 9.1887 22.4398C7.68386 21.9972 6.44458 21.5546 5.47086 21.112C4.49714 20.6694 3.67095 20.0498 2.99229 19.2531C2.31364 18.4564 1.97431 17.4532 1.97431 16.2434C1.97431 14.0304 2.81525 12.2748 4.49713 10.9765C6.20852 9.6487 8.39202 8.9848 11.0476 8.9848C13.3786 8.9848 15.2376 9.51592 16.6244 10.5782C18.0112 11.6109 18.7046 12.9682 18.7046 14.6501C18.7046 14.9747 18.6898 15.2107 18.6603 15.3582L18.6161 15.491C18.6161 15.6091 18.5718 15.7123 18.4833 15.8008C18.3948 15.8894 18.2915 15.9336 18.1735 15.9336H15.1638C15.0163 15.9336 14.8982 15.8894 14.8097 15.8008C14.7507 15.7123 14.736 15.6091 14.7655 15.491L14.8097 15.3582C14.8982 14.5026 14.5589 13.7944 13.7917 13.2338C13.0541 12.6436 11.9918 12.3486 10.605 12.3486C9.24771 12.3486 8.14121 12.6289 7.28552 13.1895C6.42982 13.7206 6.00198 14.4583 6.00198 15.4025C6.00198 16.1697 6.35606 16.7598 7.06422 17.1729C7.77238 17.586 8.89363 18.0286 10.428 18.5007C11.9623 18.9433 13.2164 19.3712 14.1901 19.7842C15.1638 20.1973 15.99 20.8022 16.6686 21.5989C17.3768 22.3956 17.7309 23.4136 17.7309 24.6528C17.7309 26.1282 17.3325 27.4265 16.5359 28.5477C15.7687 29.6395 14.6769 30.4952 13.2606 31.1148C11.8443 31.7049 10.2362 32 8.43628 32Z" fill="#F5F6F6"/>
</svg>
