<svg width="31" height="9" viewBox="0 0 31 9" fill="none" xmlns="http://www.w3.org/2000/svg">
<g opacity="0.5">
<path d="M27.1663 6.69671V6.27482C27.1663 5.98315 27.2262 5.71621 27.346 5.47402C27.4684 5.22922 27.6455 5.0339 27.8773 4.88807C28.1117 4.73962 28.3956 4.6654 28.7289 4.6654C29.0675 4.6654 29.3514 4.73962 29.5806 4.88807C29.8098 5.0339 29.983 5.22922 30.1002 5.47402C30.2174 5.71621 30.276 5.98315 30.276 6.27482V6.69671C30.276 6.98838 30.2161 7.25662 30.0963 7.50142C29.9791 7.74361 29.8046 7.93893 29.5728 8.08737C29.3436 8.23321 29.0623 8.30613 28.7289 8.30613C28.3904 8.30613 28.1052 8.23321 27.8734 8.08737C27.6416 7.93893 27.4658 7.74361 27.346 7.50142C27.2262 7.25662 27.1663 6.98838 27.1663 6.69671ZM27.9632 6.27482V6.69671C27.9632 6.9389 28.0205 7.15636 28.1351 7.34907C28.2497 7.53918 28.4477 7.63423 28.7289 7.63423C29.0024 7.63423 29.1951 7.53918 29.3071 7.34907C29.4217 7.15636 29.479 6.9389 29.479 6.69671V6.27482C29.479 6.03263 29.4243 5.81648 29.3149 5.62637C29.2056 5.43365 29.0102 5.3373 28.7289 5.3373C28.4555 5.3373 28.2588 5.43365 28.139 5.62637C28.0218 5.81648 27.9632 6.03263 27.9632 6.27482ZM23.1814 2.11846V1.69658C23.1814 1.4049 23.2413 1.13797 23.3611 0.895773C23.4835 0.650976 23.6606 0.455658 23.8924 0.309821C24.1268 0.161379 24.4107 0.0871582 24.7441 0.0871582C25.0827 0.0871582 25.3666 0.161379 25.5957 0.309821C25.8249 0.455658 25.9981 0.650976 26.1153 0.895773C26.2325 1.13797 26.2911 1.4049 26.2911 1.69658V2.11846C26.2911 2.41014 26.2312 2.67837 26.1114 2.92317C25.9942 3.16537 25.8197 3.36068 25.5879 3.50912C25.3587 3.65496 25.0775 3.72788 24.7441 3.72788C24.4055 3.72788 24.1203 3.65496 23.8885 3.50912C23.6567 3.36068 23.4809 3.16537 23.3611 2.92317C23.2413 2.67837 23.1814 2.41014 23.1814 2.11846ZM23.9784 1.69658V2.11846C23.9784 2.36066 24.0357 2.57811 24.1503 2.77082C24.2649 2.96093 24.4628 3.05599 24.7441 3.05599C25.0176 3.05599 25.2103 2.96093 25.3223 2.77082C25.4369 2.57811 25.4942 2.36066 25.4942 2.11846V1.69658C25.4942 1.45438 25.4395 1.23823 25.3301 1.04812C25.2207 0.855408 25.0254 0.759051 24.7441 0.759051C24.4706 0.759051 24.274 0.855408 24.1542 1.04812C24.037 1.23823 23.9784 1.45438 23.9784 1.69658ZM23.4783 8.19675L28.979 0.196536H29.8697L24.369 8.19675H23.4783Z" fill="#F5F6F6"/>
<path d="M16.4265 8.19675V7.4936L19.0675 4.6029C19.3774 4.26435 19.6326 3.97007 19.8332 3.72007C20.0337 3.46746 20.1822 3.23047 20.2785 3.00911C20.3775 2.78515 20.427 2.55077 20.427 2.30597C20.427 2.02471 20.3593 1.78121 20.2238 1.57548C20.091 1.36974 19.9087 1.21089 19.6769 1.0989C19.4451 0.986922 19.1847 0.930931 18.8956 0.930931C18.5882 0.930931 18.32 0.994734 18.0908 1.12234C17.8642 1.24734 17.6884 1.42313 17.5634 1.6497C17.441 1.87627 17.3798 2.1419 17.3798 2.4466H16.4578C16.4578 1.97783 16.5659 1.56636 16.782 1.21219C16.9982 0.858012 17.2925 0.581963 17.6649 0.384041C18.04 0.186119 18.4606 0.0871582 18.9268 0.0871582C19.3956 0.0871582 19.811 0.186119 20.1731 0.384041C20.5351 0.581963 20.819 0.848897 21.0247 1.18484C21.2305 1.52079 21.3334 1.8945 21.3334 2.30597C21.3334 2.60025 21.28 2.88801 21.1732 3.16927C21.069 3.44792 20.8867 3.75913 20.6262 4.10289C20.3684 4.44404 20.0103 4.86072 19.5519 5.35292L17.7548 7.27485V7.33735H21.474V8.19675H16.4265Z" fill="#F5F6F6"/>
<path d="M14.0845 8.25931C13.8918 8.25931 13.7264 8.1903 13.5883 8.05228C13.4503 7.91425 13.3813 7.74888 13.3813 7.55617C13.3813 7.36346 13.4503 7.19809 13.5883 7.06006C13.7264 6.92204 13.8918 6.85303 14.0845 6.85303C14.2772 6.85303 14.4426 6.92204 14.5806 7.06006C14.7187 7.19809 14.7877 7.36346 14.7877 7.55617C14.7877 7.68378 14.7551 7.80097 14.69 7.90774C14.6275 8.01452 14.5429 8.10046 14.4361 8.16556C14.3319 8.22806 14.2147 8.25931 14.0845 8.25931Z" fill="#F5F6F6"/>
<path d="M9.50488 8.30612C9.04649 8.30612 8.63368 8.21497 8.26645 8.03268C7.89921 7.85038 7.60491 7.60038 7.38353 7.28266C7.16215 6.96494 7.04104 6.60295 7.0202 6.19669H7.95782C7.99428 6.55868 8.15836 6.85817 8.45006 7.09515C8.74437 7.32953 9.09597 7.44672 9.50488 7.44672C9.83304 7.44672 10.1247 7.3699 10.38 7.21625C10.6378 7.0626 10.8397 6.85166 10.9855 6.58342C11.134 6.31258 11.2082 6.00658 11.2082 5.66543C11.2082 5.31646 11.1314 5.00525 10.9777 4.73181C10.8267 4.45576 10.6183 4.23831 10.3526 4.07945C10.087 3.92059 9.78356 3.83986 9.44237 3.83725C9.19755 3.83465 8.94622 3.87241 8.68837 3.95054C8.43053 4.02606 8.21826 4.12372 8.05158 4.24352L7.14522 4.13414L7.62965 0.196533H11.7864V1.05593H8.44225L8.16096 3.41537H8.20785C8.37193 3.28516 8.57768 3.17708 8.82511 3.09114C9.07253 3.0052 9.33038 2.96223 9.59864 2.96223C10.0883 2.96223 10.5245 3.07942 10.9074 3.3138C11.2929 3.54558 11.595 3.8633 11.8137 4.26695C12.0351 4.67061 12.1458 5.13156 12.1458 5.6498C12.1458 6.16023 12.0312 6.61597 11.802 7.01703C11.5754 7.41547 11.2629 7.73059 10.8644 7.96236C10.4659 8.19154 10.0128 8.30612 9.50488 8.30612Z" fill="#F5F6F6"/>
<path d="M0.343506 8.19675V7.4936L2.98445 4.6029C3.29438 4.26435 3.54962 3.97007 3.75017 3.72007C3.95071 3.46746 4.09917 3.23047 4.19553 3.00911C4.2945 2.78515 4.34399 2.55077 4.34399 2.30597C4.34399 2.02471 4.27627 1.78121 4.14084 1.57548C4.00801 1.36974 3.8257 1.21089 3.5939 1.0989C3.3621 0.986922 3.10165 0.930931 2.81255 0.930931C2.50522 0.930931 2.23696 0.994734 2.00777 1.12234C1.78118 1.24734 1.60538 1.42313 1.48036 1.6497C1.35795 1.87627 1.29675 2.1419 1.29675 2.4466H0.37476C0.37476 1.97783 0.482846 1.56636 0.699017 1.21219C0.915189 0.858012 1.2095 0.581963 1.58194 0.384041C1.95698 0.186119 2.3776 0.0871582 2.84381 0.0871582C3.31261 0.0871582 3.72803 0.186119 4.09005 0.384041C4.45207 0.581963 4.73596 0.848897 4.94172 1.18484C5.14747 1.52079 5.25035 1.8945 5.25035 2.30597C5.25035 2.60025 5.19695 2.88801 5.09017 3.16927C4.98599 3.44792 4.80368 3.75913 4.54323 4.10289C4.28539 4.44404 3.92727 4.86072 3.46888 5.35292L1.67179 7.27485V7.33735H5.39099V8.19675H0.343506Z" fill="#F5F6F6"/>
</g>
</svg>
