<svg width="20" height="20" viewBox="0 0 20 20" fill="none" xmlns="http://www.w3.org/2000/svg">
<path d="M19.1043 10.8956C19.599 10.8956 20 10.4946 20 9.99994C20 9.50526 19.599 9.10424 19.1043 9.10424H10.8958V0.895699C10.8958 0.401018 10.4947 0 10.0001 0C9.50538 0 9.10436 0.401018 9.10436 0.895699V9.10424H0.895698C0.401018 9.10424 -2.40662e-07 9.50526 0 9.99994C-3.53914e-07 10.4946 0.401018 10.8956 0.895699 10.8956L9.10436 10.8956V19.1043C9.10436 19.599 9.50538 20 10.0001 20C10.4947 20 10.8958 19.599 10.8958 19.1043V10.8956L19.1043 10.8956Z" fill="#FB793C"/>
</svg>
