<svg width="88" height="58" viewBox="0 0 88 58" fill="none" xmlns="http://www.w3.org/2000/svg">
<path d="M10.6829 10.7917C9.88548 10.9072 9.15272 11.2955 8.60945 11.8906C8.06617 12.4856 7.74598 13.2506 7.70341 14.0551C7.70341 15.6593 8.77604 17.2086 8.39099 18.7669C8.00595 20.3253 6.35575 21.1687 5.05393 22.0854C2.8364 23.8544 1.34553 26.3759 0.86425 29.1714C0.401866 31.952 0.539403 34.7993 1.26763 37.5224C1.62334 39.3082 2.34094 41.0022 3.37622 42.5001C4.1811 43.5498 5.20855 44.4083 6.38472 45.0137C7.56089 45.6192 8.85659 45.9567 10.1787 46.0018C11.5006 46.0325 12.8151 45.7948 14.0426 45.3033C15.27 44.8117 16.3851 44.0764 17.3204 43.1417C18.6039 41.8584 19.594 40.1992 21.235 39.475C23.0686 38.6408 25.1497 39.1266 26.9832 39.86C28.8168 40.5933 30.6503 41.5834 32.5847 41.7575C34.1298 41.8554 35.6655 41.4538 36.9647 40.6119C38.264 39.77 39.2579 38.5326 39.7998 37.0824C40.249 35.7991 40.3223 34.3965 40.9457 33.1957C41.3447 32.4305 41.9496 31.792 42.6922 31.3524C43.4347 30.9127 44.2854 30.6893 45.1482 30.7075C46.011 30.7256 46.8516 30.9844 47.5751 31.4549C48.2985 31.9253 48.8761 32.5886 49.2426 33.3698C50.361 35.7532 49.3251 38.6316 50.0585 41.1525C50.5121 42.4027 51.3045 43.5021 52.3471 44.3277C53.3898 45.1533 54.6416 45.6727 55.9626 45.8277C58.6231 46.0896 61.3003 45.5331 63.636 44.2326C61.289 41.2992 62.1875 36.8991 64.1677 33.6723C65.0845 32.1781 66.4597 30.6931 68.2015 30.7023C68.748 30.7439 69.2805 30.8953 69.7673 31.1473C70.254 31.3993 70.6849 31.7467 71.0344 32.169C72.8129 34.0757 73.2346 36.8441 73.5738 39.4291L74.784 48.6694C74.8228 50.0486 75.2835 51.3827 76.1041 52.492C76.6668 53.0393 77.3217 53.4831 78.0385 53.8029C80.3488 55.0129 84.6118 56.2138 86.9221 57.4146C88.0864 42.4726 87.0963 27.9247 85.5836 13.0193C85.2536 9.7742 84.6668 6.2816 82.3199 4.01738C80.3855 2.184 77.626 1.48731 74.9857 1.11147C68.1167 0.13561 61.119 0.619776 54.4499 2.53234C51.5437 3.37569 48.4358 4.48489 45.5755 3.49486C43.7419 2.86235 42.2751 1.45064 40.4048 1.0473C37.2053 0.35978 34.0974 2.96318 32.8231 5.96993C32.5289 6.79626 32.1478 7.58905 31.6863 8.33499C29.8986 10.8559 25.9106 10.5534 23.3345 8.83917C22.6618 8.31461 21.9294 7.87151 21.1525 7.51914C17.3846 6.21744 14.6893 10.3334 10.6829 10.7917Z" fill="#F45B31"/>
</svg>
