<svg width="55" height="19" viewBox="0 0 55 19" fill="none" xmlns="http://www.w3.org/2000/svg">
<path d="M54.1883 8.80376H54.4816L53.6657 0.801036C53.6635 0.787262 53.6579 0.774273 53.6493 0.763269C53.6407 0.752265 53.6295 0.743613 53.6167 0.73812C53.6039 0.732626 53.5899 0.730468 53.576 0.731853C53.5621 0.733239 53.5488 0.738117 53.5373 0.746037C51.6732 2.28777 49.5101 3.42697 47.1841 4.09195C45.5546 5.82961 43.5244 7.14201 41.2709 7.91457C37.9309 8.98973 34.3828 9.25369 30.9205 8.68458C29.3161 8.45541 27.7392 8.11622 26.1257 8.00621C23.7798 7.84533 21.4264 8.18595 19.2224 9.0054C17.5814 9.61042 16.0503 10.4813 14.4551 11.1871C12.8779 11.9648 11.1439 12.3724 9.38536 12.3788C7.94702 12.3491 6.56992 11.7911 5.51657 10.8113L2.61955 11.8563C1.94955 12.091 1.3695 12.529 0.96029 13.109C0.55108 13.6891 0.33311 14.3824 0.336776 15.0922V18.044L44.5346 17.6865C44.7389 15.2661 45.8442 13.0104 47.6317 11.3656C49.4193 9.72084 51.759 8.80663 54.1883 8.80376Z" fill="#F89B81"/>
</svg>
