<svg width="55" height="19" viewBox="0 0 55 19" fill="none" xmlns="http://www.w3.org/2000/svg">
<path d="M54.0477 8.80376H54.3503L53.5343 0.801036C53.5321 0.787262 53.5265 0.774273 53.5179 0.763269C53.5094 0.752265 53.4981 0.743613 53.4853 0.73812C53.4725 0.732626 53.4585 0.730468 53.4446 0.731853C53.4308 0.733239 53.4174 0.738117 53.406 0.746037C51.5434 2.29432 49.3802 3.43981 47.0527 4.11028C45.4232 5.84793 43.393 7.16034 41.1395 7.93289C37.7964 9.00813 34.2453 9.27208 30.7799 8.70291C29.1847 8.47373 27.6079 8.13457 25.9943 8.02457C23.6484 7.86368 21.2951 8.2043 19.091 9.02376C17.45 9.62877 15.919 10.4996 14.3146 11.2055C12.7409 11.9839 11.0097 12.3915 9.25399 12.3972C7.81529 12.3691 6.43761 11.8109 5.3852 10.8296L2.47901 11.8747C1.82128 12.1171 1.25395 12.5557 0.853841 13.1312C0.453728 13.7068 0.240168 14.3913 0.242078 15.0922V18.044L44.4491 17.6865C44.6505 15.2747 45.7473 13.0257 47.5237 11.3818C49.3001 9.73791 51.6274 8.81826 54.0477 8.80376Z" fill="#F89B81"/>
</svg>
