<svg width="32" height="32" viewBox="0 0 32 32" fill="none" xmlns="http://www.w3.org/2000/svg">
<path d="M3.55556 0C1.59111 0 0 1.59111 0 3.55556V28.4444C0 30.4089 1.59111 32 3.55556 32H28.4444C30.4089 32 32 30.4089 32 28.4444V3.55556C32 1.59111 30.4089 0 28.4444 0H3.55556ZM3.55556 3.55556H28.4444V28.4444H3.55556V3.55556ZM8.49653 5.89583C6.97297 5.89583 6.05903 6.81169 6.05903 8.03125C6.05903 9.25081 6.97308 10.1632 8.34375 10.1632C9.86731 10.1632 10.7812 9.25081 10.7812 8.03125C10.7812 6.81169 9.86719 5.89583 8.49653 5.89583ZM6.18056 12.4444V24.8889H10.6667V12.4444H6.18056ZM14.3681 12.4444V24.8889H18.8542V18.0868C18.8542 16.0619 20.2989 15.7708 20.7326 15.7708C21.1664 15.7708 22.3264 16.2059 22.3264 18.0868V24.8889H26.6667V18.0868C26.6667 14.181 24.9311 12.4444 22.7604 12.4444C20.5898 12.4444 19.4319 13.1672 18.8542 14.1806V12.4444H14.3681Z" fill="#667472"/>
</svg>
